<svg width="400" height="68" viewBox="0 0 400 68" fill="none" xmlns="http://www.w3.org/2000/svg">
<path d="M40.0052 40.7782L33.3466 34.1369L40.0052 27.4956V14.2131L20.0293 34.1369L40.0052 54.0607V40.7782Z" fill="#FF0040"/>
<path d="M0 0.894287V67.3798H66.6775V0.894287H0ZM57.1468 57.8741H9.53059V10.3818H57.1468V57.8741Z" fill="#FF0040"/>
<path d="M105.016 56.9067L109.845 62.3437C108.894 63.4383 107.796 64.3871 106.571 65.19C103.827 67.0509 100.662 67.9997 97.0402 67.9997C92.3755 67.9997 88.4791 66.5035 85.3509 63.5113C82.2412 60.5191 80.668 56.8518 80.668 52.5277C80.668 48.2036 82.223 44.5363 85.3509 41.5441C88.4609 38.5519 92.3573 37.0557 97.0402 37.0557C100.571 37.0557 103.717 38.0045 106.479 39.9021C107.705 40.7596 108.766 41.7082 109.626 42.7119L104.796 48.149C104.156 47.4556 103.443 46.8171 102.656 46.2697C100.845 45.0108 98.9609 44.3904 97.0402 44.3904C94.7537 44.3904 92.8146 45.1749 91.223 46.7622C89.6498 48.3314 88.8632 50.2653 88.8632 52.5642C88.8632 54.863 89.6498 56.7788 91.223 58.3662C92.7962 59.9354 94.7352 60.738 97.0402 60.738C98.9427 60.738 100.845 60.1179 102.748 58.8587C103.589 58.2386 104.339 57.6182 105.016 56.9067Z" fill="black"/>
<path d="M113.32 67.1607V37.877H121.296V53.9875L133.881 37.877H140.796V67.1607H132.821V51.0501L120.235 67.1607H113.32Z" fill="black"/>
<path d="M146.777 67.1606V37.8769H154.753V48.5504H165.454V37.8769H173.43V67.1606H165.454V56.0676H154.753V67.1606H146.777Z" fill="black"/>
<path d="M179.412 67.1606V37.8769H201.858V44.9926H187.388V49.1708H198.51V55.8667H187.388V60.0449H202.278V67.1606H179.412Z" fill="black"/>
<path d="M206.596 67.1607V37.877H219.803C223.023 37.877 225.639 38.8441 227.67 40.7781C229.7 42.712 230.706 45.1568 230.706 48.1125C230.706 51.0683 229.7 53.5131 227.67 55.4472C225.639 57.3812 223.023 58.3481 219.803 58.3481H214.553V67.1423H206.596V67.1607ZM214.572 51.2691H219.401C220.315 51.2691 221.12 50.9588 221.761 50.3203C222.419 49.6999 222.748 48.9519 222.748 48.1309C222.748 47.3099 222.419 46.5617 221.761 45.9415C221.102 45.3211 220.315 44.9927 219.401 44.9927H214.572V51.2691Z" fill="black"/>
<path d="M235.041 67.1606V37.8769H255.602V45.4122H243.016V67.1606H235.041Z" fill="black"/>
<path d="M259.078 67.1607V37.877H267.053V53.9875L279.639 37.877H286.555V67.1607H278.578V51.0501L265.994 67.1607H259.078Z" fill="black"/>
<path d="M290.23 67.1607L296.321 56.2866C295.371 55.8487 294.53 55.2283 293.799 54.4438C292.115 52.7651 291.274 50.5941 291.274 47.9119C291.274 45.0657 292.28 42.6755 294.292 40.7599C296.303 38.8441 298.865 37.877 301.976 37.877H315.824V67.1607H307.846V57.9651H303.437L298.61 67.1607H290.23ZM302.396 50.8493H307.846V44.9927H302.396C301.48 44.9927 300.712 45.2663 300.128 45.832C299.542 46.3976 299.249 47.091 299.249 47.9301C299.249 48.7694 299.542 49.4628 300.128 50.0283C300.73 50.5757 301.48 50.8493 302.396 50.8493Z" fill="black"/>
<path d="M82.2415 29.8858V22.7703C82.5158 22.8798 82.7535 22.9527 82.9549 22.9709C83.522 23.1169 84.1072 23.1717 84.7658 23.1717C86.8879 23.1717 88.3513 22.3324 89.1745 20.6538L89.3756 20.2342L79.3145 0.784729H88.1317L93.4915 12.9178H93.6563L98.1929 0.784729H107.01L96.7295 22.5331C95.4672 25.1238 94.0038 27.0944 92.3208 28.4444C90.6379 29.7947 88.5524 30.4697 86.0281 30.4697C84.967 30.4697 84.034 30.3786 83.2658 30.1777L82.2415 29.8858Z" fill="black"/>
<path d="M109.207 30.086V0.802246H117.183V11.4757H127.884V0.802246H135.86V30.086H127.884V18.9928H117.183V30.086H109.207Z" fill="black"/>
<path d="M141.842 30.086V0.802246H149.817V16.9128L162.403 0.802246H169.318V30.086H161.342V13.9753L148.756 30.086H141.842Z" fill="black"/>
<path d="M175.314 30.086V0.80249H188.321C191.54 0.80249 194.046 1.55055 195.876 3.02842C197.686 4.50628 198.601 6.34904 198.601 8.55672C198.601 10.5455 197.851 12.151 196.369 13.41C195.802 13.8843 195.089 14.2857 194.193 14.6324C195.29 15.0155 196.26 15.5447 197.138 16.1832C199.095 17.6976 200.083 19.6133 200.083 21.9487C200.083 24.2659 199.132 26.1998 197.229 27.769C195.327 29.338 192.711 30.1044 189.381 30.1044H175.314V30.086ZM183.29 12.0963H187.699C188.54 12.0963 189.199 11.8591 189.693 11.403C190.187 10.9469 190.424 10.3448 190.424 9.57845C190.424 8.8304 190.187 8.21006 189.693 7.75394C189.199 7.2978 188.54 7.06061 187.699 7.06061H183.29V12.0963ZM183.29 23.828H188.741C189.656 23.828 190.424 23.5544 191.01 22.9886C191.595 22.4231 191.888 21.7298 191.888 20.8905C191.888 20.0512 191.595 19.3579 191.01 18.7923C190.424 18.2267 189.674 17.953 188.741 17.953H183.29V23.828Z" fill="black"/>
<path d="M204.182 30.086V0.802246H226.627V7.91789H212.157V12.0961H223.279V18.7921H212.157V22.9702H227.048V30.086H204.182Z" fill="black"/>
<path d="M231.348 30.0862V0.802429H244.554C247.775 0.802429 250.391 1.76943 252.42 3.70344C254.452 5.63742 255.457 8.08229 255.457 11.038C255.457 13.9937 254.452 16.4386 252.42 18.3726C250.391 20.3066 247.775 21.2736 244.554 21.2736H239.304V30.0678H231.348V30.0862ZM239.323 14.1945H244.152C245.068 14.1945 245.873 13.8843 246.511 13.2457C247.17 12.6254 247.5 11.8773 247.5 11.0563C247.5 10.2352 247.17 9.48717 246.511 8.86683C245.854 8.24649 245.068 7.91807 244.152 7.91807H239.323V14.1945Z" fill="black"/>
<path d="M282.441 19.8508L287.269 25.2878C286.319 26.3826 285.221 27.3315 283.996 28.1341C281.251 29.9953 278.087 30.9439 274.464 30.9439C269.801 30.9439 265.903 29.4479 262.776 26.4556C259.666 23.4634 258.094 19.7961 258.094 15.472C258.094 11.1478 259.648 7.48054 262.776 4.48832C265.885 1.49611 269.782 0 274.464 0C277.996 0 281.141 0.948747 283.903 2.84625C285.13 3.70378 286.191 4.65254 287.051 5.65601L282.221 11.0931C281.58 10.3998 280.866 9.7612 280.08 9.21384C278.269 7.95491 276.385 7.33457 274.464 7.33457C272.178 7.33457 270.239 8.11913 268.648 9.70646C267.076 11.2756 266.287 13.2095 266.287 15.5084C266.287 17.8073 267.076 19.7231 268.648 21.3104C270.221 22.8795 272.16 23.6824 274.464 23.6824C276.366 23.6824 278.269 23.062 280.173 21.803C281.014 21.1645 281.782 20.5441 282.441 19.8508Z" fill="black"/>
<path d="M290.746 30.086V0.802246H298.721V16.9128L311.307 0.802246H318.221V30.086H310.246V13.9753L297.66 30.086H290.746Z" fill="black"/>
<path d="M329.875 30.086V7.91789H321.697V0.802246H346.027V7.91789H337.85V30.086H329.875Z" fill="black"/>
<path d="M349.516 30.086V0.802246H371.961V7.91789H357.491V12.0961H368.613V18.7921H357.491V22.9702H372.382V30.086H349.516Z" fill="black"/>
<path d="M382.357 30.0862V7.91807H374.18V0.802429H398.509V7.91807H390.332V30.0862H382.357Z" fill="black"/>
</svg>
