<svg width="95" height="94" viewBox="0 0 95 94" fill="none" xmlns="http://www.w3.org/2000/svg">
    <g clip-path="url(#clip0_159_1403)">
        <path d="M94.8246 46.7991C94.8224 37.5432 92.0402 28.4958 86.829 20.8008C81.6179 13.1058 74.2117 7.10888 65.5477 3.56824C56.8833 0.0276134 47.3501 -0.897662 38.1533 0.909418C28.9564 2.71649 20.5089 7.17476 13.8789 13.7205C7.24901 20.2662 2.73445 28.6054 0.906089 37.6836C-0.922277 46.7618 0.0176905 56.1712 3.60712 64.7222C7.19655 73.2728 13.2742 80.5812 21.0716 85.7228C28.8691 90.8645 38.0361 93.6085 47.4135 93.6077C59.9872 93.6072 72.0462 88.6763 80.9373 79.9004C89.8285 71.1249 94.8237 59.2226 94.8246 46.8116" fill="white"/>
        <path d="M63.9535 21.9941H33.3438V71.2283H63.9535V21.9941Z" fill="#0F2D69"/>
        <path d="M63.8192 23.8384H31.0957V69.9443H63.8192V23.8384Z" fill="#0F2D69"/>
        <path d="M46.0761 45.0113V42.9437H46.1231C47.2217 42.9497 48.3073 42.7062 49.2953 42.2322C50.2837 41.7583 51.1482 41.0665 51.8223 40.2102C52.8638 38.9911 53.4407 37.4513 53.4541 35.8568H46.1296V33.82H53.3755C53.2123 32.4397 52.6673 31.1303 51.8002 30.0356C50.1369 27.9957 47.7835 27.6567 46.2302 27.6567H42.0938V64.6611H46.1296V50.8543H51.3969V64.6517H55.9651V58.2241C55.9651 49.6757 53.1959 45.0113 46.0761 45.0113Z" fill="white"/>
        <path d="M46.0761 45.0113V42.9437H46.1231C47.2217 42.9497 48.3073 42.7062 49.2953 42.2322C50.2837 41.7583 51.1482 41.0665 51.8223 40.2102C52.8638 38.9911 53.4407 37.4513 53.4541 35.8568H46.1296V33.82H53.3755C53.2123 32.4397 52.6673 31.1303 51.8002 30.0356C50.1369 27.9957 47.7835 27.6567 46.2302 27.6567H42.0938V64.6611H46.1296V50.8543H51.3969V64.6517H55.9651V58.2241C55.9651 49.6757 53.1959 45.0113 46.0761 45.0113Z" stroke="#0F2D69" stroke-miterlimit="10"/>
        <path d="M61.6985 66.9249H36.3848V25.5981H47.6161C51.863 25.5981 53.6399 26.3351 55.6496 27.8682C58.5765 30.1319 59.0364 33.4157 59.0364 35.0607C59.064 37.2388 58.2893 39.3528 56.8565 41.0093C55.777 42.345 54.3753 43.3918 52.7798 44.0537C59.216 46.299 61.6985 51.4016 61.6985 58.9799V66.9249ZM47.4304 15.9771C41.246 15.9771 35.2006 17.7871 30.0586 21.1783C24.9166 24.5696 20.9089 29.3897 18.5423 35.0292C16.1756 40.6686 15.5565 46.8741 16.7629 52.8609C17.9694 58.8477 20.9474 64.347 25.3203 68.6632C29.6933 72.9795 35.2647 75.9188 41.3301 77.1095C47.3954 78.3006 53.6827 77.6894 59.3961 75.3535C65.1095 73.0173 69.9929 69.0616 73.4289 63.9864C76.8644 58.9108 78.6983 52.9438 78.6983 46.8398C78.6966 38.655 75.4018 30.8059 69.5382 25.0184C63.675 19.2308 55.7226 15.9787 47.4304 15.9771Z" fill="white"/>
        <path d="M37.4143 80.6633C36.5511 80.4144 35.9273 80.6011 35.7351 81.2604C35.5587 81.8574 35.9368 82.3519 36.9323 82.6377L38.4256 83.067L38.999 81.1174L37.4143 80.6633ZM36.9008 83.773C36.088 83.5395 35.4516 83.6984 35.2531 84.3667C35.0893 84.9264 35.439 85.4024 36.2518 85.6324L37.5593 86.0089L38.1137 84.1211L36.9008 83.773ZM38.476 87.4266L35.7351 86.7394C35.3875 86.6557 35.06 86.5055 34.7714 86.2969C34.4827 86.0883 34.2385 85.8256 34.0528 85.5234C33.9384 85.3225 33.8678 85.0998 33.8455 84.8701C33.8233 84.6405 33.8499 84.4087 33.9236 84.1894C34.015 83.8524 34.2057 83.5498 34.4716 83.3202C34.7375 83.0906 35.0665 82.9438 35.4169 82.8991C34.6577 82.3733 34.2103 81.7299 34.5002 80.744C34.8751 79.4752 36.1352 79.0992 37.7388 79.5594L40.5553 80.368L38.476 87.4266Z" fill="#0F2D69"/>
        <path d="M29.2678 80.0161C28.4109 79.5187 28.1336 78.8778 28.5243 78.222C28.9528 77.5034 29.6648 77.4133 30.5028 77.9108L31.5015 78.4894L30.2413 80.5947L29.2678 80.0161ZM31.0825 76.8879C29.586 76.0205 28.1683 76.266 27.4027 77.5597C26.6372 78.8534 27.1917 80.1217 28.6409 80.9802L29.6648 81.5742L28.2975 83.8688L29.4222 84.5221L33.2216 78.1473L31.0825 76.8879Z" fill="#0F2D69"/>
        <path d="M26.3478 74.0098L22.0371 80.0614L23.1067 80.8039L27.4173 74.7523L26.3478 74.0098Z" fill="#0F2D69"/>
        <path d="M6.82681 43.0837C6.73859 44.1344 7.21433 44.492 7.80346 44.5388C8.56898 44.601 9.01004 43.9696 9.06363 43.2202L9.13294 42.3776L6.9276 42.2003C6.88666 42.5455 6.85199 42.841 6.83312 43.0837H6.82681ZM13.0615 42.7166L10.3742 42.4771L10.2986 43.382L12.0597 44.8375C12.9324 45.565 13.0993 46.4389 12.8126 47.042L11.6785 47.0609C11.7302 46.8265 11.7169 46.5831 11.6398 46.3557C11.5627 46.1286 11.4247 45.9264 11.2406 45.7702L9.93629 44.6568C9.74552 45.0753 9.4236 45.4221 9.01803 45.6457C8.61242 45.8698 8.14468 45.9591 7.68371 45.9007C6.39206 45.7981 5.40281 45.0641 5.5666 43.0524C5.58551 42.841 5.76195 41.2239 5.83441 40.8135L13.2537 41.4074L13.0615 42.7166Z" fill="#0F2D69"/>
        <path d="M18.8685 69.9134C19.2886 69.8224 19.7258 69.8426 20.1354 69.9727C20.5449 70.1027 20.9122 70.3375 21.1998 70.6534C21.4317 70.9045 21.6103 71.1985 21.7249 71.5187C21.8395 71.8389 21.8877 72.1789 21.8669 72.518C21.846 72.8566 21.7564 73.188 21.6034 73.4923C21.4504 73.7966 21.2371 74.0675 20.9761 74.2885C19.8892 75.2775 18.314 75.3212 17.3027 74.2452C17.0142 73.9439 16.8085 73.5751 16.7049 73.1734C16.6012 72.7721 16.6031 72.351 16.7104 71.9501L15.3935 71.6767C15.2544 72.3252 15.2866 72.9983 15.4873 73.6314C15.6879 74.2641 16.0501 74.8354 16.539 75.2903C17.028 75.7449 17.6272 76.0681 18.2792 76.2282C18.9311 76.3883 19.6139 76.3801 20.2617 76.2046C20.9096 76.0286 21.5007 75.6916 21.9784 75.2251C22.456 74.7589 22.8041 74.1791 22.9891 73.5417C23.1742 72.9043 23.1899 72.2304 23.0349 71.5853C22.8799 70.9401 22.5593 70.3452 22.104 69.8576C21.6796 69.3881 21.1445 69.0288 20.5462 68.8121C19.9478 68.5949 19.3045 68.527 18.6731 68.6138L18.8685 69.9134Z" fill="#0F2D69"/>
        <path d="M10.6072 53.9175L7.45673 53.1402L10.1882 51.4237C10.2417 51.8435 10.3016 52.2603 10.3677 52.6676C10.4339 53.0749 10.5095 53.4947 10.5914 53.9115L10.6072 53.9175ZM5.80273 52.7637L5.99809 53.9548L14.0727 56.0039L13.723 54.6609L11.8484 54.2038C11.7287 53.6346 11.6216 53.0595 11.5334 52.4869C11.4452 51.9147 11.3601 51.3301 11.294 50.752L12.9385 49.763L12.8409 48.3389L5.80273 52.7637Z" fill="#0F2D69"/>
        <path d="M13.862 59.1541C14.2086 60.0705 14.5919 60.9715 15.0119 61.8565L9.39786 64.5774C9.58687 64.9692 9.77907 65.3577 9.98069 65.7466L15.5916 63.0227C16.039 63.8786 16.52 64.7164 17.0345 65.535L11.411 68.2871C11.6378 68.6571 11.8678 69.0241 12.1072 69.3881L17.778 66.6454L18.8838 66.1106C17.0269 63.4266 15.5682 60.4946 14.552 57.4033L13.4462 57.9416L7.77539 60.6843C7.92031 61.0916 8.07468 61.4955 8.23221 61.8999L13.862 59.1541Z" fill="#0F2D69"/>
        <path d="M84.3116 35.9968C84.6385 35.891 84.9399 35.7215 85.199 35.4983C85.4576 35.2751 85.6684 35.0029 85.8186 34.6977C85.9689 34.3925 86.0553 34.0607 86.073 33.7219C86.0907 33.3831 86.0393 33.0442 85.9214 32.7254C85.405 31.3479 83.9273 30.7944 82.5442 31.3013C82.2177 31.4075 81.9159 31.5773 81.6568 31.8007C81.3977 32.0241 81.187 32.2965 81.0363 32.6018C80.886 32.9072 80.7992 33.2392 80.781 33.5783C80.7629 33.9173 80.8143 34.2565 80.9313 34.5757C81.4512 35.9532 82.9255 36.5067 84.3116 35.9968ZM82.0623 30.0263C82.7873 29.7518 83.5788 29.6964 84.3358 29.8669C85.0932 30.0375 85.7819 30.4265 86.3144 30.9843C86.8472 31.5422 87.1996 32.2438 87.3274 32.9999C87.4548 33.756 87.352 34.5325 87.0312 35.2307C86.7108 35.9289 86.187 36.5172 85.5272 36.921C84.8669 37.3247 84.1 37.5255 83.324 37.498C82.5476 37.4705 81.7975 37.2158 81.1684 36.7663C80.5392 36.3168 80.0599 35.6928 79.7909 34.9737C79.6035 34.5023 79.5137 33.9986 79.5266 33.4923C79.54 32.9861 79.6557 32.4876 79.8678 32.0264C80.0793 31.5651 80.3825 31.1504 80.7595 30.8069C81.1364 30.4633 81.5795 30.198 82.0623 30.0263Z" fill="#0F2D69"/>
        <path d="M84.8034 55.8917C85.1398 55.9639 85.4874 55.9681 85.8255 55.9046C86.1637 55.8411 86.4854 55.7115 86.7717 55.523C87.058 55.3342 87.3028 55.0908 87.4919 54.8071C87.6811 54.5234 87.8102 54.2049 87.8719 53.8705C88.1306 52.4249 87.1413 51.2119 85.6856 50.957C85.3492 50.8857 85.0021 50.8818 84.6639 50.9454C84.3263 51.0089 84.0046 51.1385 83.7183 51.3269C83.4324 51.5158 83.1871 51.7587 82.998 52.0425C82.8089 52.3262 82.6793 52.6442 82.6171 52.9782C82.3589 54.4242 83.3512 55.6368 84.8034 55.8917ZM85.9253 49.6169C86.6918 49.7418 87.403 50.0886 87.9691 50.614C88.5352 51.1389 88.9303 51.8184 89.1039 52.5657C89.2775 53.313 89.2222 54.0946 88.945 54.8105C88.6673 55.5269 88.1807 56.1454 87.5459 56.5875C86.9116 57.03 86.158 57.276 85.3816 57.2944C84.6048 57.3129 83.84 57.103 83.185 56.6914C82.5295 56.2798 82.013 55.6849 81.7008 54.9831C81.389 54.2809 81.2953 53.5027 81.4327 52.7481C81.5125 52.2485 81.6935 51.7695 81.9642 51.3398C82.235 50.9102 82.5904 50.5385 83.0092 50.2466C83.4281 49.9547 83.9018 49.7483 84.4027 49.6401C84.9032 49.5319 85.4209 49.5242 85.9253 49.6169Z" fill="#0F2D69"/>
        <path d="M78.8043 28.3409L79.5889 25.9372L84.1351 26.5746L83.3285 25.2841L79.3307 24.8364L78.9148 24.2144L81.517 22.529L80.7229 21.4873L74.5293 25.508L75.3044 26.5591L77.894 24.883L78.3885 25.6293L77.6168 27.806C77.207 28.9193 77.1034 29.9983 77.9916 30.7353L78.9369 30.1134C78.524 29.762 78.521 29.1805 78.7918 28.3347" fill="#0F2D69"/>
        <path d="M65.2884 78.2499L67.7018 79.0865L66.9362 83.5581L68.2627 82.7963L68.8232 78.8624L69.4532 78.4675L71.0946 81.0828L72.1689 80.3269L68.2688 74.1079L67.1819 74.8449L68.8107 77.4447L68.0421 77.9143L65.8368 77.0932C64.7183 76.6579 63.6315 76.527 62.8594 77.3855L63.4613 78.3465C63.8297 77.9482 64.4061 77.9606 65.2663 78.2499" fill="#0F2D69"/>
        <path d="M80.5439 72.3476L79.7282 73.343L75.743 69.7294L76.959 76.3218L76.0327 77.1987L70.5508 72.2296L71.493 71.3467L75.5128 74.9942L74.2903 68.3395L75.0594 67.3755L80.5439 72.3476Z" fill="#0F2D69"/>
        <path d="M63.422 85.1658L62.2155 85.6324L60.5582 80.5482L58.3119 86.8732L57.0708 87.184L54.793 80.1906L56.053 79.8795L57.7229 85.0104L59.9912 78.6326L61.1441 78.1694L63.422 85.1658Z" fill="#0F2D69"/>
        <path d="M79.823 65.7278C80.7147 66.1102 81.7796 66.5639 82.6929 67.0245V66.9901C81.9903 66.3682 78.2098 62.279 78.2098 62.279L78.7016 61.2965C78.7016 61.2965 84.1736 61.9463 85.1094 62.1669V62.1455C84.2462 61.6849 83.1973 61.1222 82.3025 60.6217L79.6719 59.1443L80.1443 57.9009L86.6596 61.66L85.941 63.3894C85.941 63.3894 80.8659 62.8451 80.0277 62.6554V62.6893C80.6577 63.2336 84.1611 66.9807 84.1611 66.9807L83.2158 68.5697L76.2852 65.6994L77.0192 64.5242L79.823 65.7278Z" fill="#0F2D69"/>
        <path d="M89.3975 45.0459L86.2975 45.3317H86.2785C86.25 44.6291 86.2029 43.92 86.1364 43.2204C86.0704 42.5208 85.9823 41.8149 85.8782 41.1184H85.8972L89.0192 40.8292L88.8081 39.5449L81.4141 40.229L81.6222 41.5133L84.6812 41.2303H84.7097C84.8168 41.9238 84.9049 42.6296 84.9709 43.3324C85.037 44.035 85.0845 44.7411 85.1096 45.4437H85.0845L82.0285 45.7266L82.0631 47.0297L89.4636 46.3455L89.3975 45.0459Z" fill="#0F2D69"/>
        <path d="M75.7714 15.8434C75.3223 15.4233 74.7769 15.1164 74.1819 14.9492C73.5868 14.7819 72.9594 14.759 72.3535 14.8825L72.6433 16.1792C73.1287 16.0585 73.6395 16.0832 74.1106 16.2502C74.5817 16.4173 74.992 16.719 75.2886 17.117C75.5853 17.515 75.7554 17.9912 75.777 18.4849C75.7982 18.9786 75.6703 19.4674 75.4091 19.889C74.8546 19.3292 74.2816 18.7851 73.6987 18.2596C73.453 18.0419 73.2038 17.8242 72.9581 17.6127L72.1925 18.4865C72.4321 18.6918 72.6748 18.9032 72.911 19.1085C73.497 19.634 74.0705 20.1813 74.6219 20.741C74.1525 21.102 73.5691 21.2875 72.9745 21.2647C72.3803 21.2419 71.8129 21.0124 71.3738 20.6166C71.0503 20.3361 70.8081 19.9758 70.6716 19.5726C70.5356 19.1694 70.5106 18.7377 70.5986 18.3218L69.2846 18.1414C69.2021 18.765 69.2764 19.3991 69.501 19.9876C69.7259 20.5761 70.0943 21.1009 70.5732 21.5153C70.948 21.8687 71.391 22.1444 71.8755 22.326C72.36 22.5077 72.8765 22.5916 73.3947 22.5728C73.9128 22.554 74.4215 22.4329 74.8914 22.2167C75.3612 22.0005 75.7822 21.6935 76.1298 21.3139C76.4774 20.9342 76.7443 20.4897 76.9148 20.0065C77.0854 19.5234 77.1558 19.0114 77.1226 18.5008C77.0889 17.9903 76.9524 17.4915 76.7201 17.034C76.4882 16.5765 76.1656 16.1695 75.7714 15.8372" fill="#0F2D69"/>
        <path d="M37.9947 10.0379C37.901 9.71107 37.7418 9.40614 37.5264 9.14123C37.3111 8.87635 37.044 8.65689 36.7409 8.49589C36.438 8.33493 36.1053 8.23569 35.7627 8.2041C35.4201 8.17251 35.0745 8.20921 34.7465 8.31205C33.332 8.76604 32.7113 10.1996 33.1713 11.5865C33.2653 11.9131 33.4248 12.2177 33.6402 12.4824C33.8557 12.7471 34.1228 12.9663 34.4257 13.1273C34.7286 13.2882 35.0611 13.3875 35.4036 13.4193C35.746 13.4511 36.0915 13.4147 36.4195 13.3123C37.834 12.8583 38.4546 11.4248 37.9947 10.0379ZM31.8418 12.0063C31.5936 11.2791 31.5701 10.4955 31.7743 9.7551C31.9785 9.01474 32.4012 8.35103 32.9886 7.84836C33.576 7.3457 34.3015 7.02683 35.073 6.93231C35.8445 6.83776 36.627 6.97184 37.3211 7.31746C38.0152 7.66307 38.5895 8.20462 38.9709 8.87326C39.3523 9.54187 39.5237 10.3073 39.4631 11.0723C39.4026 11.8374 39.1129 12.5673 38.631 13.1694C38.149 13.7714 37.4965 14.2184 36.7565 14.4535C36.2714 14.6185 35.7576 14.6859 35.2457 14.6516C34.7337 14.6173 34.2339 14.4821 33.7758 14.254C33.3176 14.0259 32.9104 13.7094 32.5783 13.3234C32.2461 12.9373 31.9957 12.4894 31.8418 12.0063Z" fill="#0F2D69"/>
        <path d="M29.7501 15.2462L27.3401 14.3941L28.134 9.92871L26.8013 10.6844L26.2185 14.6242L25.5695 15.016L23.9439 12.3946L22.8633 13.1441L26.7289 19.3819L27.8189 18.6543L26.2059 16.0453L26.9778 15.5789L29.1831 16.4123C30.2983 16.8538 31.3884 16.9906 32.1634 16.1386L31.5648 15.1715C31.1962 15.5696 30.6197 15.5509 29.7628 15.2586" fill="#0F2D69"/>
        <path d="M22.851 21.1329C22.1285 21.8045 21.4375 22.5042 20.778 23.2319L16.0524 19.1893C15.7594 19.5003 15.4727 19.8393 15.1891 20.172L19.9148 24.2145C19.2847 24.9546 18.6914 25.7185 18.1348 26.5062L13.3713 22.4638C13.113 22.812 12.8641 23.1665 12.6152 23.5242L17.385 27.5977L18.3301 28.3907C20.1075 25.6577 22.2705 23.1887 24.7539 21.0582L23.8087 20.2622L19.0421 16.1948C18.7271 16.484 18.412 16.7825 18.097 17.0842L22.851 21.1329Z" fill="#0F2D69"/>
        <path d="M53.081 10.1964L54.8799 7.54698L55.595 10.6566C55.1761 10.5664 54.7573 10.4824 54.335 10.4047C53.9126 10.3269 53.4968 10.2554 53.0749 10.1932L53.081 10.1964ZM55.7841 6.13209L54.5871 5.9082L49.9023 12.7182L51.301 12.8457L52.3689 11.2599C52.9518 11.3376 53.5378 11.4309 54.1143 11.5397C54.6908 11.6485 55.2737 11.7698 55.8502 11.9035L56.2475 13.7693L57.6397 14.158L55.7841 6.13209Z" fill="#0F2D69"/>
        <path d="M45.6435 5.33621L42.8082 5.54769L42.6223 5.56945L42.7105 6.72312L42.7325 7.0341C43.0728 11.4466 42.4175 11.9752 41.6456 12.0312C41.501 12.0417 41.3556 12.0312 41.214 12.0001L41.1699 13.0729C41.4729 13.1213 41.7802 13.138 42.0867 13.1227C43.5578 13.0107 44.3519 12.0094 43.9771 7.32017L43.9201 6.6174L44.2949 6.58629C45.0325 6.53032 45.7726 6.49611 46.5007 6.47743L46.9791 12.6687L48.2901 12.5692L47.8203 6.47125L47.7322 5.31445C47.0266 5.31445 46.3146 5.31445 45.609 5.3518" fill="#0F2D69"/>
        <path d="M48.9291 84.6959C48.9291 84.4032 48.841 84.1169 48.676 83.8735C48.5115 83.6301 48.277 83.4404 48.0032 83.3284C47.729 83.2164 47.4276 83.1872 47.1366 83.2443C46.846 83.3014 46.5787 83.4426 46.3688 83.6495C46.159 83.8563 46.0165 84.1203 45.9586 84.407C45.9007 84.6942 45.9301 84.9921 46.0437 85.2625C46.1572 85.5329 46.3494 85.7642 46.596 85.9269C46.843 86.0892 47.1327 86.1763 47.4294 86.1763C47.8271 86.1763 48.2084 86.0201 48.4895 85.7428C48.771 85.4651 48.9291 85.0887 48.9291 84.6959Z" fill="#0F2D69"/>
        <path d="M11.2834 34.1092C11.5587 34.2177 11.8604 34.2432 12.1503 34.1826C12.4402 34.122 12.7055 33.9779 12.9125 33.7686C13.1196 33.5592 13.2591 33.294 13.3136 33.0065C13.368 32.7189 13.3349 32.4218 13.2184 32.1528C13.1019 31.8838 12.9073 31.6549 12.6591 31.4951C12.4109 31.3352 12.1202 31.2515 11.8239 31.2545C11.5275 31.2575 11.2387 31.3472 10.9939 31.5121C10.7491 31.6771 10.5593 31.9099 10.4486 32.1813C10.3748 32.362 10.3379 32.5552 10.3399 32.75C10.342 32.9448 10.383 33.1372 10.4605 33.3163C10.5381 33.4955 10.6507 33.6577 10.7919 33.7938C10.9332 33.9298 11.1001 34.037 11.2834 34.1092Z" fill="#0F2D69"/>
        <path d="M63.3913 12.3889C63.2579 12.6501 63.2056 12.9446 63.2415 13.2351C63.2769 13.5257 63.3995 13.7992 63.5925 14.0211C63.786 14.2431 64.0416 14.4035 64.3271 14.482C64.6129 14.5606 64.9156 14.5539 65.1976 14.4626C65.4791 14.3714 65.727 14.1997 65.9101 13.9694C66.0932 13.7391 66.2029 13.4604 66.2253 13.1686C66.2478 12.8767 66.1821 12.5849 66.0366 12.3298C65.8911 12.0748 65.6722 11.8682 65.4075 11.7359C65.0525 11.5592 64.6406 11.5287 64.2627 11.6511C63.8849 11.7735 63.5714 12.0388 63.3913 12.3889Z" fill="#0F2D69"/>
    </g>
    <defs>
        <clipPath id="clip0_159_1403">
            <rect width="95" height="94" fill="white"/>
        </clipPath>
    </defs>
</svg>
