<svg width="318" height="44" viewBox="0 0 318 44" fill="none" xmlns="http://www.w3.org/2000/svg">
    <path d="M34.6487 34.7585L21.7754 21.793L34.6487 8.96533V17.517L30.2663 21.793L34.6487 26.2067V34.7585Z" fill="#009AD3"/>
    <path d="M18.352 6.48253H50.8094C51.905 6.48253 52.7266 7.31012 52.7266 8.41358V43.3101C56.1505 43.3101 58.8895 40.5515 58.8895 37.1032V6.48253C58.8895 3.03427 56.1505 0.413574 52.8636 0.413574H12.3262V24.5515C12.3262 27.9998 15.0652 30.7584 18.4889 30.7584V6.48253H18.352Z" fill="#009AD3"/>
    <path d="M40.5375 37.2413H8.0801C6.9845 37.2413 6.02584 36.2759 6.02584 35.1724V0.275879C2.73902 0.275879 0 3.0345 0 6.48278V38.3449C0 41.1034 2.19121 43.4483 5.06718 43.4483H46.5633V18.2069C46.5633 14.7586 43.8243 12 40.4004 12V37.2413H40.5375Z" fill="#009AD3"/>
    <path d="M75.4591 43.3104V26.8967H69.5703V21.6553H87.3739V26.8967H81.348V43.3104H75.4591Z" fill="black"/>
    <path d="M89.8398 43.3104V21.6553H106.411V26.8967H95.7288V29.9312H103.946V34.8967H95.7288V38.0691H106.685V43.3104H89.8398Z" fill="black"/>
    <path d="M125.857 35.7239L129.417 39.7238C128.733 40.5515 127.911 41.2412 126.952 41.7928C124.898 43.1721 122.57 43.8618 119.968 43.8618C116.544 43.8618 113.668 42.7584 111.34 40.5515C109.012 38.3447 107.916 35.586 107.916 32.4136C107.916 29.2411 109.012 26.4826 111.34 24.2756C113.668 22.0688 116.544 20.9653 119.968 20.9653C122.57 20.9653 124.898 21.655 126.952 23.0343C127.911 23.724 128.596 24.4136 129.28 25.1033L125.72 29.1032C125.309 28.5514 124.761 28.1377 124.213 27.7239C122.844 26.7583 121.474 26.3446 120.105 26.3446C118.461 26.3446 116.955 26.8964 115.859 28.1377C114.764 29.2411 114.079 30.7584 114.079 32.4136C114.079 34.0687 114.627 35.586 115.859 36.6895C116.955 37.7929 118.461 38.4825 120.105 38.4825C121.474 38.4825 122.844 38.0688 124.35 37.1032C124.761 36.6895 125.309 36.2757 125.857 35.7239Z" fill="black"/>
    <path d="M131.746 43.3104V21.6553H137.635V29.5173H145.578V21.6553H151.33V43.3104H145.578V35.1726H137.635V43.3104H131.746Z" fill="black"/>
    <path d="M155.715 43.3104V21.6553H160.782L170.095 33.5173V21.6553H175.983V43.3104H170.78L161.604 31.4484V43.3104H155.715Z" fill="black"/>
    <path d="M182.418 40.6897C180.089 38.4829 178.994 35.7242 178.994 32.5518C178.994 29.3794 180.089 26.6208 182.418 24.4139C184.746 22.2069 187.622 21.1035 191.046 21.1035C194.471 21.1035 197.346 22.2069 199.674 24.4139C202.002 26.6208 203.097 29.3794 203.097 32.5518C203.097 35.7242 202.002 38.4829 199.674 40.6897C197.346 42.8967 194.471 44.0001 191.046 44.0001C187.622 44.0001 184.746 42.8967 182.418 40.6897ZM186.801 28.138C185.705 29.3794 185.02 30.7587 185.02 32.414C185.02 34.069 185.568 35.5864 186.801 36.6898C187.897 37.7932 189.402 38.4829 191.046 38.4829C192.689 38.4829 194.196 37.9311 195.292 36.6898C196.387 35.5864 197.071 34.069 197.071 32.414C197.071 30.7587 196.525 29.2416 195.292 28.138C194.196 27.0346 192.689 26.3449 191.046 26.3449C189.402 26.3449 187.897 27.0346 186.801 28.138Z" fill="black"/>
    <path d="M206.111 43.3104V21.6553H212.001V37.7932H221.45V43.3104H206.111Z" fill="black"/>
    <path d="M224.873 40.6897C222.544 38.4829 221.449 35.7242 221.449 32.5518C221.449 29.3794 222.544 26.6208 224.873 24.4139C227.201 22.2069 230.077 21.1035 233.501 21.1035C236.926 21.1035 239.801 22.2069 242.129 24.4139C244.457 26.6208 245.552 29.3794 245.552 32.5518C245.552 35.7242 244.457 38.4829 242.129 40.6897C239.801 42.8967 236.926 44.0001 233.501 44.0001C229.941 44.0001 227.201 42.8967 224.873 40.6897ZM229.119 28.138C228.023 29.3794 227.339 30.7587 227.339 32.414C227.339 34.069 227.885 35.5864 229.119 36.6898C230.214 37.7932 231.721 38.4829 233.365 38.4829C235.008 38.4829 236.514 37.9311 237.61 36.6898C238.706 35.5864 239.39 34.069 239.39 32.414C239.39 30.7587 238.842 29.2416 237.61 28.138C236.514 27.0346 235.008 26.3449 233.365 26.3449C231.721 26.3449 230.352 27.0346 229.119 28.138Z" fill="black"/>
    <path d="M259.658 35.5864V31.1725H268.971V39.5863C268.286 40.414 267.465 41.1036 266.506 41.7933C264.314 43.3105 261.986 44.0001 259.384 44.0001C255.96 44.0001 253.085 42.8967 250.757 40.6897C248.429 38.4829 247.332 35.7242 247.332 32.5518C247.332 29.3794 248.429 26.6208 250.757 24.4139C253.085 22.2069 255.96 21.1035 259.384 21.1035C261.986 21.1035 264.314 21.7932 266.368 23.1725C267.327 23.8622 268.012 24.5518 268.696 25.2415L265.137 29.2416C264.725 28.6898 264.178 28.276 263.63 27.8622C262.26 26.8967 260.891 26.4829 259.521 26.4829C257.878 26.4829 256.371 27.0346 255.276 28.276C254.18 29.5173 253.496 30.8966 253.496 32.5518C253.496 34.207 254.042 35.7242 255.276 36.8277C256.371 37.9311 257.878 38.6207 259.521 38.6207C260.617 38.6207 261.576 38.4829 262.396 37.9311C262.671 37.7932 263.081 37.5173 263.355 37.2414V35.5864H259.658Z" fill="black"/>
    <path d="M278.284 21.6553H272.396V43.4483H278.284V21.6553Z" fill="black"/>
    <path d="M282.668 43.3104V21.6553H299.102V26.8967H288.556V29.9312H296.636V34.8967H288.556V38.0691H299.376V43.3104H282.668Z" fill="black"/>
    <path d="M300.881 40.2756L304.304 36.5514C304.716 36.9654 305.127 37.3791 305.537 37.7929C306.632 38.6204 307.729 38.8963 308.961 38.8963C309.783 38.8963 310.468 38.7584 311.016 38.3447C311.563 37.9308 311.701 37.517 311.701 36.9654C311.701 36.5514 311.427 36.1377 310.878 35.7239C310.332 35.448 309.783 35.0342 308.961 34.8964C308.276 34.6205 307.455 34.3446 306.496 34.0687C305.675 33.6549 304.853 33.2412 304.032 32.8274C303.347 32.4136 302.662 31.724 302.114 30.7584C301.566 29.9307 301.291 28.8273 301.291 27.586C301.291 25.7929 301.978 24.2756 303.483 22.8963C304.991 21.517 306.907 20.9653 309.373 20.9653C311.563 20.9653 313.481 21.517 315.124 22.4825C315.945 23.0343 316.494 23.4481 316.904 23.9997L313.481 27.7239C313.207 27.448 312.932 27.1723 312.522 26.8964C311.701 26.3446 310.878 26.0687 309.92 26.0687C309.099 26.0687 308.55 26.2067 308.14 26.4826C307.729 26.7583 307.455 27.1723 307.455 27.586C307.455 27.9998 307.729 28.4136 308.276 28.8273C308.824 29.1032 309.373 29.517 310.194 29.655C310.878 29.9307 311.701 30.2066 312.658 30.4825C313.481 30.8963 314.302 31.3101 315.124 31.724C315.809 32.1377 316.494 32.8274 317.042 33.7928C317.589 34.6205 317.863 35.7239 317.863 36.9654C317.863 38.8963 317.042 40.5515 315.535 41.9308C314.029 43.3102 311.974 43.9998 309.373 43.9998C306.907 43.9998 304.716 43.3102 302.799 42.0687C302.114 41.5171 301.429 40.9653 300.881 40.2756Z" fill="black"/>
    <path d="M69.709 12.1379L72.1741 9.51725C72.448 9.7931 72.722 10.069 72.9959 10.2069C73.5436 10.6207 74.2285 10.8966 74.9132 10.8966C75.8719 10.8966 76.2827 10.6207 76.2827 10.069C76.2827 9.7931 76.0088 9.51725 75.598 9.37932C75.187 9.10345 74.6393 8.96552 74.0915 8.68966C73.5436 8.41379 72.859 8.13793 72.3111 7.86207C71.7633 7.5862 71.2156 7.17241 70.8046 6.48276C70.3938 5.93104 70.12 5.24138 70.12 4.41379C70.12 3.17242 70.6677 2.20689 71.6264 1.37931C72.5851 0.413792 73.9546 0 75.598 0C77.1044 0 78.337 0.275862 79.4326 0.965516C79.9804 1.24138 80.3912 1.65517 80.6651 1.93103L78.0631 4.55172C77.926 4.41379 77.7891 4.13794 77.5152 4.00001C76.9675 3.72414 76.4196 3.44828 76.0088 3.44828C75.187 3.44828 74.7762 3.72414 74.7762 4.13792C74.7762 4.41379 74.9132 4.55172 75.187 4.82758C75.4611 4.96551 75.8719 5.24138 76.2827 5.37931C76.6936 5.51724 77.2414 5.65517 77.7891 5.93104C78.4739 6.34483 79.0217 6.6207 79.4326 6.89654C79.8434 7.17241 80.2543 7.5862 80.5281 8.13793C80.8022 8.68966 80.9391 9.24138 80.9391 9.93103C80.9391 11.1724 80.3912 12.2759 79.4326 13.1034C78.337 13.931 76.9675 14.4828 75.3241 14.4828C73.8175 14.4828 72.3111 14.069 71.0785 13.2414C70.5308 12.9655 69.983 12.5517 69.709 12.1379Z" fill="black"/>
    <path d="M86.0045 14.0688V9.24115L81.0742 0.413574H85.8676L88.1956 5.51703L90.5238 0.413574H95.1801L90.3869 9.24115V14.0688H86.0045Z" fill="black"/>
    <path d="M96.8242 14.0688V0.413574H100.659L105.726 6.89633V0.413574H109.972V14.0688H106.274L101.207 7.58599V14.0688H96.8242Z" fill="black"/>
    <path d="M113.396 14.0688V0.413574H124.079V3.99978H117.779V5.65496H122.572V8.82738H117.779V10.4825H124.353V14.0688H113.396Z" fill="black"/>
    <path d="M126.953 14.0688V0.413574H133.664C135.17 0.413574 136.403 0.827368 137.361 1.79288C138.32 2.75841 138.868 3.86184 138.868 5.24116C138.868 6.3446 138.457 7.44806 137.772 8.27565C137.498 8.68944 137.088 8.96529 136.677 9.24115L139.279 14.2067H134.759L132.842 10.2067H131.336V14.0688H126.953ZM131.336 6.48253H133.116C133.527 6.48253 133.801 6.3446 134.075 6.20669C134.349 5.93082 134.349 5.65496 134.349 5.37909C134.349 4.9653 134.212 4.68944 134.075 4.5515C133.938 4.27564 133.527 4.13771 133.253 4.13771H131.473V6.48253H131.336Z" fill="black"/>
    <path d="M148.317 8.96576V6.48301H154.617V11.7244C154.206 12.2761 153.658 12.6899 153.111 13.1037C151.741 14.0692 150.235 14.483 148.591 14.483C146.4 14.483 144.62 13.7934 143.113 12.414C141.607 11.0347 140.922 9.24163 140.922 7.3106C140.922 5.24164 141.607 3.58645 143.113 2.20715C144.62 0.827838 146.4 0.138184 148.591 0.138184C150.235 0.138184 151.741 0.551976 153.111 1.51749C153.658 1.93129 154.206 2.34508 154.617 2.89681L151.741 5.5175C151.467 5.24164 151.193 4.96577 150.919 4.68991C150.235 4.13818 149.413 3.86232 148.591 3.86232C147.632 3.86232 146.811 4.13818 146.126 4.82784C145.441 5.5175 145.167 6.20714 145.167 7.17267C145.167 8.13819 145.441 8.96576 146.126 9.51749C146.811 10.2072 147.496 10.483 148.454 10.483C149.002 10.483 149.55 10.3451 150.098 10.2072C150.372 10.0692 150.508 10.0692 150.645 9.93129V8.96576H148.317Z" fill="black"/>
    <path d="M160.233 14.0688V9.24115L155.439 0.413574H160.096L162.425 5.51703L164.753 0.413574H169.546L164.615 9.24115V14.0688H160.233Z" fill="black"/>
    <path d="M180.228 0.413574H175.846V14.0688H180.228V0.413574Z" fill="black"/>
    <path d="M183.65 14.0688V0.413574H187.348L192.416 6.89633V0.413574H196.799V14.0688H192.963L188.033 7.58599V14.0688H183.65Z" fill="black"/>
    <path d="M202.688 14.0688V4.41357H199.127V0.413574H210.632V4.41357H207.07V14.0688H202.688Z" fill="black"/>
    <path d="M212.822 14.0688V0.413574H223.641V3.99978H217.204V5.65496H222.135V8.82738H217.204V10.4825H223.915V14.0688H212.822Z" fill="black"/>
    <path d="M226.516 14.0688V0.413574H233.226C234.733 0.413574 235.966 0.827368 236.924 1.79288C237.883 2.75841 238.431 3.86184 238.431 5.24116C238.431 6.3446 238.02 7.44806 237.336 8.27565C237.062 8.68944 236.651 8.96529 236.239 9.24115L238.841 14.2067H234.323L232.405 10.3446H230.898V14.2067H226.516V14.0688ZM230.898 6.48253H232.679C233.09 6.48253 233.364 6.3446 233.638 6.20669C233.911 5.93082 233.911 5.65496 233.911 5.37909C233.911 4.9653 233.774 4.68944 233.638 4.5515C233.364 4.27564 233.09 4.27564 232.679 4.27564H230.898V6.48253Z" fill="black"/>
    <path d="M239.391 14.0688L244.321 0.413574H249.25L254.181 14.0688H249.524L248.703 11.4481H244.732L243.909 14.0688H239.391ZM245.827 8.41358H248.019L246.922 4.5515H246.786L245.827 8.41358Z" fill="black"/>
    <path d="M265.958 8.96554L268.56 11.8621C268.15 12.4138 267.601 12.8276 267.053 13.2414C265.822 14.069 264.314 14.6207 262.535 14.6207C260.343 14.6207 258.563 13.931 257.056 12.5517C255.55 11.1724 254.865 9.37933 254.865 7.44829C254.865 5.37932 255.55 3.72416 257.056 2.34484C258.563 0.965535 260.343 0.275879 262.535 0.275879C264.178 0.275879 265.684 0.689673 267.053 1.6552C267.601 2.06898 268.15 2.48277 268.56 3.0345L265.822 5.51726C265.547 5.24139 265.273 4.96553 264.999 4.68967C264.314 4.13795 263.493 3.86209 262.671 3.86209C261.712 3.86209 260.891 4.13795 260.206 4.8276C259.522 5.51726 259.247 6.20692 259.247 7.17244C259.247 8.13794 259.522 8.96554 260.206 9.51726C260.891 10.2069 261.712 10.4828 262.671 10.4828C263.493 10.4828 264.314 10.2069 265.137 9.6552C265.41 9.51726 265.684 9.2414 265.958 8.96554Z" fill="black"/>
    <path d="M273.081 14.0688V4.41357H269.52V0.413574H281.024V4.41357H277.463V14.0688H273.081Z" fill="black"/>
    <path d="M287.736 0.413574H283.354V14.0688H287.736V0.413574Z" fill="black"/>
    <path d="M294.033 14.0688L289.377 0.413574H294.033L296.5 9.65495L298.964 0.413574H303.62L298.964 14.0688H294.033Z" fill="black"/>
    <path d="M305.262 14.0688V0.413574H316.082V3.99978H309.646V5.65496H314.575V8.82738H309.646V10.4825H316.356V14.0688H305.262Z" fill="black"/>
</svg>
