<svg width="889" height="1966" viewBox="0 0 889 1966" fill="none" xmlns="http://www.w3.org/2000/svg">
<path opacity="0.5" d="M555.313 808.684C709.374 1075.53 814.998 1336.63 861.236 1543.05C884.356 1646.26 892.621 1735.78 884.687 1805.49C876.753 1875.22 852.629 1925.03 811.08 1949.02C769.53 1973.01 714.33 1968.99 649.978 1941C585.637 1913.02 512.248 1861.1 434.422 1789.47C278.774 1646.22 105.465 1424.19 -48.596 1157.35C-202.657 890.509 -308.281 629.407 -354.519 422.986C-377.638 319.772 -385.904 230.257 -377.97 160.543C-370.036 90.8172 -345.912 41.0052 -304.362 17.0167C-262.813 -6.97186 -207.613 -2.95763 -143.261 25.0335C-78.92 53.0199 -5.53088 104.935 72.2953 176.564C227.943 319.818 401.252 541.842 555.313 808.684Z" stroke="black"/>
</svg>
