<svg width="105" height="105" viewBox="0 0 105 105" fill="none" xmlns="http://www.w3.org/2000/svg">
    <g filter="url(#filter0_d_0_1)">
        <circle cx="52.5" cy="47.5" r="42.5" fill="#F37811"/>
    </g>
    <path d="M37.6716 46.117C39.2014 44.7888 41.3981 42.9696 42.8836 41.7485C43.1673 41.4824 43.1971 41.0424 42.9525 40.7399C42.708 40.4374 42.2715 40.375 41.9519 40.5963C40.4537 41.8051 38.2442 43.662 36.7021 45.0026V45.003C36.4663 45.2037 36.3815 45.5308 36.49 45.821C36.5985 46.1113 36.8768 46.3023 37.1868 46.2996C37.3647 46.2979 37.5364 46.2329 37.6716 46.117H37.6716Z" fill="#FFBF5A"/>
    <path d="M54.4852 26.6278C55.2317 26.6296 55.9488 26.3341 56.4774 25.8072C57.0065 25.2803 57.3043 24.565 57.3056 23.8181C57.3064 23.0717 57.0109 22.355 56.4836 21.8264C55.9562 21.2982 55.2405 21.0009 54.4936 21C53.7472 20.9996 53.031 21.2959 52.5028 21.8237C51.9746 22.3515 51.6777 23.0672 51.6777 23.8141C51.6777 24.5593 51.9732 25.2736 52.4997 25.8015C53.0262 26.3288 53.7401 26.6261 54.4853 26.6279L54.4852 26.6278ZM54.4852 22.492C55.0231 22.492 55.5079 22.8165 55.713 23.3136C55.918 23.8106 55.8034 24.3823 55.4223 24.7617C55.0411 25.1411 54.4686 25.2531 53.9724 25.0454C53.4767 24.8381 53.1544 24.3516 53.1571 23.8142C53.1606 23.0831 53.7542 22.492 54.4853 22.492H54.4852Z" fill="#FFBF5A"/>
    <path d="M34.1658 34.3709H41.8894L42.0659 34.2831L42.1414 34.2265L42.2108 34.1571C42.235 34.1338 42.2543 34.1061 42.2675 34.075C42.2855 34.0592 42.3004 34.0398 42.3114 34.0183L45.2322 27.3459C45.3169 27.154 45.316 26.9354 45.2295 26.7439C45.143 26.5529 44.9793 26.408 44.779 26.3452L35.645 23.3423H35.5756H35.5761C35.5322 23.3361 35.4874 23.3361 35.4439 23.3423C35.4105 23.3361 35.3763 23.3361 35.3429 23.3423H35.2231L35.1225 23.38L35.0219 23.4305L34.9403 23.4933L34.852 23.5816V23.6444V23.6448C34.8283 23.6773 34.8094 23.7133 34.7954 23.7515C34.78 23.7857 34.7695 23.8217 34.7638 23.8586V23.9342L33.5049 33.5275C33.4759 33.7387 33.5396 33.9516 33.6797 34.1123C33.8193 34.273 34.0222 34.3648 34.2351 34.3648L34.1658 34.3709ZM41.5434 32.0732L38.2766 27.0688L37.1749 25.3757L43.5831 27.4154L41.5434 32.0732Z" fill="#FFBF5A"/>
    <path d="M74.711 39.8538C74.714 39.8099 74.714 39.7655 74.711 39.7216C74.7136 39.6983 74.7136 39.6751 74.711 39.6522L74.6732 39.5328L74.6354 39.4634V39.4129L74.5915 39.3624V39.3247L72.703 37.2601C73.9618 33.5585 75.0508 28.7307 73.3326 26.1181L73.3322 26.1186C72.5752 25.0103 71.3251 24.3407 69.9832 24.3244C64.9977 23.9907 60.2328 27.0754 56.1346 29.9895C55.8435 30.2407 55.7921 30.6728 56.0161 30.985C56.2404 31.2976 56.6659 31.3872 56.997 31.1918C60.8619 28.4348 65.363 25.5267 69.8632 25.8098C70.7418 25.798 71.5695 26.2221 72.0726 26.9431C73.0922 28.4852 72.8911 31.7648 71.5374 36.0138L70.2658 34.6728C70.1179 34.5218 69.9172 34.4339 69.7056 34.4274L63.4107 34.5468H63.1591L63.052 34.5973L62.9826 34.6412L62.8882 34.7295H62.8886C62.8706 34.7409 62.8557 34.7558 62.8443 34.7738C62.8 34.8243 62.7639 34.8814 62.7376 34.9437L61.0822 38.7963L61.0817 38.7958C60.9698 39.065 61.0238 39.3741 61.2205 39.5893L65.4757 44.2349C65.6171 44.3868 65.8155 44.4737 66.0232 44.4737L72.3181 44.3604C72.6101 44.3539 72.8713 44.1765 72.9855 43.9073L74.6347 40.0613C74.6619 39.9989 74.6813 39.9335 74.6914 39.8659L74.711 39.8538ZM69.3979 35.9318L72.3187 39.1169L67.994 39.1986L65.0732 36.0072L69.3979 35.9318Z" fill="#FFBF5A"/>
    <path d="M58.9292 39.4885C58.9292 43.4171 55.7445 46.6018 51.8164 46.6018C47.8879 46.6018 44.7031 43.4171 44.7031 39.4885C44.7031 35.56 47.8879 32.3757 51.8164 32.3757C55.7445 32.3757 58.9292 35.56 58.9292 39.4885Z" fill="#FFBF5A"/>
    <path d="M66.9557 51.9962C66.8552 50.7373 66.6725 48.3828 62.5495 48.3828H41.1471C37.0557 48.3828 36.873 50.7307 36.7719 51.9962V52.2666C36.4259 55.8044 33.9394 66.3041 33.9139 66.4109C33.8629 66.6308 33.9139 66.8623 34.0522 67.0405C34.1923 67.2179 34.4052 67.3224 34.6313 67.3237H39.724C40.088 67.3193 40.3962 67.0537 40.4542 66.6941C40.4542 66.5935 42.4432 56.2761 42.8903 54.6833C42.9214 54.5823 42.9592 54.4836 43.0036 54.3878C43.1063 54.408 43.2042 54.4462 43.2934 54.5011V66.5804C43.2916 66.7771 43.3684 66.9659 43.5067 67.1056C43.6451 67.2448 43.8334 67.3234 44.0297 67.3234H59.7038C59.9001 67.3234 60.0885 67.2448 60.2268 67.1056C60.3651 66.9659 60.4419 66.7771 60.4402 66.5804V54.5258C60.5227 54.4692 60.614 54.4266 60.7106 54.3998C60.7809 54.4903 60.8287 54.5961 60.8494 54.7085C61.2964 56.3011 63.2666 66.6181 63.2855 66.7192C63.3412 67.0797 63.6504 67.3467 64.0157 67.3485H69.0828C69.3107 67.3463 69.5254 67.2426 69.6681 67.0653C69.8069 66.887 69.8578 66.656 69.8069 66.436C69.8069 66.3289 67.2892 55.8294 66.9488 52.2918L66.9557 51.9962Z" fill="#FFBF5A"/>
    <path d="M70.0708 69.5144H33.7429C33.3328 69.5144 33 69.8468 33 70.2574C33 70.6675 33.3328 70.9999 33.7429 70.9999H70.0708C70.4809 70.9999 70.8138 70.6675 70.8138 70.2574C70.8138 69.8468 70.4809 69.5144 70.0708 69.5144Z" fill="#FFBF5A"/>
    <defs>
        <filter id="filter0_d_0_1" x="0" y="0" width="105" height="105" filterUnits="userSpaceOnUse" color-interpolation-filters="sRGB">
            <feFlood flood-opacity="0" result="BackgroundImageFix"/>
            <feColorMatrix in="SourceAlpha" type="matrix" values="0 0 0 0 0 0 0 0 0 0 0 0 0 0 0 0 0 0 127 0" result="hardAlpha"/>
            <feOffset dy="5"/>
            <feGaussianBlur stdDeviation="5"/>
            <feComposite in2="hardAlpha" operator="out"/>
            <feColorMatrix type="matrix" values="0 0 0 0 0.625 0 0 0 0 0.625 0 0 0 0 0.625 0 0 0 0.25 0"/>
            <feBlend mode="normal" in2="BackgroundImageFix" result="effect1_dropShadow_0_1"/>
            <feBlend mode="normal" in="SourceGraphic" in2="effect1_dropShadow_0_1" result="shape"/>
        </filter>
    </defs>
</svg>
