<svg width="105" height="105" viewBox="0 0 105 105" fill="none" xmlns="http://www.w3.org/2000/svg">
    <g filter="url(#filter0_d_0_1)">
        <circle cx="52.5" cy="47.5" r="42.5" fill="white"/>
        <circle cx="52.5" cy="47.5" r="41.5" stroke="#E21E2C" stroke-width="2"/>
    </g>
    <path d="M55.1228 40.12C55.1228 41.6327 53.8964 42.8591 52.3837 42.8591C50.8706 42.8591 49.6445 41.6327 49.6445 40.12C49.6445 38.6073 50.8706 37.3809 52.3837 37.3809C53.8964 37.3809 55.1228 38.6073 55.1228 40.12Z" fill="#FFBF5A"/>
    <path d="M52.3847 47.2087C49.0933 47.2087 46.3769 49.6486 45.9395 52.8021H58.8528C58.3927 49.6482 55.6762 47.2087 52.3848 47.2087H52.3847Z" fill="#FFBF5A"/>
    <path d="M77.2209 35.2625C76.7377 35.1243 76.2312 35.4238 76.0929 35.907L75.6785 37.4951C73.814 32.9604 70.7065 29.1165 66.6555 26.3315C62.328 23.4085 57.3102 21.9122 52.0854 22.004C51.5789 22.004 51.1875 22.4184 51.1875 22.925C51.2105 23.4311 51.6019 23.8459 52.1085 23.8459H52.1315C56.9422 23.6846 61.6151 25.1349 65.5967 27.8509C69.3256 30.4061 72.1568 33.9274 73.8832 38.0706L72.8243 37.7714C72.3408 37.6331 71.8346 37.9327 71.6963 38.4158C71.5581 38.9224 71.8573 39.4286 72.3408 39.5669L75.7934 40.4878C75.8852 40.5109 75.9778 40.5339 76.0465 40.5339C76.2078 40.5339 76.3688 40.4878 76.507 40.4187C76.7144 40.2805 76.8753 40.0965 76.9445 39.8434L77.8654 36.3908C78.0037 35.9068 77.7276 35.4003 77.221 35.2624L77.2209 35.2625Z" fill="#FFBF5A"/>
    <path d="M68.7489 40.0969L66.0328 40.5113C65.5493 39.4755 64.951 38.4857 64.2143 37.3808L65.8714 35.3323C66.2167 34.9179 66.355 34.4113 66.3089 33.882C66.2397 33.3524 65.9866 32.8693 65.5723 32.547L63.4776 30.8437C63.0632 30.5215 62.5567 30.3372 62.0044 30.4063C61.4752 30.4754 61.0147 30.7285 60.6694 31.1429L58.8508 33.2146C57.792 32.7084 56.687 32.317 55.4673 31.9717L55.4212 29.3475C55.3981 28.2425 54.5467 27.3911 53.3957 27.3911L50.7022 27.4372C49.5973 27.4602 48.7228 28.3808 48.7459 29.4627L48.6767 32.2019C47.5718 32.5011 46.4899 32.9155 45.2932 33.4681L43.5668 31.4657C43.2215 31.0743 42.738 30.8212 42.2088 30.7982C41.6792 30.7751 41.1499 30.9364 40.7586 31.2817L38.733 33.0542C38.3186 33.3994 38.0886 33.883 38.0425 34.4122C38.0195 34.9414 38.1808 35.4711 38.526 35.8624L40.2524 38.0262C39.5849 38.9698 39.0327 39.9826 38.4569 41.1336L35.8557 40.7192C35.3261 40.6501 34.7968 40.7653 34.3594 41.0875C33.945 41.4098 33.6689 41.8702 33.5767 42.3765L33.1623 45.0464C32.9783 46.1283 33.7376 47.141 34.8195 47.325L37.4664 47.7394C37.5355 48.8905 37.7886 50.1102 38.1339 51.4225L35.878 52.7806C35.4406 53.0567 35.1183 53.4711 34.9801 54.0007C34.8649 54.5069 34.934 55.0595 35.2101 55.497L36.6142 57.8217C36.8673 58.2591 37.3048 58.5814 37.8344 58.7196C38.3406 58.8579 38.8701 58.7657 39.3307 58.4896L41.7706 57.1545C42.5759 57.9833 43.4738 58.7195 44.5097 59.4796L43.6579 61.9883C43.4969 62.4718 43.5196 63.0241 43.75 63.5076C43.9801 63.9681 44.3945 64.3364 44.9011 64.4973L47.4563 65.3718C47.6636 65.441 47.8706 65.487 48.1007 65.487C48.3999 65.487 48.6991 65.4179 48.9752 65.28C49.4587 65.0496 49.804 64.6356 49.9653 64.1521L50.8398 61.5969C51.4151 61.666 52.0365 61.6887 52.7043 61.6887C53.2797 61.6887 53.878 61.6196 54.5689 61.5278L55.5356 64.0364C55.9269 65.0492 57.078 65.5557 58.0907 65.1644L60.6228 64.1977C61.6356 63.8064 62.1417 62.6553 61.7508 61.6196L60.8763 59.0183C61.8199 58.3508 62.6948 57.5912 63.6384 56.6932L65.9401 57.9821C66.9068 58.5118 68.1039 58.1435 68.6561 57.1994L69.9451 54.8286C70.1982 54.3682 70.2673 53.8389 70.129 53.3327C69.9681 52.8031 69.6459 52.3891 69.1624 52.1356L66.8147 50.7085C67.1599 49.5113 67.3673 48.3147 67.413 47.1637L70.0373 46.6344C71.0961 46.4274 71.8097 45.3916 71.6023 44.3093L71.073 41.6624C70.8664 40.5805 69.8076 39.8669 68.7487 40.097L68.7489 40.0969ZM52.383 35.5163C54.9151 35.5163 56.9636 37.5879 56.9636 40.12C56.9636 42.652 54.9151 44.7006 52.383 44.7006C49.8509 44.7006 47.8024 42.652 47.8024 40.12C47.8024 37.5879 49.8509 35.5163 52.383 35.5163ZM59.8175 54.6438H44.9475C44.4413 54.6438 44.0269 54.2294 44.0269 53.7232C44.0269 49.1195 47.7787 45.3677 52.3824 45.3677C57.0091 45.3677 60.7379 49.1195 60.7379 53.7232C60.7383 54.2294 60.3469 54.6438 59.8173 54.6438H59.8175Z" fill="#FFBF5A"/>
    <path d="M52.9125 70.1581C48.1018 70.2272 43.475 68.8462 39.4932 66.1297C35.534 63.4133 32.5418 59.6158 30.8616 55.1272L32.2196 55.6795C32.7031 55.8638 33.2324 55.6334 33.4167 55.1502C33.6007 54.6897 33.3706 54.1375 32.9102 53.9531L29.5723 52.6412C29.3422 52.5494 29.0892 52.5494 28.8587 52.6642C28.6287 52.7564 28.4674 52.9403 28.3756 53.1708L27.0637 56.4855C26.8793 56.9687 27.1097 57.4983 27.5698 57.6823C27.6851 57.7284 27.8003 57.7514 27.9151 57.7514C28.2834 57.7514 28.6287 57.521 28.7669 57.1761L29.2274 56.0021C31.069 60.744 34.2456 64.772 38.4578 67.6495C42.6471 70.5038 47.5039 72.0002 52.522 72.0002H52.9594C53.4656 72.0002 53.8573 71.5627 53.8573 71.0565C53.857 70.55 53.4422 70.1356 52.9129 70.1586L52.9125 70.1581Z" fill="#FFBF5A"/>
    <defs>
        <filter id="filter0_d_0_1" x="0" y="0" width="105" height="105" filterUnits="userSpaceOnUse" color-interpolation-filters="sRGB">
            <feFlood flood-opacity="0" result="BackgroundImageFix"/>
            <feColorMatrix in="SourceAlpha" type="matrix" values="0 0 0 0 0 0 0 0 0 0 0 0 0 0 0 0 0 0 127 0" result="hardAlpha"/>
            <feOffset dy="5"/>
            <feGaussianBlur stdDeviation="5"/>
            <feComposite in2="hardAlpha" operator="out"/>
            <feColorMatrix type="matrix" values="0 0 0 0 0.625 0 0 0 0 0.625 0 0 0 0 0.625 0 0 0 0.25 0"/>
            <feBlend mode="normal" in2="BackgroundImageFix" result="effect1_dropShadow_0_1"/>
            <feBlend mode="normal" in="SourceGraphic" in2="effect1_dropShadow_0_1" result="shape"/>
        </filter>
    </defs>
</svg>
