<svg width="105" height="105" viewBox="0 0 105 105" fill="none" xmlns="http://www.w3.org/2000/svg">
    <g filter="url(#filter0_d_0_1)">
        <circle cx="52.5" cy="47.5" r="42.5" fill="white"/>
        <circle cx="52.5" cy="47.5" r="41.5" stroke="#E21E2C" stroke-width="2"/>
    </g>
    <path d="M59.0684 61.9701C59.0684 61.4386 58.8572 60.9286 58.4814 60.5528C58.1057 60.177 57.5956 59.9658 57.0642 59.9658H49.0472C48.3309 59.9658 47.6693 60.3479 47.3114 60.9679C46.9535 61.588 46.9535 62.3521 47.3114 62.9722C47.6693 63.5922 48.331 63.9743 49.0472 63.9743H57.0642C57.5956 63.9743 58.1057 63.7631 58.4814 63.3874C58.8572 63.0116 59.0684 62.5015 59.0684 61.9701Z" fill="#FFBF5A"/>
    <path d="M56.3961 64.9773H49.715C49.0851 65.0927 48.546 65.498 48.2597 66.0711C47.9733 66.6442 47.9733 67.3189 48.2597 67.8919C48.546 68.465 49.0851 68.8703 49.715 68.9857H56.3961C57.026 68.8703 57.5651 68.465 57.8514 67.8919C58.1377 67.3188 58.1377 66.6441 57.8514 66.0711C57.5651 65.498 57.026 65.0927 56.3961 64.9773Z" fill="#FFBF5A"/>
    <path d="M52.0547 70.9895H54.0589V76.0001H52.0547V70.9895Z" fill="#FFBF5A"/>
    <path d="M56.0625 70.9895H58.0667V73.9959H56.0625V70.9895Z" fill="#FFBF5A"/>
    <path d="M48.0449 70.9895H50.0492V73.9959H48.0449V70.9895Z" fill="#FFBF5A"/>
    <path d="M31.5625 27.7926L32.459 26L38.4718 29.0064L37.5752 30.799L31.5625 27.7926Z" fill="#FFBF5A"/>
    <path d="M69 28.5113L75.3778 26.3857L76.0113 28.2867L69.6335 30.4122L69 28.5113Z" fill="#FFBF5A"/>
    <path d="M27 38.9216H34.0149V40.9259H27V38.9216Z" fill="#FFBF5A"/>
    <path d="M73.6895 38.9216H80.7043V40.9259H73.6895V38.9216Z" fill="#FFBF5A"/>
    <path d="M30.5625 55.0611L36.5752 52.0547L37.4718 53.8473L31.459 56.8536L30.5625 55.0611Z" fill="#FFBF5A"/>
    <path d="M70.2344 53.8478L71.1309 52.0552L77.1436 55.0615L76.2471 56.8541L70.2344 53.8478Z" fill="#FFBF5A"/>
    <path d="M47.0434 55.7067L48.3363 59.0938H57.7764L59.0689 55.7067C63.3217 53.8506 66.4788 50.1347 67.6236 45.6381C68.768 41.141 67.7717 36.3681 64.9242 32.7044C62.0762 29.0409 57.6964 26.8979 53.0567 26.8979C48.4171 26.8979 44.0367 29.0409 41.1893 32.7044C38.3418 36.3679 37.3455 41.141 38.4899 45.6381C39.6347 50.1347 42.7918 53.8506 47.0446 55.7067H47.0434ZM54.0583 47.6468C54.0583 47.3811 54.1639 47.126 54.3518 46.9382L59.3624 41.9275L60.7797 43.3444L56.0625 48.0616V57.6681H54.0582L54.0583 47.6468ZM46.75 41.9275L51.7606 46.9381C51.9485 47.126 52.0541 47.381 52.0541 47.6467V57.668H50.0499V48.0614L45.3327 43.3443L46.75 41.9275Z" fill="#FFBF5A"/>
    <defs>
        <filter id="filter0_d_0_1" x="0" y="0" width="105" height="105" filterUnits="userSpaceOnUse" color-interpolation-filters="sRGB">
            <feFlood flood-opacity="0" result="BackgroundImageFix"/>
            <feColorMatrix in="SourceAlpha" type="matrix" values="0 0 0 0 0 0 0 0 0 0 0 0 0 0 0 0 0 0 127 0" result="hardAlpha"/>
            <feOffset dy="5"/>
            <feGaussianBlur stdDeviation="5"/>
            <feComposite in2="hardAlpha" operator="out"/>
            <feColorMatrix type="matrix" values="0 0 0 0 0.625 0 0 0 0 0.625 0 0 0 0 0.625 0 0 0 0.25 0"/>
            <feBlend mode="normal" in2="BackgroundImageFix" result="effect1_dropShadow_0_1"/>
            <feBlend mode="normal" in="SourceGraphic" in2="effect1_dropShadow_0_1" result="shape"/>
        </filter>
    </defs>
</svg>
