<svg width="105" height="105" viewBox="0 0 105 105" fill="none" xmlns="http://www.w3.org/2000/svg">
    <g filter="url(#filter0_d_0_1)">
        <circle cx="52.5" cy="47.5" r="42.5" fill="white"/>
        <circle cx="52.5" cy="47.5" r="41.5" stroke="#E21E2C" stroke-width="2"/>
    </g>
    <path d="M62.6402 29.2795C62.6402 26.3684 60.2721 24 57.3607 24C54.4493 24 52.0801 26.3692 52.0801 29.2806C52.0801 32.1921 54.4481 34.5612 57.3607 34.5612C60.2733 34.5612 62.6402 32.1921 62.6402 29.2795Z" fill="#FFBF5A"/>
    <path d="M70.5051 27.3388C69.0848 26.6969 67.3088 27.3764 66.6722 28.7865L63.2144 36.4385L41.525 34.6306C39.6421 34.4578 37.8785 35.5269 37.1104 37.225L33.257 45.7511C32.5992 47.2067 33.2479 48.9272 34.7047 49.5874C36.1262 50.2282 37.901 49.5509 38.5399 48.1398L41.9976 40.4877L47.0998 40.9127L34.7045 68.341C33.7944 70.3533 34.6919 72.7328 36.7058 73.6455C37.2293 73.8818 37.784 74.0001 38.3532 74.0001C39.9261 74.0001 41.3601 73.0764 42.0078 71.6435L48.7646 56.6934L53.3736 58.7753L50.611 64.8876C50.1701 65.8617 50.1362 66.9514 50.5133 67.9546C50.8918 68.9556 51.6372 69.7501 52.6131 70.1922C53.137 70.4297 53.6914 70.548 54.2621 70.548C55.835 70.548 57.269 69.6242 57.9155 68.1913L61.6415 59.9461C62.9313 57.0914 61.6597 53.7223 58.8073 52.436L53.0073 49.8122L56.6686 41.7145L63.6846 42.2997C65.5573 42.4667 67.3311 41.4021 68.0992 39.7041L71.9549 31.1792C72.6109 29.7198 71.9633 28.0003 70.5053 27.3391L70.5051 27.3388Z" fill="#FFBF5A"/>
    <path d="M47.377 26.7316C47.6905 26.7316 47.945 26.477 47.945 26.1635C47.945 25.85 47.6905 25.5955 47.377 25.5955H43.0544C42.7409 25.5955 42.4863 25.85 42.4863 26.1635C42.4863 26.477 42.7409 26.7316 43.0544 26.7316H47.377Z" fill="#FFBF5A"/>
    <path d="M37.4297 30.3395C37.4297 30.653 37.6842 30.9076 37.9977 30.9076H46.9363C47.2498 30.9076 47.5043 30.653 47.5043 30.3395C47.5043 30.026 47.2498 29.7715 46.9363 29.7715H37.9977C37.6842 29.7715 37.4297 30.026 37.4297 30.3395Z" fill="#FFBF5A"/>
    <defs>
        <filter id="filter0_d_0_1" x="0" y="0" width="105" height="105" filterUnits="userSpaceOnUse" color-interpolation-filters="sRGB">
            <feFlood flood-opacity="0" result="BackgroundImageFix"/>
            <feColorMatrix in="SourceAlpha" type="matrix" values="0 0 0 0 0 0 0 0 0 0 0 0 0 0 0 0 0 0 127 0" result="hardAlpha"/>
            <feOffset dy="5"/>
            <feGaussianBlur stdDeviation="5"/>
            <feComposite in2="hardAlpha" operator="out"/>
            <feColorMatrix type="matrix" values="0 0 0 0 0.625 0 0 0 0 0.625 0 0 0 0 0.625 0 0 0 0.25 0"/>
            <feBlend mode="normal" in2="BackgroundImageFix" result="effect1_dropShadow_0_1"/>
            <feBlend mode="normal" in="SourceGraphic" in2="effect1_dropShadow_0_1" result="shape"/>
        </filter>
    </defs>
</svg>
