<svg width="105" height="105" viewBox="0 0 105 105" fill="none" xmlns="http://www.w3.org/2000/svg">
    <g filter="url(#filter0_d_0_1)">
        <circle cx="52.5" cy="47.5" r="42.5" fill="white"/>
        <circle cx="52.5" cy="47.5" r="41.5" stroke="#E21E2C" stroke-width="2"/>
    </g>
    <path d="M74.3829 48.2702C74.3829 47.8852 74.2299 47.5158 73.9577 47.2435C73.6855 46.9713 73.316 46.8184 72.931 46.8184H51.153C50.768 46.8184 50.3986 46.9713 50.1264 47.2435C49.8541 47.5158 49.7012 47.8852 49.7012 48.2702V62.0629C49.7012 62.4479 49.8541 62.8174 50.1264 63.0896C50.3986 63.3618 50.768 63.5148 51.153 63.5148H72.931C73.316 63.5148 73.6855 63.3618 73.9577 63.0896C74.2299 62.8174 74.3829 62.4479 74.3829 62.0629V48.2702ZM66.2161 59.1592H58.7752C58.3744 59.1592 58.0493 58.8342 58.0493 58.4333C58.0493 58.0324 58.3744 57.7073 58.7752 57.7073H66.2161C66.617 57.7073 66.942 58.0324 66.942 58.4333C66.942 58.8342 66.617 59.1592 66.2161 59.1592Z" fill="#FFBF5A"/>
    <path d="M64.7617 44.3977V45.3667H66.2136V44.1255L64.7617 44.3977Z" fill="#FFBF5A"/>
    <path d="M37.8638 70.2302H65.4891C65.6816 70.2302 65.8663 70.1538 66.0024 70.0176C66.1385 69.8815 66.215 69.6968 66.215 69.5043V64.9672H64.7631V68.7784H42.2592V30.3039H64.7631V35.088L66.215 34.8157V28.9539C66.2759 28.5604 66.0089 28.191 65.6161 28.1262C62.2188 27.5127 61.6235 26.6234 61.5181 26.2679C61.3548 25.6908 62.0554 25.0449 62.0697 25.0303L62.07 25.03C62.2956 24.8229 62.3665 24.4962 62.2479 24.2139C62.129 23.9317 61.8457 23.7541 61.5398 23.7706H38.3324C37.4573 23.7628 36.6154 24.1024 35.9905 24.715C35.366 25.3275 35.0099 26.1626 35.0001 27.0373C35.0004 27.1585 35.0079 27.2797 35.0218 27.4003H35.0001V67.3266C34.9933 68.0917 35.2915 68.8284 35.8291 69.3731C36.3664 69.9179 37.0985 70.2264 37.864 70.2303L37.8638 70.2302ZM38.3321 25.2224H60.2187C60.0314 25.6839 60.0019 26.1943 60.1351 26.6743C60.3856 27.5927 61.224 28.3147 62.6759 28.8521H38.3576C37.8679 28.8599 37.395 28.6732 37.0424 28.3329C36.6902 27.9929 36.487 27.5269 36.4772 27.0373C36.487 26.5521 36.6866 26.09 37.0333 25.7503C37.3804 25.411 37.8468 25.2214 38.3322 25.2224L38.3321 25.2224Z" fill="#FFBF5A"/>
    <path d="M73.5985 36.4091C73.5603 36.1958 73.4747 35.9936 73.348 35.8176C73.2939 35.7071 73.2216 35.6063 73.1338 35.5198C72.9588 35.362 72.7371 35.2651 72.5021 35.244C72.3083 35.2032 72.1081 35.2032 71.9143 35.244L62.916 36.9101L51.3376 39.0879L51.207 39.1132L50.6988 39.2075V39.2078C50.319 39.2781 49.9833 39.4969 49.7652 39.8158C49.5471 40.1343 49.4651 40.5271 49.5374 40.9063L49.7405 42.0568C49.7879 42.3436 49.8384 42.6304 49.8929 42.9133L50.1178 44.1766H50.1181C50.1622 44.4135 50.2646 44.6355 50.4156 44.8228C50.472 44.9184 50.54 45.0062 50.6191 45.084C50.846 45.2908 51.1477 45.3958 51.4539 45.3744H51.5411H51.5407C51.6299 45.374 51.7183 45.3656 51.8058 45.3491L73.018 41.3857C73.215 41.3477 73.4017 41.2687 73.566 41.1533C73.8943 41 74.116 40.6831 74.1468 40.322C74.2051 40.1143 74.2161 39.8958 74.1795 39.6832L74.0414 38.8957C73.9617 38.327 73.8613 37.7621 73.7401 37.2008L73.5985 36.4091ZM54.6479 43.3311L53.1961 43.6033V40.206L54.6479 39.9338V43.3311ZM57.9146 42.7211L56.4627 42.9934V39.5961L57.9146 39.3239V42.7211ZM61.1813 42.1112L59.7294 42.3834V38.9862L61.1813 38.7139V42.1112ZM64.448 41.5013L62.9961 41.7735V38.3766L64.448 38.1044V41.5013ZM67.7147 40.8914L66.2628 41.1636V37.7667L67.7147 37.4944V40.8914ZM70.9814 40.2815L69.5295 40.5537V37.1571L70.9814 36.8849V40.2815Z" fill="#FFBF5A"/>
    <defs>
        <filter id="filter0_d_0_1" x="0" y="0" width="105" height="105" filterUnits="userSpaceOnUse" color-interpolation-filters="sRGB">
            <feFlood flood-opacity="0" result="BackgroundImageFix"/>
            <feColorMatrix in="SourceAlpha" type="matrix" values="0 0 0 0 0 0 0 0 0 0 0 0 0 0 0 0 0 0 127 0" result="hardAlpha"/>
            <feOffset dy="5"/>
            <feGaussianBlur stdDeviation="5"/>
            <feComposite in2="hardAlpha" operator="out"/>
            <feColorMatrix type="matrix" values="0 0 0 0 0.625 0 0 0 0 0.625 0 0 0 0 0.625 0 0 0 0.25 0"/>
            <feBlend mode="normal" in2="BackgroundImageFix" result="effect1_dropShadow_0_1"/>
            <feBlend mode="normal" in="SourceGraphic" in2="effect1_dropShadow_0_1" result="shape"/>
        </filter>
    </defs>
</svg>
