<svg width="75" height="75" viewBox="0 0 75 75" fill="none" xmlns="http://www.w3.org/2000/svg">
    <circle cx="37.5" cy="37.5" r="37" fill="white" stroke="#FFBF5A"/>
    <path d="M23.7908 35.7202C25.1406 34.5483 27.0789 32.9431 28.3896 31.8657C28.6399 31.6309 28.6662 31.2427 28.4504 30.9758C28.2346 30.7088 27.8495 30.6538 27.5675 30.8491C26.2456 31.9157 24.296 33.5541 22.9353 34.7369V34.7373C22.7273 34.9144 22.6525 35.203 22.7482 35.4591C22.8439 35.7152 23.0895 35.8837 23.363 35.8814C23.52 35.8799 23.6714 35.8225 23.7908 35.7202H23.7908Z" fill="#FFBF5A"/>
    <path d="M38.6276 18.5238C39.2862 18.5254 39.919 18.2647 40.3854 17.7997C40.8523 17.3348 41.115 16.7037 41.1161 16.0447C41.1169 15.3861 40.8562 14.7537 40.3908 14.2873C39.9255 13.8212 39.294 13.5589 38.635 13.5581C37.9764 13.5577 37.3444 13.8192 36.8784 14.2849C36.4123 14.7506 36.1504 15.3821 36.1504 16.0412C36.1504 16.6986 36.4111 17.329 36.8757 17.7947C37.3402 18.26 37.9702 18.5223 38.6276 18.5239L38.6276 18.5238ZM38.6276 14.8746C39.1022 14.8746 39.5299 15.1609 39.7109 15.5995C39.8918 16.0381 39.7907 16.5425 39.4544 16.8773C39.1181 17.212 38.6129 17.3108 38.1751 17.1275C37.7377 16.9447 37.4534 16.5154 37.4557 16.0412C37.4588 15.3961 37.9826 14.8746 38.6276 14.8746H38.6276Z" fill="#FFBF5A"/>
    <path d="M20.6985 25.3561H27.5135L27.6693 25.2786L27.7359 25.2286L27.7971 25.1674C27.8184 25.1469 27.8355 25.1225 27.8471 25.095C27.863 25.081 27.8762 25.064 27.8858 25.045L30.463 19.1576C30.5378 18.9883 30.537 18.7953 30.4607 18.6264C30.3844 18.4579 30.2399 18.33 30.0632 18.2746L22.0038 15.6249H21.9425H21.9429C21.9042 15.6195 21.8647 15.6195 21.8263 15.6249C21.7969 15.6195 21.7667 15.6195 21.7372 15.6249H21.6314L21.5427 15.6582L21.454 15.7028L21.3819 15.7582L21.3041 15.8361V15.8915V15.8919C21.2831 15.9205 21.2665 15.9523 21.2541 15.986C21.2405 16.0162 21.2312 16.048 21.2262 16.0805V16.1472L20.1154 24.6119C20.0899 24.7982 20.146 24.9861 20.2696 25.1279C20.3928 25.2697 20.5718 25.3507 20.7597 25.3507L20.6985 25.3561ZM27.2082 23.3287L24.3258 18.913L23.3537 17.4192L29.0079 19.2188L27.2082 23.3287Z" fill="#FFBF5A"/>
    <path d="M56.4737 30.1938C56.4764 30.155 56.4764 30.1159 56.4737 30.0772C56.476 30.0566 56.476 30.0361 56.4737 30.016L56.4404 29.9106L56.4071 29.8494V29.8048L56.3683 29.7602V29.7269L54.7019 27.9052C55.8127 24.6391 56.7736 20.3793 55.2575 18.0741L55.2571 18.0745C54.5892 17.0966 53.4862 16.5058 52.3022 16.4914C47.9032 16.197 43.6988 18.9187 40.0828 21.4901C39.826 21.7117 39.7806 22.0929 39.9782 22.3684C40.1762 22.6442 40.5516 22.7233 40.8437 22.5508C44.254 20.1182 48.2255 17.5522 52.1962 17.8021C52.9715 17.7916 53.7018 18.1659 54.1458 18.802C55.0454 20.1627 54.868 23.0565 53.6735 26.8056L52.5515 25.6224C52.421 25.4891 52.2439 25.4116 52.0572 25.4058L46.5029 25.5112H46.2809L46.1864 25.5557L46.1252 25.5945L46.0419 25.6723H46.0423C46.0264 25.6824 46.0132 25.6956 46.0031 25.7115C45.964 25.756 45.9322 25.8064 45.909 25.8614L44.4483 29.2607L44.4479 29.2603C44.3491 29.4978 44.3968 29.7706 44.5704 29.9604L48.3249 34.0595C48.4497 34.1935 48.6248 34.2702 48.8081 34.2702L54.3623 34.1703C54.62 34.1644 54.8505 34.0079 54.9512 33.7704L56.4064 30.3769C56.4305 30.3219 56.4475 30.2641 56.4564 30.2045L56.4737 30.1938ZM51.7857 26.7332L54.3629 29.5436L50.547 29.6157L47.9698 26.7998L51.7857 26.7332Z" fill="#FFBF5A"/>
    <path d="M42.5485 29.8715C42.5485 33.3378 39.7385 36.1479 36.2725 36.1479C32.8061 36.1479 29.9961 33.3378 29.9961 29.8715C29.9961 26.4051 32.8061 23.5955 36.2725 23.5955C39.7385 23.5955 42.5485 26.4051 42.5485 29.8715Z" fill="#FFBF5A"/>
    <path d="M49.6306 40.9077C49.5419 39.797 49.3807 37.7195 45.7427 37.7195H26.8583C23.2482 37.7195 23.087 39.7911 22.9979 40.9077V41.1464C22.6926 44.268 20.4986 53.5324 20.476 53.6266C20.4311 53.8207 20.476 54.0249 20.5981 54.1822C20.7217 54.3387 20.9096 54.4309 21.1091 54.4321H25.6026C25.9238 54.4282 26.1958 54.1938 26.2469 53.8765C26.2469 53.7878 28.0019 44.6842 28.3964 43.2788C28.4239 43.1897 28.4572 43.1025 28.4964 43.018C28.587 43.0358 28.6734 43.0696 28.7521 43.118V53.7762C28.7505 53.9498 28.8183 54.1164 28.9404 54.2396C29.0624 54.3624 29.2286 54.4317 29.4018 54.4317H43.2319C43.4051 54.4317 43.5713 54.3624 43.6933 54.2396C43.8153 54.1164 43.8832 53.9498 43.8816 53.7762V43.1398C43.9544 43.0898 44.035 43.0522 44.1202 43.0286C44.1822 43.1084 44.2245 43.2018 44.2427 43.301C44.6371 44.7062 46.3755 53.8094 46.3922 53.8987C46.4414 54.2168 46.7141 54.4523 47.0365 54.4539H51.5075C51.7085 54.452 51.898 54.3605 52.0239 54.204C52.1463 54.0467 52.1913 53.8429 52.1463 53.6488C52.1463 53.5543 49.9248 44.29 49.6245 41.1686L49.6306 40.9077Z" fill="#FFBF5A"/>
    <path d="M52.3795 56.365H20.3255C19.9636 56.365 19.6699 56.6583 19.6699 57.0205C19.6699 57.3824 19.9636 57.6757 20.3255 57.6757H52.3795C52.7413 57.6757 53.035 57.3824 53.035 57.0205C53.035 56.6583 52.7413 56.365 52.3795 56.365Z" fill="#FFBF5A"/>
</svg>
