<svg width="85" height="85" viewBox="0 0 85 85" fill="none" xmlns="http://www.w3.org/2000/svg">
    <circle cx="42.5" cy="42.5" r="42" fill="white" stroke="#FFBF5A"/>
    <path d="M45.1228 35.12C45.1228 36.6327 43.8964 37.8591 42.3837 37.8591C40.8706 37.8591 39.6445 36.6327 39.6445 35.12C39.6445 33.6073 40.8706 32.3809 42.3837 32.3809C43.8964 32.3809 45.1228 33.6073 45.1228 35.12Z" fill="#FFBF5A"/>
    <path d="M42.3847 42.2087C39.0933 42.2087 36.3769 44.6486 35.9395 47.8021H48.8528C48.3927 44.6482 45.6762 42.2087 42.3848 42.2087H42.3847Z" fill="#FFBF5A"/>
    <path d="M67.2209 30.2625C66.7377 30.1243 66.2312 30.4238 66.0929 30.907L65.6785 32.4951C63.814 27.9604 60.7065 24.1165 56.6555 21.3315C52.328 18.4085 47.3102 16.9122 42.0854 17.004C41.5789 17.004 41.1875 17.4184 41.1875 17.925C41.2105 18.4311 41.6019 18.8459 42.1085 18.8459H42.1315C46.9422 18.6846 51.6151 20.1349 55.5967 22.8509C59.3256 25.4061 62.1568 28.9274 63.8832 33.0706L62.8243 32.7714C62.3408 32.6331 61.8346 32.9327 61.6963 33.4158C61.5581 33.9224 61.8573 34.4286 62.3408 34.5669L65.7934 35.4878C65.8852 35.5109 65.9778 35.5339 66.0465 35.5339C66.2078 35.5339 66.3688 35.4878 66.507 35.4187C66.7144 35.2805 66.8753 35.0965 66.9445 34.8434L67.8654 31.3908C68.0037 30.9068 67.7276 30.4003 67.221 30.2624L67.2209 30.2625Z" fill="#FFBF5A"/>
    <path d="M58.7489 35.0969L56.0328 35.5113C55.5493 34.4755 54.951 33.4857 54.2143 32.3808L55.8714 30.3323C56.2167 29.9179 56.355 29.4113 56.3089 28.882C56.2397 28.3524 55.9866 27.8693 55.5723 27.547L53.4776 25.8437C53.0632 25.5215 52.5567 25.3372 52.0044 25.4063C51.4752 25.4754 51.0147 25.7285 50.6694 26.1429L48.8508 28.2146C47.792 27.7084 46.687 27.317 45.4673 26.9717L45.4212 24.3475C45.3981 23.2425 44.5467 22.3911 43.3957 22.3911L40.7022 22.4372C39.5973 22.4602 38.7228 23.3808 38.7459 24.4627L38.6767 27.2019C37.5718 27.5011 36.4899 27.9155 35.2932 28.4681L33.5668 26.4657C33.2215 26.0743 32.738 25.8212 32.2088 25.7982C31.6792 25.7751 31.1499 25.9364 30.7586 26.2817L28.733 28.0542C28.3186 28.3994 28.0886 28.883 28.0425 29.4122C28.0195 29.9414 28.1808 30.4711 28.526 30.8624L30.2524 33.0262C29.5849 33.9698 29.0327 34.9826 28.4569 36.1336L25.8557 35.7192C25.3261 35.6501 24.7968 35.7653 24.3594 36.0875C23.945 36.4098 23.6689 36.8702 23.5767 37.3765L23.1623 40.0464C22.9783 41.1283 23.7376 42.141 24.8195 42.325L27.4664 42.7394C27.5355 43.8905 27.7886 45.1102 28.1339 46.4225L25.878 47.7806C25.4406 48.0567 25.1183 48.4711 24.9801 49.0007C24.8649 49.5069 24.934 50.0595 25.2101 50.497L26.6142 52.8217C26.8673 53.2591 27.3048 53.5814 27.8344 53.7196C28.3406 53.8579 28.8701 53.7657 29.3307 53.4896L31.7706 52.1545C32.5759 52.9833 33.4738 53.7195 34.5097 54.4796L33.6579 56.9883C33.4969 57.4718 33.5196 58.0241 33.75 58.5076C33.9801 58.9681 34.3945 59.3364 34.9011 59.4973L37.4563 60.3718C37.6636 60.441 37.8706 60.487 38.1007 60.487C38.3999 60.487 38.6991 60.4179 38.9752 60.28C39.4587 60.0496 39.804 59.6356 39.9653 59.1521L40.8398 56.5969C41.4151 56.666 42.0365 56.6887 42.7043 56.6887C43.2797 56.6887 43.878 56.6196 44.5689 56.5278L45.5356 59.0364C45.9269 60.0492 47.078 60.5557 48.0907 60.1644L50.6228 59.1977C51.6356 58.8064 52.1417 57.6553 51.7508 56.6196L50.8763 54.0183C51.8199 53.3508 52.6948 52.5912 53.6384 51.6932L55.9401 52.9821C56.9068 53.5118 58.1039 53.1435 58.6561 52.1994L59.9451 49.8286C60.1982 49.3682 60.2673 48.8389 60.129 48.3327C59.9681 47.8031 59.6459 47.3891 59.1624 47.1356L56.8147 45.7085C57.1599 44.5113 57.3673 43.3147 57.413 42.1637L60.0373 41.6344C61.0961 41.4274 61.8097 40.3916 61.6023 39.3093L61.073 36.6624C60.8664 35.5805 59.8076 34.8669 58.7487 35.097L58.7489 35.0969ZM42.383 30.5163C44.9151 30.5163 46.9636 32.5879 46.9636 35.12C46.9636 37.652 44.9151 39.7006 42.383 39.7006C39.8509 39.7006 37.8024 37.652 37.8024 35.12C37.8024 32.5879 39.8509 30.5163 42.383 30.5163ZM49.8175 49.6438H34.9475C34.4413 49.6438 34.0269 49.2294 34.0269 48.7232C34.0269 44.1195 37.7787 40.3677 42.3824 40.3677C47.0091 40.3677 50.7379 44.1195 50.7379 48.7232C50.7383 49.2294 50.3469 49.6438 49.8173 49.6438H49.8175Z" fill="#FFBF5A"/>
    <path d="M42.9125 65.1581C38.1018 65.2272 33.475 63.8462 29.4932 61.1297C25.534 58.4133 22.5418 54.6158 20.8616 50.1272L22.2196 50.6795C22.7031 50.8638 23.2324 50.6334 23.4167 50.1502C23.6007 49.6897 23.3706 49.1375 22.9102 48.9531L19.5723 47.6412C19.3422 47.5494 19.0892 47.5494 18.8587 47.6642C18.6287 47.7564 18.4674 47.9403 18.3756 48.1708L17.0637 51.4855C16.8793 51.9687 17.1097 52.4983 17.5698 52.6823C17.6851 52.7284 17.8003 52.7514 17.9151 52.7514C18.2834 52.7514 18.6287 52.521 18.7669 52.1761L19.2274 51.0021C21.069 55.744 24.2456 59.772 28.4578 62.6495C32.6471 65.5038 37.5039 67.0002 42.522 67.0002H42.9594C43.4656 67.0002 43.8573 66.5627 43.8573 66.0565C43.857 65.55 43.4422 65.1356 42.9129 65.1586L42.9125 65.1581Z" fill="#FFBF5A"/>
</svg>
