<svg width="85" height="85" viewBox="0 0 85 85" fill="none" xmlns="http://www.w3.org/2000/svg">
    <circle cx="42.5" cy="42.5" r="42" fill="white" stroke="#FFBF5A"/>
    <path d="M49.0684 56.9701C49.0684 56.4386 48.8572 55.9286 48.4814 55.5528C48.1057 55.177 47.5956 54.9658 47.0642 54.9658H39.0472C38.3309 54.9658 37.6693 55.3479 37.3114 55.9679C36.9535 56.588 36.9535 57.3521 37.3114 57.9722C37.6693 58.5922 38.331 58.9743 39.0472 58.9743H47.0642C47.5956 58.9743 48.1057 58.7631 48.4814 58.3874C48.8572 58.0116 49.0684 57.5015 49.0684 56.9701Z" fill="#FFBF5A"/>
    <path d="M46.3961 59.9773H39.715C39.0851 60.0927 38.546 60.498 38.2597 61.0711C37.9733 61.6442 37.9733 62.3189 38.2597 62.8919C38.546 63.465 39.0851 63.8703 39.715 63.9857H46.3961C47.026 63.8703 47.5651 63.465 47.8514 62.8919C48.1377 62.3188 48.1377 61.6441 47.8514 61.0711C47.5651 60.498 47.026 60.0927 46.3961 59.9773Z" fill="#FFBF5A"/>
    <path d="M42.0547 65.9895H44.0589V71.0001H42.0547V65.9895Z" fill="#FFBF5A"/>
    <path d="M46.0625 65.9895H48.0667V68.9959H46.0625V65.9895Z" fill="#FFBF5A"/>
    <path d="M38.0449 65.9895H40.0492V68.9959H38.0449V65.9895Z" fill="#FFBF5A"/>
    <path d="M21.5625 22.7926L22.459 21L28.4718 24.0064L27.5752 25.799L21.5625 22.7926Z" fill="#FFBF5A"/>
    <path d="M59 23.5113L65.3778 21.3857L66.0113 23.2867L59.6335 25.4122L59 23.5113Z" fill="#FFBF5A"/>
    <path d="M17 33.9216H24.0149V35.9259H17V33.9216Z" fill="#FFBF5A"/>
    <path d="M63.6895 33.9216H70.7043V35.9259H63.6895V33.9216Z" fill="#FFBF5A"/>
    <path d="M20.5625 50.0611L26.5752 47.0547L27.4718 48.8473L21.459 51.8536L20.5625 50.0611Z" fill="#FFBF5A"/>
    <path d="M60.2344 48.8478L61.1309 47.0552L67.1436 50.0615L66.2471 51.8541L60.2344 48.8478Z" fill="#FFBF5A"/>
    <path d="M37.0434 50.7067L38.3363 54.0938H47.7764L49.0689 50.7067C53.3217 48.8506 56.4788 45.1347 57.6236 40.6381C58.768 36.141 57.7717 31.3681 54.9242 27.7044C52.0762 24.0409 47.6964 21.8979 43.0567 21.8979C38.4171 21.8979 34.0367 24.0409 31.1893 27.7044C28.3418 31.3679 27.3455 36.141 28.4899 40.6381C29.6347 45.1347 32.7918 48.8506 37.0446 50.7067H37.0434ZM44.0583 42.6468C44.0583 42.3811 44.1639 42.126 44.3518 41.9382L49.3624 36.9275L50.7797 38.3444L46.0625 43.0616V52.6681H44.0582L44.0583 42.6468ZM36.75 36.9275L41.7606 41.9381C41.9485 42.126 42.0541 42.381 42.0541 42.6467V52.668H40.0499V43.0614L35.3327 38.3443L36.75 36.9275Z" fill="#FFBF5A"/>
</svg>
