<svg width="85" height="85" viewBox="0 0 85 85" fill="none" xmlns="http://www.w3.org/2000/svg">
    <circle cx="42.5" cy="42.5" r="42" fill="white" stroke="#FFBF5A"/>
    <path d="M52.6402 24.2795C52.6402 21.3684 50.2721 19 47.3607 19C44.4493 19 42.0801 21.3692 42.0801 24.2806C42.0801 27.1921 44.4481 29.5612 47.3607 29.5612C50.2733 29.5612 52.6402 27.1921 52.6402 24.2795Z" fill="#FFBF5A"/>
    <path d="M60.5051 22.3388C59.0848 21.6969 57.3088 22.3764 56.6722 23.7865L53.2144 31.4385L31.525 29.6306C29.6421 29.4578 27.8785 30.5269 27.1104 32.225L23.257 40.7511C22.5992 42.2067 23.2479 43.9272 24.7047 44.5874C26.1262 45.2282 27.901 44.5509 28.5399 43.1398L31.9976 35.4877L37.0998 35.9127L24.7045 63.341C23.7944 65.3533 24.6919 67.7328 26.7058 68.6455C27.2293 68.8818 27.784 69.0002 28.3532 69.0002C29.9261 69.0002 31.3601 68.0764 32.0078 66.6435L38.7646 51.6934L43.3736 53.7753L40.611 59.8877C40.1701 60.8617 40.1362 61.9514 40.5133 62.9546C40.8918 63.9556 41.6372 64.7501 42.6131 65.1922C43.137 65.4297 43.6914 65.548 44.2621 65.548C45.835 65.548 47.269 64.6242 47.9155 63.1913L51.6415 54.9461C52.9313 52.0914 51.6597 48.7223 48.8073 47.436L43.0073 44.8122L46.6686 36.7145L53.6846 37.2997C55.5573 37.4667 57.3311 36.4021 58.0992 34.7041L61.9549 26.1792C62.6109 24.7198 61.9633 23.0003 60.5053 22.3391L60.5051 22.3388Z" fill="#FFBF5A"/>
    <path d="M37.377 21.7316C37.6905 21.7316 37.945 21.477 37.945 21.1635C37.945 20.85 37.6905 20.5955 37.377 20.5955H33.0544C32.7409 20.5955 32.4863 20.85 32.4863 21.1635C32.4863 21.477 32.7409 21.7316 33.0544 21.7316H37.377Z" fill="#FFBF5A"/>
    <path d="M27.4297 25.3395C27.4297 25.653 27.6842 25.9076 27.9977 25.9076H36.9363C37.2498 25.9076 37.5043 25.653 37.5043 25.3395C37.5043 25.026 37.2498 24.7715 36.9363 24.7715H27.9977C27.6842 24.7715 27.4297 25.026 27.4297 25.3395Z" fill="#FFBF5A"/>
</svg>
