<svg width="85" height="85" viewBox="0 0 85 85" fill="none" xmlns="http://www.w3.org/2000/svg">
    <circle cx="42.5" cy="42.5" r="42" fill="white" stroke="#FFBF5A"/>
    <path d="M64 46.0997V62.9001C64 63.457 63.7736 63.9914 63.3705 64.3851C62.9674 64.7789 62.4203 65 61.8501 65H44.6498C44.0797 65 43.5329 64.7789 43.1298 64.3851C42.7263 63.9914 42.4999 63.457 42.4999 62.9001V46.0997C42.4999 45.5428 42.7263 45.0088 43.1298 44.6151C43.5329 44.221 44.0797 43.9998 44.6498 43.9998H61.8501C62.4202 43.9998 62.9674 44.221 63.3705 44.6151C63.7736 45.0088 64 45.5429 64 46.0997ZM31.75 31.3999C31.1798 31.3999 30.6331 31.6211 30.23 32.0152C29.8265 32.4089 29.6001 32.943 29.6001 33.4998V52.3999C29.6001 52.9571 29.8265 53.4912 30.23 53.8849C30.6331 54.2787 31.1799 54.5002 31.75 54.5002H38.2V40.8498C38.2 40.2701 38.6816 39.7997 39.2751 39.7997H53.2504V33.4996C53.2504 32.9427 53.0237 32.4087 52.6205 32.015C52.2174 31.6209 51.6706 31.3997 51.1002 31.3997L31.75 31.3999ZM23.1501 46.0997H25.2999V28.2499C25.2999 27.6702 25.7815 27.1998 26.3751 27.1998H44.6498V25.0999C44.6498 24.543 44.4234 24.0086 44.0203 23.6149C43.6171 23.2211 43.0701 23 42.4999 23H23.1499C22.5797 23 22.0326 23.2211 21.6295 23.6149C21.2264 24.0086 21 24.543 21 25.0999V44C21 44.5569 21.2264 45.0913 21.6295 45.485C22.0326 45.8788 22.5797 46.0999 23.1499 46.0999L23.1501 46.0997Z" fill="#FFBF5A"/>
</svg>
