<svg width="85" height="85" viewBox="0 0 85 85" fill="none" xmlns="http://www.w3.org/2000/svg">
    <circle cx="42.5" cy="42.5" r="42" fill="white" stroke="#FFBF5A"/>
    <path d="M64.3829 43.2702C64.3829 42.8852 64.2299 42.5158 63.9577 42.2435C63.6855 41.9713 63.316 41.8184 62.931 41.8184H41.153C40.768 41.8184 40.3986 41.9713 40.1264 42.2435C39.8541 42.5158 39.7012 42.8852 39.7012 43.2702V57.0629C39.7012 57.4479 39.8541 57.8174 40.1264 58.0896C40.3986 58.3618 40.768 58.5148 41.153 58.5148H62.931C63.316 58.5148 63.6855 58.3618 63.9577 58.0896C64.2299 57.8174 64.3829 57.4479 64.3829 57.0629V43.2702ZM56.2161 54.1592H48.7752C48.3744 54.1592 48.0493 53.8342 48.0493 53.4333C48.0493 53.0324 48.3744 52.7073 48.7752 52.7073H56.2161C56.617 52.7073 56.942 53.0324 56.942 53.4333C56.942 53.8342 56.617 54.1592 56.2161 54.1592Z" fill="#FFBF5A"/>
    <path d="M54.7617 39.3977V40.3667H56.2136V39.1255L54.7617 39.3977Z" fill="#FFBF5A"/>
    <path d="M27.8638 65.2302H55.4891C55.6816 65.2302 55.8663 65.1538 56.0024 65.0176C56.1385 64.8815 56.215 64.6968 56.215 64.5043V59.9672H54.7631V63.7784H32.2592V25.3039H54.7631V30.088L56.215 29.8157V23.9539C56.2759 23.5604 56.0089 23.191 55.6161 23.1262C52.2188 22.5127 51.6235 21.6234 51.5181 21.2679C51.3548 20.6908 52.0554 20.0449 52.0697 20.0303L52.07 20.03C52.2956 19.8229 52.3665 19.4962 52.2479 19.2139C52.129 18.9317 51.8457 18.7541 51.5398 18.7706H28.3324C27.4573 18.7628 26.6154 19.1024 25.9905 19.715C25.366 20.3275 25.0099 21.1626 25.0001 22.0373C25.0004 22.1585 25.0079 22.2797 25.0218 22.4003H25.0001V62.3266C24.9933 63.0917 25.2915 63.8284 25.8291 64.3731C26.3664 64.9179 27.0985 65.2264 27.864 65.2303L27.8638 65.2302ZM28.3321 20.2224H50.2187C50.0314 20.6839 50.0019 21.1943 50.1351 21.6743C50.3856 22.5927 51.224 23.3147 52.6759 23.8521H28.3576C27.8679 23.8599 27.395 23.6732 27.0424 23.3329C26.6902 22.9929 26.487 22.5269 26.4772 22.0373C26.487 21.5521 26.6866 21.09 27.0333 20.7503C27.3804 20.411 27.8468 20.2214 28.3322 20.2224L28.3321 20.2224Z" fill="#FFBF5A"/>
    <path d="M63.5985 31.4091C63.5603 31.1958 63.4747 30.9936 63.348 30.8176C63.2939 30.7071 63.2216 30.6063 63.1338 30.5198C62.9588 30.362 62.7371 30.2651 62.5021 30.244C62.3083 30.2032 62.1081 30.2032 61.9143 30.244L52.916 31.9101L41.3376 34.0879L41.207 34.1132L40.6988 34.2075V34.2078C40.319 34.2781 39.9833 34.4969 39.7652 34.8158C39.5471 35.1343 39.4651 35.5271 39.5374 35.9063L39.7405 37.0568C39.7879 37.3436 39.8384 37.6304 39.8929 37.9133L40.1178 39.1766H40.1181C40.1622 39.4135 40.2646 39.6355 40.4156 39.8228C40.472 39.9184 40.54 40.0062 40.6191 40.084C40.846 40.2908 41.1477 40.3958 41.4539 40.3744H41.5411H41.5407C41.6299 40.374 41.7183 40.3656 41.8058 40.3491L63.018 36.3857C63.215 36.3477 63.4017 36.2687 63.566 36.1533C63.8943 36 64.116 35.6831 64.1468 35.322C64.2051 35.1143 64.2161 34.8958 64.1795 34.6832L64.0414 33.8957C63.9617 33.327 63.8613 32.7621 63.7401 32.2008L63.5985 31.4091ZM44.6479 38.3311L43.1961 38.6033V35.206L44.6479 34.9338V38.3311ZM47.9146 37.7211L46.4627 37.9934V34.5961L47.9146 34.3239V37.7211ZM51.1813 37.1112L49.7294 37.3834V33.9862L51.1813 33.7139V37.1112ZM54.448 36.5013L52.9961 36.7735V33.3766L54.448 33.1044V36.5013ZM57.7147 35.8914L56.2628 36.1636V32.7667L57.7147 32.4944V35.8914ZM60.9814 35.2815L59.5295 35.5537V32.1571L60.9814 31.8849V35.2815Z" fill="#FFBF5A"/>
</svg>
