<svg width="15" height="19" viewBox="0 0 15 19" fill="none" xmlns="http://www.w3.org/2000/svg">
    <path d="M7.125 19C7.125 19 14.25 12.2479 14.25 7.125C14.25 5.23533 13.4993 3.42306 12.1631 2.08686C10.8269 0.750667 9.01467 0 7.125 0C5.23533 0 3.42306 0.750667 2.08686 2.08686C0.750667 3.42306 2.81582e-08 5.23533 0 7.125C0 12.2479 7.125 19 7.125 19ZM7.125 10.6875C6.18017 10.6875 5.27403 10.3122 4.60593 9.64407C3.93783 8.97597 3.5625 8.06983 3.5625 7.125C3.5625 6.18017 3.93783 5.27403 4.60593 4.60593C5.27403 3.93783 6.18017 3.5625 7.125 3.5625C8.06983 3.5625 8.97597 3.93783 9.64407 4.60593C10.3122 5.27403 10.6875 6.18017 10.6875 7.125C10.6875 8.06983 10.3122 8.97597 9.64407 9.64407C8.97597 10.3122 8.06983 10.6875 7.125 10.6875Z" fill="#ED4A67"/>
</svg>
