<svg width="61" height="63" viewBox="0 0 61 63" fill="none" xmlns="http://www.w3.org/2000/svg">
<path fill-rule="evenodd" clip-rule="evenodd" d="M87.5879 16.6758C86.9566 14.4448 84.0455 14.0039 82.7717 15.9465C82.5985 16.2105 82.4339 16.6223 82.406 16.8616C82.3595 17.2602 81.6509 17.7028 73.944 22.1472C65.7958 26.8458 65.5524 26.9734 66.1627 26.2257C72.0676 18.9912 76.0024 11.6428 78.3001 3.55814L78.9347 1.3255L78.6195 0.860841C78.2185 0.269412 77.6012 0.101506 76.9612 0.409766C76.4632 0.649614 76.4617 0.652675 75.674 3.16131C73.8086 9.10317 71.5396 13.9523 68.3572 18.798C64.4985 24.6736 58.3303 31.1937 54.6237 33.3151L53.3291 34.056L52.1972 32.1554C50.4908 29.2899 50.998 29.2503 44.9616 32.7187C42.2854 34.2565 39.9687 35.6803 39.8133 35.8829C39.3397 36.5003 39.4677 37.0195 40.5748 38.9743L41.6326 40.8418L40.4809 41.4742C36.5714 43.6208 27.0704 45.7347 20.2722 45.9706C15.1818 46.1473 8.72879 45.5454 4.8473 44.5315C2.74835 43.9834 1.63065 43.8712 1.22252 44.1679C0.701526 44.5467 0.533239 45.3344 0.854436 45.8908C1.10589 46.3268 1.19627 46.3673 2.98808 46.8469C7.16567 47.9652 12.9629 48.6663 18.0482 48.668C21.3967 48.6691 26.4643 48.2089 29.2241 47.6531C29.9264 47.5117 28.73 48.2519 21.3556 52.5215L12.659 57.5567L11.7995 57.3918C10.3079 57.1057 9.18298 57.8213 8.78416 59.3097C8.30547 61.0962 9.73801 62.7587 11.5909 62.567C12.755 62.4465 13.8111 61.4807 13.9344 60.4241C13.9836 60.0031 14.7393 59.5467 25.5538 53.4073C31.9155 49.7956 38.4691 46.0729 40.1175 45.1343L43.1142 43.428L44.1949 45.2374C45.2154 46.9458 45.3103 47.0561 45.8935 47.2124C46.506 47.3765 46.5524 47.3543 51.377 44.5821C54.0532 43.0444 56.3699 41.6206 56.5253 41.4179C56.9906 40.8115 56.8696 40.2835 55.8521 38.4797L54.8826 36.7611L55.716 36.2511C56.1743 35.9706 62.6427 32.1397 70.0903 27.738L83.6312 19.7348L84.5316 19.9075C86.0262 20.1943 86.9926 19.6233 87.4644 18.1742C87.6973 17.4588 87.7225 17.1518 87.5879 16.6758ZM50.11 42.2277L46.6807 44.2061L44.7001 40.7781C43.6107 38.8927 42.7374 37.2829 42.7594 37.2009C42.7814 37.1188 44.3426 36.1613 46.2287 35.0732L49.658 33.0947L51.6386 36.5228C52.7279 38.4082 53.6012 40.0179 53.5792 40.1C53.5572 40.1821 51.9961 41.1395 50.11 42.2277Z" fill="#11253D"/>
</svg>
