<svg width="101" height="39" viewBox="0 0 101 39" fill="none" xmlns="http://www.w3.org/2000/svg">
    <path d="M0.632812 38.9443C0.637828 38.7086 0.642854 38.4728 0.642854 38.2371C0.642854 25.8328 0.64786 13.4336 0.632812 1.0293C0.632812 0.628028 0.728114 0.52771 1.1344 0.52771C12.5204 0.537742 23.9115 0.537742 35.2976 0.52771C35.6738 0.52771 35.7891 0.612986 35.7841 1.00422C35.7691 4.38493 35.7741 7.77064 35.7691 11.1513C35.7691 11.3119 35.8794 11.5727 35.6437 11.6178C35.3377 11.673 34.9966 11.7232 34.7007 11.5827C34.5652 11.5175 34.6355 11.3018 34.6355 11.1513C34.6304 8.18696 34.6355 5.22258 34.6355 2.25819C34.6355 1.67134 34.6355 1.67133 34.0285 1.67133C23.5052 1.67133 12.9819 1.67133 2.4586 1.67133C1.81657 1.67133 1.81155 1.67133 1.81155 2.30835C1.81155 13.9301 1.81155 25.557 1.81155 37.1787C1.81155 37.8007 1.81155 37.8007 2.42851 37.8007C12.9669 37.8007 23.5052 37.8007 34.0436 37.8007C34.6355 37.8007 34.6355 37.8007 34.6355 37.1988C34.6355 34.2896 34.6355 31.3804 34.6405 28.4712C34.6405 28.3006 34.5502 28.0398 34.7508 27.9846C35.0518 27.9044 35.3929 27.8893 35.6938 27.9997C35.8343 28.0498 35.7691 28.2505 35.7691 28.3859C35.7741 30.5427 35.7741 32.6996 35.7691 34.8564C35.7691 36.2207 35.759 37.585 35.754 38.9494C24.052 38.9443 12.3399 38.9443 0.632812 38.9443Z" fill="#CC0A0A"/>
    <path d="M100.994 33.5974C100.879 33.8181 100.783 34.0489 100.648 34.2495C100.247 34.8364 99.6649 35.1524 98.9627 35.1825C98.1702 35.2176 97.3727 35.1925 96.5802 35.2075C96.3244 35.2126 96.2491 35.1072 96.2541 34.8614C96.2642 32.6494 96.2642 30.4374 96.2541 28.2254C96.2541 27.9797 96.3244 27.8593 96.5802 27.8643C97.4028 27.8844 98.2254 27.8141 99.043 27.9094C100.307 28.0599 101.004 29.028 100.733 30.2769C100.658 30.613 100.437 30.8738 100.172 31.0795C99.9057 31.2851 99.9107 31.4557 100.202 31.6111C100.603 31.8318 100.748 32.2532 100.999 32.5943C100.994 32.9303 100.994 33.2614 100.994 33.5974ZM97.3526 33.0507C97.3526 33.3416 97.3576 33.6326 97.3526 33.9285C97.3476 34.1091 97.4128 34.2194 97.6135 34.2144C98.0298 34.2044 98.4511 34.2244 98.8674 34.1843C99.2486 34.1442 99.5947 33.9887 99.7653 33.6025C100.121 32.7999 99.68 32.0275 98.8072 31.9322C97.3476 31.7717 97.3476 31.7717 97.3526 33.0507ZM97.3476 29.8857C97.3476 30.1214 97.3526 30.3572 97.3476 30.5929C97.3426 30.7936 97.4078 30.9139 97.6285 30.9089C98.0599 30.9039 98.4912 30.939 98.9176 30.8538C99.6047 30.7133 99.9258 29.976 99.5646 29.3691C99.2938 28.9226 98.8524 28.8925 98.4009 28.8825C97.3476 28.8574 97.3476 28.8574 97.3476 29.8857Z" fill="#CC0A0A"/>
    <path d="M37.5437 24.6892C36.7462 24.2879 36.0039 23.9217 35.2665 23.5456C32.8088 22.2966 30.356 21.0527 27.8982 19.8037C27.823 19.7686 27.7528 19.7235 27.6825 19.6833C27.6173 19.6432 27.502 19.6582 27.502 19.5429C27.507 19.4375 27.6123 19.4375 27.6825 19.4024C30.8175 17.8174 33.9524 16.2374 37.0873 14.6524C37.4986 14.4467 37.5086 14.4518 37.5086 14.9182C37.5187 18.0331 37.5287 21.148 37.5387 24.2628C37.5437 24.3782 37.5437 24.4986 37.5437 24.6892ZM36.3951 19.573C36.3851 19.573 36.3801 19.573 36.37 19.573C36.37 18.625 36.365 17.682 36.37 16.734C36.37 16.4381 36.3399 16.3227 35.9989 16.4982C34.1229 17.4663 32.2269 18.4043 30.3409 19.3573C30.2456 19.4024 30.1052 19.4075 30.1102 19.5579C30.1152 19.6783 30.2456 19.6883 30.3259 19.7285C32.2169 20.6915 34.1079 21.6445 35.9989 22.6126C36.2998 22.7681 36.4102 22.743 36.4001 22.3718C36.3851 21.4389 36.3951 20.5059 36.3951 19.573Z" fill="#CC0A0A"/>
    <path d="M48.0743 6.39626C48.0743 7.31417 48.0844 8.23207 48.0693 9.14997C48.0643 9.44089 48.1295 9.58134 48.4555 9.57633C49.0273 9.56629 49.0273 9.58636 49.0273 10.1782C49.0273 10.7751 49.0173 11.372 49.0324 11.9739C49.0424 12.2648 48.9772 12.4053 48.6411 12.3902C47.8335 12.3551 47.9288 12.5156 47.9238 11.688C47.9188 10.5745 47.9238 10.5745 46.8103 10.5745C45.9175 10.5745 45.0297 10.5845 44.1368 10.5695C43.8459 10.5645 43.7406 10.6648 43.7607 10.9557C43.7807 11.3319 43.7556 11.7081 43.7707 12.0792C43.7757 12.2849 43.7205 12.3752 43.4948 12.3902C42.6722 12.4404 42.6722 12.4504 42.6722 11.6228C42.6722 11.051 42.6772 10.4842 42.6722 9.91239C42.6672 9.70172 42.7174 9.54121 42.9682 9.57633C43.3744 9.63652 43.4447 9.35563 43.54 9.0647C44.0315 7.56496 44.1118 6.01505 44.1419 4.46013C44.1469 4.16921 44.1519 3.87327 44.1419 3.58235C44.1318 3.33657 44.2171 3.23124 44.4729 3.23625C45.5614 3.24629 46.6448 3.24629 47.7332 3.23625C48.0191 3.23124 48.0793 3.3466 48.0793 3.60742C48.0643 4.53035 48.0743 5.46331 48.0743 6.39626ZM47.036 6.93797C47.036 6.16051 47.026 5.38305 47.041 4.60057C47.046 4.32972 46.9558 4.21936 46.6849 4.23441C46.3539 4.24946 46.0128 4.25949 45.6817 4.2294C45.3106 4.1993 45.1751 4.31467 45.1751 4.71092C45.1802 6.25582 45.0798 7.79067 44.5732 9.27036C44.493 9.5061 44.5983 9.56629 44.814 9.56128C45.4109 9.55626 46.0128 9.54623 46.6097 9.56629C46.9257 9.57632 47.0561 9.48604 47.0461 9.14496C47.016 8.41264 47.036 7.6753 47.036 6.93797Z" fill="#CC0A0A"/>
    <path d="M71.3962 31.5459C71.3962 32.6294 71.3862 33.7178 71.4012 34.8012C71.4062 35.0922 71.3461 35.2276 71.015 35.2175C70.2426 35.1925 70.383 35.2476 70.383 34.6006C70.378 33.0156 70.383 31.4306 70.378 29.8405C70.378 29.7001 70.4533 29.4994 70.2326 29.4643C70.0319 29.4342 69.9968 29.6248 69.9516 29.7703C69.5052 31.24 69.0588 32.7146 68.6124 34.1843C68.5271 34.4602 68.4369 34.741 68.3516 35.0169C68.3014 35.1875 68.166 35.2075 68.0205 35.2075C67.6443 35.2075 67.2682 35.1875 66.892 35.2175C66.5559 35.2426 66.4656 35.1122 66.4656 34.7912C66.4757 32.9002 66.4706 31.0042 66.4706 29.1132C66.4706 28.8223 66.4807 28.5264 66.4656 28.2354C66.4556 27.9746 66.5408 27.8643 66.8217 27.8643C67.4939 27.8593 67.4939 27.8442 67.4939 28.5013C67.4939 30.0863 67.4939 31.6713 67.4939 33.2614C67.4939 33.3968 67.4136 33.5974 67.6494 33.6275C67.8801 33.6576 67.855 33.462 67.8951 33.3215C68.3917 31.6914 68.9033 30.0662 69.3899 28.4311C69.5052 28.0448 69.6557 27.784 70.1322 27.8643C70.4181 27.9094 70.7191 27.8894 71.01 27.8693C71.3059 27.8492 71.3862 27.9696 71.3862 28.2555C71.3862 29.349 71.3962 30.4475 71.3962 31.5459Z" fill="#CC0A0A"/>
    <path d="M42.7767 19.7235C42.7767 18.625 42.7868 17.5266 42.7717 16.4231C42.7667 16.1422 42.8419 16.0368 43.1429 16.0419C44.2865 16.0569 45.4301 16.0669 46.5687 16.0368C46.9851 16.0268 46.97 16.2425 46.965 16.5284C46.965 16.8243 46.98 17.0651 46.5437 17.05C45.7662 17.0149 44.9837 17.05 44.2012 17.035C43.9204 17.03 43.7899 17.1102 43.81 17.4162C43.8301 17.7924 43.8251 18.1686 43.81 18.5448C43.8 18.8156 43.9003 18.9109 44.1762 18.916C44.7179 18.921 45.2546 18.8708 45.7963 19.0213C47.0503 19.3774 47.6622 20.3655 47.3863 21.6647C47.1706 22.6678 46.5286 23.2597 45.4 23.36C44.6125 23.4302 43.815 23.3851 43.0175 23.4002C42.7165 23.4052 42.7767 23.1945 42.7767 23.024C42.7717 21.9255 42.7767 20.827 42.7767 19.7235ZM43.815 21.148C43.815 21.469 43.82 21.785 43.815 22.1061C43.815 22.2866 43.8752 22.402 44.0708 22.407C44.5574 22.412 45.0439 22.4371 45.5204 22.3117C46.022 22.1813 46.3079 21.7901 46.323 21.2383C46.338 20.5662 46.1273 20.2452 45.5806 20.0445C45.079 19.8589 44.5624 19.9342 44.0558 19.9241C43.8551 19.9191 43.81 20.0646 43.81 20.2351C43.815 20.5361 43.815 20.8421 43.815 21.148Z" fill="#CC0A0A"/>
    <path d="M94.7466 31.571C94.7667 32.4688 94.6714 33.3416 94.25 34.1541C93.7535 35.1072 92.9459 35.4081 91.9327 35.3429C91.0298 35.2877 90.2574 34.736 89.9765 33.8983C89.4599 32.3484 89.4498 30.7885 89.9665 29.2386C90.2674 28.3307 91.0148 27.804 92.0531 27.7388C93.0613 27.6786 93.8337 28.12 94.2701 28.9778C94.6814 29.8004 94.7717 30.6731 94.7466 31.571ZM90.6938 31.5258C90.7088 32.1628 90.6888 32.7999 90.9345 33.4168C91.1853 34.0488 91.5866 34.3598 92.2537 34.3397C92.8506 34.3197 93.3121 33.9284 93.4726 33.3215C93.7785 32.1528 93.7785 30.9841 93.4776 29.8154C93.3121 29.1784 92.8757 28.8122 92.2337 28.7872C91.5615 28.7621 91.1853 29.063 90.9295 29.7201C90.6938 30.307 90.7038 30.9139 90.6938 31.5258Z" fill="#CC0A0A"/>
    <path d="M60.4323 6.89286C60.4323 7.97629 60.4223 9.06473 60.4374 10.1482C60.4424 10.4842 60.337 10.6096 60.006 10.5695C59.8957 10.5544 59.7803 10.5595 59.6699 10.5695C59.4091 10.5896 59.3389 10.4742 59.3439 10.2234C59.3589 9.37572 59.3339 8.52804 59.3539 7.68035C59.364 7.35934 59.2436 7.27406 58.9426 7.28409C58.3859 7.30416 57.8291 7.30416 57.2723 7.28409C56.9614 7.27406 56.856 7.39444 56.861 7.70041C56.8761 8.50797 56.856 9.31553 56.8761 10.1231C56.8861 10.4591 56.7958 10.6247 56.4347 10.5745C56.3394 10.5595 56.2391 10.5645 56.1438 10.5745C55.8829 10.5996 55.8077 10.4792 55.8127 10.2334C55.8228 9.34562 55.8177 8.45279 55.8177 7.56498C55.8177 6.25584 55.8278 4.95171 55.8127 3.64257C55.8077 3.34161 55.8829 3.19615 56.204 3.23628C56.2993 3.25133 56.3996 3.24631 56.4949 3.23628C56.7758 3.20619 56.8861 3.3065 56.8761 3.60745C56.856 4.35983 56.8811 5.11222 56.861 5.85959C56.851 6.19565 56.9714 6.29597 57.2974 6.28594C57.8542 6.26587 58.4109 6.26587 58.9677 6.28594C59.2536 6.29597 59.359 6.2107 59.3489 5.90975C59.3289 5.14733 59.3539 4.3799 59.3339 3.61247C59.3238 3.32155 59.4091 3.23126 59.705 3.23126C60.4223 3.22625 60.4173 3.2112 60.4173 3.93349C60.4324 4.9166 60.4323 5.90473 60.4323 6.89286Z" fill="#CC0A0A"/>
    <path d="M64.6206 31.5208C64.6206 32.6193 64.6005 33.7228 64.6306 34.8213C64.6456 35.2878 64.3647 35.2025 64.0939 35.2125C63.808 35.2175 63.5471 35.2627 63.5672 34.8112C63.6023 33.9937 63.5672 33.171 63.5823 32.3484C63.5873 32.0375 63.4769 31.9271 63.171 31.9371C62.5991 31.9572 62.0273 31.9572 61.4555 31.9371C61.1546 31.9271 61.0793 32.0425 61.0843 32.3234C61.0994 33.1309 61.0643 33.9385 61.0994 34.746C61.1195 35.1523 60.969 35.2326 60.6079 35.2175C60.016 35.1924 60.016 35.2125 60.016 34.6357C60.016 32.534 60.031 30.4324 60.0059 28.3307C60.0009 27.8542 60.2317 27.8743 60.5677 27.8642C60.9238 27.8542 61.1345 27.8843 61.1094 28.3408C61.0693 29.0881 61.1044 29.8455 61.0944 30.5929C61.0894 30.8387 61.1646 30.944 61.4254 30.939C62.0223 30.9239 62.6242 30.9239 63.2211 30.939C63.492 30.944 63.5923 30.8437 63.5923 30.5728C63.5822 29.8054 63.6124 29.043 63.5772 28.2756C63.5572 27.8241 63.823 27.8693 64.1039 27.8693C64.3848 27.8693 64.6456 27.8091 64.6356 28.2705C64.6005 29.349 64.6206 30.4374 64.6206 31.5208Z" fill="#CC0A0A"/>
    <path d="M77.9073 35.2025C77.5663 35.2025 77.2653 35.2025 76.9644 35.2025C76.8038 35.2025 76.7236 35.1122 76.6684 34.9617C76.3424 34.0639 75.9863 33.1761 75.6803 32.2732C75.59 32.0024 75.4596 31.9271 75.2038 31.9372C74.2106 31.9622 74.326 31.7766 74.316 32.825C74.3109 33.477 74.3009 34.1341 74.321 34.7862C74.331 35.1072 74.2307 35.2276 73.8946 35.2175C73.2426 35.2025 73.2426 35.2226 73.2426 34.5605C73.2426 32.5039 73.2576 30.4424 73.2325 28.3859C73.2275 27.9395 73.388 27.8542 73.7893 27.8592C74.1705 27.8643 74.341 27.9445 74.326 28.3658C74.2959 29.0731 74.326 29.7853 74.316 30.4926C74.3109 30.7935 74.3762 30.944 74.7323 30.939C75.6201 30.929 75.6051 30.939 75.901 30.0712C76.1217 29.4142 76.3725 28.7721 76.6233 28.1251C76.7085 27.9044 77.5612 27.7439 77.7218 27.9144C77.807 28.0047 77.7418 28.095 77.7117 28.1853C77.4409 28.9276 77.2603 29.7151 76.8841 30.3973C76.3875 31.3001 76.7085 32.0575 77.0346 32.8701C77.3305 33.6225 77.6014 34.3899 77.9073 35.2025Z" fill="#CC0A0A"/>
    <path d="M56.028 19.0614C56.9509 19.0614 57.3873 18.5598 57.1817 17.7372C57.0613 17.2607 56.7202 16.9698 56.2387 16.9346C55.7822 16.8995 55.3057 17.1754 55.1151 17.5817C55.0599 17.6971 55.1001 17.8826 54.8944 17.8776C54.6185 17.8726 54.3376 17.8877 54.0668 17.8425C53.9314 17.8174 54.0116 17.6569 54.0317 17.5516C54.3025 16.2826 55.5515 15.6004 56.8707 15.9967C58.1246 16.3729 58.6664 17.5767 58.1297 18.7654C58.0394 18.9661 57.8889 19.1015 57.7485 19.252C57.603 19.4075 57.5779 19.5329 57.7735 19.6583C58.6513 20.215 58.7466 21.459 58.3253 22.3568C57.9591 23.1393 56.9359 23.6359 55.9277 23.5255C54.749 23.3951 53.9966 22.7731 53.7508 21.7298C53.6956 21.4991 53.7307 21.3787 53.9966 21.3988C54.147 21.4088 54.3025 21.4088 54.458 21.3988C54.6737 21.3887 54.784 21.4439 54.8743 21.6797C55.1402 22.3769 56.0932 22.6879 56.8155 22.3518C57.3974 22.0809 57.6481 21.2684 57.3321 20.6213C57.1967 20.3505 56.961 20.1649 56.65 20.1348C56.334 20.1047 56.0129 20.0946 55.6919 20.0946C55.4461 20.0946 55.3258 20.0144 55.3609 19.7536C55.3709 19.6833 55.3709 19.6131 55.3609 19.5479C55.2957 19.1717 55.4411 19.0012 55.8324 19.0614C55.8876 19.0714 55.9578 19.0614 56.028 19.0614Z" fill="#CC0A0A"/>
    <path d="M50.2495 6.88284C50.2495 5.79941 50.2545 4.71097 50.2444 3.62754C50.2394 3.35668 50.2946 3.22626 50.6056 3.22626C51.7342 3.24131 52.8627 3.24633 53.9913 3.22125C54.4026 3.21122 54.3575 3.45198 54.3474 3.70277C54.3374 3.94855 54.4528 4.24951 53.9963 4.23947C53.2289 4.21941 52.4615 4.24449 51.6991 4.22944C51.4232 4.22442 51.2928 4.29465 51.3128 4.60062C51.3379 5.04703 51.3279 5.49344 51.3128 5.93484C51.3028 6.19065 51.4031 6.27592 51.6539 6.27091C52.1705 6.25586 52.6872 6.28094 53.1988 6.26087C53.4847 6.25084 53.59 6.33611 53.575 6.63204C53.5449 7.35935 53.6553 7.25401 52.958 7.25903C52.5267 7.26404 52.0953 7.27408 51.6639 7.25401C51.3881 7.24398 51.3028 7.34931 51.3128 7.62017C51.3329 8.14684 51.3329 8.67852 51.3128 9.20519C51.3028 9.4911 51.4131 9.56132 51.679 9.5563C52.4464 9.54125 53.2138 9.57637 53.9763 9.54125C54.4227 9.52119 54.3474 9.79707 54.3524 10.0529C54.3575 10.3187 54.4076 10.5745 53.9712 10.5595C52.8577 10.5344 51.7392 10.5444 50.6257 10.5545C50.3247 10.5595 50.2444 10.4441 50.2495 10.1632C50.2545 9.08481 50.2495 7.98131 50.2495 6.88284Z" fill="#CC0A0A"/>
    <path d="M62.2837 6.86779C62.2837 5.79439 62.2987 4.72601 62.2736 3.65261C62.2686 3.32157 62.3639 3.18613 62.69 3.23127C62.7702 3.24131 62.8605 3.24131 62.9407 3.23127C63.2567 3.19115 63.3771 3.31153 63.3621 3.64759C63.337 4.29966 63.3821 4.95674 63.342 5.6088C63.3169 6.03014 63.4724 6.12544 63.8637 6.11039C64.4305 6.09033 65.0023 6.06525 65.559 6.26588C66.3164 6.54176 66.7829 7.04334 66.9033 7.85592C67.134 9.40582 66.3315 10.4491 64.7716 10.5444C64.0643 10.5896 63.3521 10.5545 62.6398 10.5695C62.3689 10.5745 62.2736 10.4742 62.2786 10.2034C62.2937 9.09484 62.2837 7.98131 62.2837 6.86779ZM63.3571 8.33744C63.3571 9.6817 63.3571 9.6817 64.7114 9.54627C64.7515 9.54126 64.7966 9.54126 64.8368 9.53123C65.3935 9.44596 65.8098 9.04468 65.865 8.53808C65.9352 7.881 65.6844 7.44963 65.1126 7.20887C64.8317 7.09351 64.5408 7.10354 64.2499 7.09852C63.3621 7.08849 63.3621 7.09351 63.3621 7.96125C63.3571 8.08665 63.3571 8.21205 63.3571 8.33744Z" fill="#CC0A0A"/>
    <path d="M53.9661 31.5258C53.9661 30.4424 53.9762 29.354 53.9611 28.2705C53.9561 27.9646 54.0514 27.8492 54.3674 27.8592C55.2 27.8944 56.0377 27.8091 56.8703 27.9244C57.708 28.0398 58.4152 28.6166 58.5807 29.3088C58.8265 30.3371 58.5506 31.2801 57.8334 31.7766C57.3619 32.1027 56.8152 32.198 56.2484 32.198C55.8772 32.198 55.4007 32.0375 55.1599 32.2682C54.8941 32.519 55.0847 33.0055 55.0696 33.3918C55.0496 33.8933 55.0546 34.3949 55.0696 34.8915C55.0746 35.1323 54.9894 35.2125 54.7586 35.2075C53.7856 35.1975 53.9862 35.2727 53.9762 34.4852C53.9561 33.5021 53.9661 32.514 53.9661 31.5258ZM55.0596 30.0361C55.0596 30.3421 55.0596 30.6481 55.0596 30.954C55.0596 31.0995 55.0947 31.1998 55.2703 31.1948C55.7418 31.1848 56.2183 31.2399 56.6898 31.1497C57.2867 31.0343 57.6077 30.6079 57.5876 29.986C57.5725 29.4041 57.2064 28.9978 56.6195 28.9226C56.4139 28.8925 56.2032 28.8875 55.9925 28.8875C55.0596 28.8775 55.0596 28.8775 55.0596 29.7904C55.0596 29.8656 55.0596 29.9509 55.0596 30.0361Z" fill="#CC0A0A"/>
    <path d="M79.1716 31.5058C79.1716 30.4374 79.1816 29.364 79.1666 28.2956C79.1616 27.9847 79.2268 27.8543 79.5729 27.8593C80.6714 27.8793 81.7748 27.8843 82.8733 27.8593C83.3047 27.8492 83.2947 28.075 83.2947 28.3759C83.2947 28.6869 83.2946 28.9076 82.8683 28.8875C82.1309 28.8574 81.3936 28.8875 80.6563 28.8725C80.3553 28.8675 80.2199 28.9578 80.2349 29.2738C80.255 29.6901 80.255 30.1064 80.2349 30.5227C80.2199 30.8387 80.3553 30.934 80.6563 30.919C81.1428 30.8989 81.6294 30.929 82.1159 30.9089C82.5774 30.8889 82.4369 31.2149 82.452 31.4506C82.467 31.6914 82.5021 31.9272 82.1159 31.9071C81.6143 31.882 81.1127 31.9121 80.6111 31.8971C80.3553 31.892 80.2199 31.9623 80.23 32.2432C80.245 32.7849 80.24 33.3266 80.23 33.8683C80.2249 34.1291 80.3353 34.2044 80.581 34.1993C81.3585 34.1893 82.141 34.2144 82.9185 34.1893C83.3649 34.1743 83.2746 34.4652 83.2796 34.716C83.2846 34.9668 83.3348 35.2075 82.9185 35.1975C81.7899 35.1724 80.6613 35.1774 79.5378 35.1975C79.2067 35.2025 79.1515 35.0771 79.1565 34.7812C79.1816 33.7028 79.1716 32.6043 79.1716 31.5058Z" fill="#CC0A0A"/>
    <path d="M48.8013 19.7235C48.8013 18.625 48.8113 17.5265 48.7963 16.4281C48.7913 16.1522 48.8515 16.0368 49.1624 16.0418C50.291 16.0569 51.4196 16.0669 52.5482 16.0418C52.9946 16.0318 52.9043 16.3027 52.9143 16.5585C52.9243 16.8343 52.9444 17.0701 52.5231 17.055C51.7607 17.0249 50.9932 17.055 50.2258 17.04C49.9349 17.035 49.8295 17.1403 49.8396 17.4312C49.8546 17.8626 49.8546 18.294 49.8396 18.7253C49.8295 19.0012 49.9449 19.0915 50.2108 19.0865C50.7123 19.0714 51.2139 19.0915 51.7155 19.0764C51.9713 19.0664 52.0867 19.1316 52.0917 19.4225C52.0967 20.0846 52.1118 20.0846 51.4497 20.0846C51.0434 20.0846 50.6421 20.0947 50.2358 20.0846C49.965 20.0796 49.8245 20.1599 49.8396 20.4658C49.8596 20.9925 49.8546 21.5242 49.8396 22.0509C49.8346 22.3267 49.9499 22.417 50.2108 22.412C50.9882 22.402 51.7707 22.427 52.5482 22.402C53.0397 22.3869 52.8792 22.728 52.9043 22.9688C52.9294 23.2346 52.9043 23.4152 52.5431 23.4051C51.3995 23.3851 50.2609 23.3901 49.1173 23.4051C48.8515 23.4102 48.7863 23.3098 48.7913 23.0641C48.8063 21.9505 48.8013 20.837 48.8013 19.7235Z" fill="#CC0A0A"/>
    <path d="M48.4501 27.8693C48.7761 27.7991 49.0169 27.9245 49.1724 28.3257C49.4282 28.9929 49.7643 29.6349 50.0552 30.292C50.1405 30.4876 50.2257 30.628 50.4715 30.623C50.7223 30.618 50.7775 30.4675 50.8527 30.2669C51.1186 29.5546 51.4095 28.8524 51.7054 28.1502C51.8058 27.9094 52.6233 27.7238 52.7989 27.9044C52.9243 28.0398 52.8089 28.1903 52.7588 28.3257C52.3625 29.344 51.9612 30.3572 51.56 31.3704C51.0835 32.5642 50.607 33.758 50.1254 34.9517C50.0402 35.1624 49.1774 35.3279 49.0269 35.1674C48.9567 35.0922 49.0119 35.0119 49.042 34.9367C49.2276 34.4451 49.3429 33.9134 49.6088 33.472C50.01 32.7949 49.8044 32.2331 49.5035 31.6112C48.9467 30.4525 48.4401 29.2738 47.8984 28.1101C47.7981 27.8894 47.8833 27.8693 48.0539 27.8643C48.1592 27.8643 48.2695 27.8693 48.4501 27.8693Z" fill="#CC0A0A"/>
    <path d="M44.2909 32.0375C44.2909 31.1045 44.2808 30.1716 44.2959 29.2386C44.3009 28.9627 44.2056 28.8674 43.9348 28.8775C43.5736 28.8925 43.2074 28.8725 42.8463 28.8825C42.6206 28.8875 42.5002 28.8223 42.5253 28.5765C42.5353 28.4662 42.5403 28.3508 42.5253 28.2405C42.4902 27.9445 42.6156 27.8593 42.9015 27.8593C44.1855 27.8693 45.4646 27.8793 46.7487 27.8593C47.2252 27.8492 47.1098 28.1502 47.1249 28.416C47.1399 28.6869 47.1399 28.9176 46.7487 28.8875C46.4176 28.8574 46.0765 28.8975 45.7455 28.8775C45.3843 28.8524 45.3392 29.043 45.3392 29.3389C45.3442 31.1196 45.3442 32.9002 45.3392 34.6859C45.3392 34.8564 45.4345 35.1072 45.2339 35.1724C44.963 35.2627 44.652 35.2476 44.3711 35.1724C44.2307 35.1373 44.2909 34.9517 44.2909 34.8363C44.2909 33.9034 44.2909 32.9704 44.2909 32.0375Z" fill="#CC0A0A"/>
    <path d="M86.9801 32.0926C86.9801 32.9855 86.9601 33.8733 86.9902 34.7661C87.0052 35.1523 86.8698 35.2677 86.5187 35.2125C86.4635 35.2025 86.4083 35.2025 86.3531 35.2125C86.0371 35.2577 85.9218 35.1423 85.9268 34.8012C85.9469 33.6325 85.9368 32.4638 85.9368 31.2951C85.9368 30.6129 85.9268 29.9308 85.9418 29.2486C85.9469 28.9728 85.8516 28.8724 85.5807 28.8825C85.2196 28.8925 84.8534 28.8775 84.4923 28.8875C84.2666 28.8925 84.1462 28.8273 84.1662 28.5815C84.1763 28.431 84.1712 28.2755 84.1662 28.1201C84.1612 27.9445 84.2415 27.8693 84.417 27.8693C85.7813 27.8693 87.1507 27.8693 88.515 27.8693C88.6604 27.8693 88.7407 27.9244 88.7708 28.0799C88.8912 28.727 88.7758 28.8775 88.1388 28.8775C87.888 28.8775 87.6372 28.8925 87.3864 28.8724C87.0754 28.8524 86.9701 28.9828 86.9751 29.2888C86.9902 30.2267 86.9801 31.1597 86.9801 32.0926Z" fill="#CC0A0A"/>
    <path d="M4.56096 33.1911C4.80172 33.141 5.11772 33.3065 5.35848 32.9804C5.45378 32.8551 5.72965 32.9253 5.92026 32.9554C5.95537 32.9604 6.00051 33.0306 6.01054 33.0757C6.02559 33.166 5.98044 33.2563 5.88514 33.2563C5.56413 33.2714 5.60426 33.4971 5.60927 33.7027C5.60927 33.8432 5.60927 33.9786 5.60927 34.119C5.60426 34.3147 5.57917 34.5203 5.8701 34.5404C5.96038 34.5454 6.02058 34.6106 6.01556 34.7109C6.00553 34.8112 5.93531 34.8564 5.84502 34.8514C5.63435 34.8413 5.4287 34.9065 5.22806 34.7159C4.92711 34.435 4.51582 34.43 4.12458 34.4451C3.85874 34.4551 3.72832 34.3749 3.76343 34.094C3.76845 34.0388 3.76343 33.9836 3.76343 33.9284C3.77848 33.0507 3.67315 33.2062 4.56096 33.1911ZM4.65626 33.5573C4.45563 33.6175 4.04433 33.3767 4.09448 33.9134C4.10953 34.0438 4.15969 34.1341 4.29512 34.119C4.61613 34.0839 4.9221 34.3147 5.24813 34.1642C5.26819 34.1542 5.26819 34.089 5.2732 34.0488C5.34343 33.6175 5.27321 33.5573 4.65626 33.5573Z" fill="#CC0A0A"/>
    <path d="M4.68176 4.67583C4.64163 4.67583 4.59649 4.67583 4.55636 4.67583C3.68861 4.67583 3.68862 4.67583 3.7789 3.78802C3.82405 3.32154 4.03471 3.16605 4.4761 3.31653C4.63661 3.3717 4.73192 3.32154 4.85732 3.26637C5.18836 3.12091 5.4191 3.22122 5.54951 3.55729C5.66488 3.85323 5.6097 4.15919 5.6097 4.46516C5.6097 4.63069 5.47929 4.66579 5.34888 4.66579C5.12818 4.67081 4.90246 4.66579 4.68176 4.66579C4.68176 4.67081 4.68176 4.67081 4.68176 4.67583ZM5.29872 4.08396C5.28367 3.80808 5.2937 3.57233 5.02785 3.57735C4.79712 3.58236 4.79712 3.80808 4.78709 3.98865C4.77705 4.16923 4.80213 4.32472 5.03788 4.32472C5.26861 4.32973 5.30875 4.18929 5.29872 4.08396ZM4.49617 3.91341C4.49116 3.85322 4.50119 3.62751 4.26545 3.62751C4.05478 3.62751 4.05979 3.84319 4.04475 4.0037C4.03471 4.16421 4.04976 4.31469 4.26545 4.32472C4.4711 4.32973 4.51624 4.19932 4.49617 3.91341Z" fill="#CC0A0A"/>
    <path d="M4.39524 12.9922C4.7313 13.1778 5.06738 13.3734 5.40846 13.5539C5.56395 13.6342 5.64922 13.7446 5.61411 13.9201C5.57398 14.1258 5.40846 14.1107 5.25297 14.1107C4.84668 14.1107 4.4454 14.1107 4.03912 14.1107C3.90369 14.1107 3.77328 14.0906 3.78832 13.9151C3.79835 13.7496 3.94381 13.7897 4.04914 13.7847C4.28489 13.7797 4.52064 13.7847 4.76141 13.7847C4.82661 13.7847 4.91187 13.7947 4.92692 13.7044C4.94197 13.6292 4.88178 13.579 4.81657 13.5489C4.54571 13.4085 4.2849 13.253 4.00902 13.1276C3.80839 13.0323 3.75822 12.8868 3.7833 12.6912C3.8134 12.4454 4.01403 12.5357 4.14445 12.5357C4.54572 12.5257 4.95201 12.5307 5.3583 12.5357C5.46363 12.5357 5.60909 12.5207 5.60407 12.6862C5.59905 12.8266 5.4837 12.8567 5.36332 12.8567C5.05233 12.8567 4.74134 12.8567 4.43036 12.8567C4.41029 12.9019 4.40026 12.947 4.39524 12.9922Z" fill="#CC0A0A"/>
    <path d="M4.64939 26.9062C3.74653 26.9062 3.74652 26.9062 3.76659 25.9933C3.76659 25.9231 3.76659 25.8529 3.77161 25.7827C3.78164 25.6824 3.79167 25.582 3.93212 25.5921C4.05752 25.6021 4.09262 25.6924 4.09764 25.7977C4.10265 25.9783 4.09262 26.1589 4.09764 26.3394C4.10265 26.4548 4.12773 26.5702 4.28322 26.5551C4.41865 26.5451 4.42869 26.4398 4.43371 26.3444C4.44374 26.1639 4.42869 25.9833 4.49892 25.8078C4.58419 25.582 4.72463 25.4316 4.98044 25.4165C5.25129 25.4015 5.42685 25.5319 5.52717 25.7777C5.65758 26.0886 5.60743 26.4097 5.5974 26.7257C5.59238 26.8912 5.4469 26.9012 5.31649 26.9012C5.09579 26.9062 4.8751 26.9062 4.64939 26.9062ZM5.28139 26.2742C5.27136 26.0836 5.30145 25.8529 5.04062 25.8178C4.79986 25.7877 4.74971 25.9833 4.74469 26.1739C4.73967 26.3495 4.70456 26.5501 4.98044 26.5651C5.20114 26.5802 5.29142 26.4799 5.28139 26.2742Z" fill="#CC0A0A"/>
    <path d="M4.66595 25.0403C3.75807 25.0403 3.75306 25.0403 3.77312 24.1425C3.77814 23.987 3.66277 23.7111 3.92359 23.7061C4.17438 23.7061 4.07407 23.9769 4.09915 24.1425C4.10417 24.1675 4.09413 24.1976 4.09915 24.2277C4.13426 24.3832 3.98378 24.639 4.26969 24.6591C4.58067 24.6792 4.48036 24.4033 4.50543 24.2328C4.52048 24.1174 4.47033 23.9418 4.6509 23.9418C4.83147 23.9418 4.78633 24.1124 4.79636 24.2277C4.80138 24.308 4.79636 24.3933 4.80639 24.4785C4.82144 24.6089 4.89668 24.6691 5.03211 24.6741C5.18259 24.6741 5.26785 24.6089 5.27286 24.4535C5.27788 24.2578 5.27287 24.0672 5.27788 23.8716C5.27788 23.7663 5.31299 23.671 5.4434 23.686C5.53369 23.6961 5.60391 23.7512 5.60391 23.8465C5.60893 24.1776 5.61897 24.5136 5.59891 24.8447C5.58888 25.0203 5.43839 25.0453 5.28791 25.0503C5.08226 25.0403 4.87661 25.0403 4.66595 25.0403Z" fill="#CC0A0A"/>
    <path d="M4.68042 5.09216C5.23718 5.09216 5.63344 5.45831 5.62842 5.97495C5.62842 6.48155 5.21712 6.86276 4.67039 6.86276C4.11363 6.86276 3.73242 6.4966 3.73242 5.96993C3.73744 5.43324 4.11362 5.08714 4.68042 5.09216ZM4.66035 5.45831C4.2992 5.46333 4.02836 5.69908 4.0434 5.98498C4.05845 6.26587 4.35439 6.50663 4.68544 6.50162C5.02652 6.4966 5.30741 6.25082 5.29737 5.9599C5.29737 5.66396 5.02651 5.4533 4.66035 5.45831Z" fill="#CC0A0A"/>
    <path d="M3.77224 31.9171C3.77224 31.7766 3.77224 31.6412 3.77224 31.5008C3.77224 31.4005 3.7873 31.2901 3.91771 31.2901C4.05314 31.2901 4.10831 31.3854 4.10329 31.5158C4.09828 31.6663 4.09827 31.8218 4.09827 31.9723C4.09827 32.1027 4.10831 32.2331 4.28888 32.2331C4.44437 32.2331 4.48952 32.1378 4.5146 31.9923C4.54469 31.8218 4.39922 31.5108 4.66005 31.5158C4.91084 31.5208 4.7704 31.8318 4.80049 32.0074C4.82557 32.1528 4.88576 32.2381 5.03624 32.2381C5.2118 32.2381 5.28704 32.1528 5.28203 31.9773C5.27701 31.7967 5.27701 31.6161 5.28203 31.4356C5.28704 31.3353 5.30711 31.2299 5.43752 31.2299C5.52781 31.2299 5.60304 31.3052 5.60806 31.3854C5.61809 31.7315 5.6231 32.0776 5.60304 32.4237C5.59301 32.5842 5.44254 32.5892 5.31212 32.5892C4.95098 32.5892 4.58983 32.5641 4.22869 32.5993C3.84748 32.6344 3.72208 32.4839 3.77224 32.1278C3.77726 32.0575 3.76723 31.9873 3.77224 31.9171C3.76723 31.9171 3.76723 31.9171 3.77224 31.9171Z" fill="#CC0A0A"/>
    <path d="M4.65474 10.1432C3.75188 10.1432 3.75187 10.1432 3.76692 9.24533C3.76692 9.17511 3.76692 9.10488 3.77194 9.03968C3.78197 8.94437 3.78197 8.82399 3.9174 8.82901C4.05283 8.82901 4.10299 8.93435 4.10299 9.05974C4.10299 9.22527 4.09295 9.39079 4.09797 9.56133C4.10298 9.67168 4.09797 9.79206 4.25848 9.80209C4.41899 9.81212 4.46412 9.72184 4.50425 9.58139C4.55441 9.40584 4.36883 9.07479 4.66978 9.0798C4.91055 9.08482 4.76006 9.40082 4.80019 9.57638C4.8353 9.71682 4.88045 9.80711 5.04095 9.80209C5.19645 9.80209 5.26666 9.72184 5.27168 9.57136C5.2767 9.37574 5.27671 9.18514 5.28172 8.98952C5.28674 8.90425 5.29677 8.81898 5.40712 8.80393C5.5275 8.7939 5.59771 8.85911 5.60273 8.96945C5.61276 9.3005 5.61276 9.63657 5.60273 9.96762C5.59771 10.1382 5.45225 10.1432 5.32184 10.1432C5.10114 10.1432 4.88045 10.1382 4.65474 10.1432Z" fill="#CC0A0A"/>
    <path d="M4.67967 12.0341C4.45897 12.0341 4.23327 12.0341 4.01257 12.0341C3.89219 12.0341 3.78183 12.0241 3.78183 11.8686C3.77681 11.7031 3.88215 11.6579 4.02761 11.663C4.08279 11.668 4.13796 11.663 4.19313 11.663C4.31853 11.6579 4.45396 11.668 4.47904 11.4974C4.50412 11.347 4.44894 11.2216 4.31853 11.1413C4.16304 11.051 3.99751 10.9758 3.84703 10.8805C3.75173 10.8203 3.75174 10.7049 3.80691 10.6197C3.87212 10.5143 3.96742 10.5996 4.02259 10.6347C4.46399 10.9658 4.89536 10.8905 5.32673 10.6146C5.41701 10.5544 5.53739 10.4792 5.60259 10.6297C5.65275 10.745 5.5725 10.8403 5.46215 10.8955C5.31167 10.9708 5.17123 11.051 5.02075 11.1212C4.86024 11.1965 4.79504 11.3219 4.82012 11.4924C4.8452 11.6931 5.01072 11.6579 5.14615 11.663C5.23142 11.668 5.31167 11.663 5.39694 11.668C5.52234 11.678 5.61263 11.7432 5.60761 11.8736C5.6026 11.999 5.50227 12.0291 5.39694 12.0291C5.15116 12.0341 4.91542 12.0341 4.67967 12.0341Z" fill="#CC0A0A"/>
    <path d="M4.64622 28.8022C4.42552 28.8022 4.19982 28.8022 3.97912 28.8022C3.83867 28.8022 3.77848 28.727 3.78349 28.5916C3.78851 28.4662 3.87378 28.416 3.97912 28.4361C4.40547 28.5063 4.4155 28.2505 4.40045 27.9395C4.3854 27.6085 4.53588 27.3727 4.88699 27.3226C5.25315 27.2674 5.46883 27.448 5.56914 27.789C5.64438 28.0499 5.61429 28.3157 5.60426 28.5765C5.59924 28.7521 5.47385 28.8022 5.31334 28.8022C5.09265 28.8022 4.86692 28.8073 4.64622 28.8022C4.64622 28.8073 4.64622 28.8022 4.64622 28.8022ZM5.28826 28.1903C5.26819 27.9094 5.23811 27.6837 4.98731 27.6887C4.71144 27.6937 4.69137 27.9295 4.67632 28.1452C4.66629 28.3608 4.77162 28.4361 4.97727 28.4411C5.22807 28.4461 5.31333 28.3358 5.28826 28.1903Z" fill="#CC0A0A"/>
    <path d="M4.69553 16.1472C4.47483 16.1472 4.24912 16.1472 4.02842 16.1472C3.91807 16.1472 3.79769 16.1573 3.78765 15.9917C3.77762 15.8011 3.90803 15.7861 4.03845 15.8062C4.42969 15.8613 4.50995 15.6607 4.49991 15.3196C4.48988 15.0387 4.40461 14.9083 4.10868 14.9234C3.9883 14.9284 3.79267 14.9886 3.78765 14.7729C3.78765 14.5321 3.99331 14.5923 4.13375 14.5923C4.52499 14.5873 4.9112 14.5873 5.30244 14.5923C5.42784 14.5923 5.58836 14.5923 5.59839 14.7528C5.61344 14.9635 5.41782 14.9384 5.29744 14.9284C4.94633 14.8983 4.79082 15.0136 4.80086 15.3949C4.81089 15.7209 4.91623 15.8513 5.24728 15.8162C5.3827 15.8011 5.60341 15.756 5.59839 15.9867C5.59839 16.2175 5.3827 16.1472 5.24226 16.1573C5.06168 16.1523 4.8761 16.1472 4.69553 16.1472Z" fill="#CC0A0A"/>
    <path d="M4.68706 30.8336C4.46636 30.8336 4.24064 30.8336 4.01994 30.8336C3.90457 30.8336 3.7842 30.8286 3.78921 30.6681C3.79423 30.5177 3.89956 30.4876 4.01994 30.4876C4.28578 30.4926 4.51652 30.4926 4.50148 30.1063C4.49144 29.7853 4.43125 29.5947 4.06008 29.6399C3.93468 29.6549 3.79423 29.6499 3.78921 29.4693C3.7842 29.2737 3.94471 29.3038 4.06008 29.3038C4.47639 29.2988 4.89773 29.2988 5.31405 29.3038C5.42941 29.3038 5.60496 29.2787 5.60496 29.4543C5.60496 29.6399 5.43944 29.6499 5.29398 29.6399C5.02312 29.6248 4.7974 29.6248 4.80242 30.011C4.80743 30.327 4.8576 30.5277 5.23379 30.4876C5.37925 30.4725 5.58991 30.4625 5.58991 30.6681C5.58991 30.8938 5.36921 30.8236 5.22877 30.8286C5.0482 30.8437 4.86763 30.8336 4.68706 30.8336Z" fill="#CC0A0A"/>
    <path d="M5.63279 22.6177C5.64783 22.8384 5.56257 23.034 5.40708 23.2045C5.32683 23.2948 5.22149 23.3701 5.12117 23.2998C5.01082 23.2246 5.066 23.1042 5.12117 22.9989C5.18638 22.8785 5.30174 22.7882 5.30174 22.6327C5.30675 22.4471 5.26161 22.2866 5.06599 22.2465C4.8804 22.2114 4.85031 22.3819 4.80517 22.5123C4.77006 22.6177 4.82021 22.7982 4.62961 22.7882C4.47913 22.7782 4.51927 22.6227 4.48416 22.5224C4.44403 22.402 4.39387 22.2666 4.22835 22.3117C4.06784 22.3568 4.03272 22.4973 4.05279 22.6428C4.06282 22.723 4.10295 22.8033 4.14809 22.8685C4.23336 22.9989 4.34371 23.1694 4.16314 23.2547C4.02269 23.3199 3.90232 23.1443 3.82708 23.0039C3.64651 22.6678 3.71171 22.0659 4.00263 21.9957C4.40891 21.8954 4.85533 21.8603 5.26162 21.9205C5.54251 21.9706 5.64282 22.3017 5.63279 22.6177Z" fill="#CC0A0A"/>
    <path d="M4.68522 18.0432C4.64509 18.0432 4.59995 18.0482 4.55982 18.0432C4.30903 18.003 3.93786 18.1836 3.82751 17.9429C3.68706 17.6319 3.72217 17.2356 3.84256 16.8845C3.93786 16.6036 4.17862 16.5284 4.44947 16.5685C4.70528 16.6086 4.90089 16.7591 4.89588 17.03C4.89086 17.4212 4.89588 17.7623 5.44261 17.677C5.54293 17.662 5.61817 17.7573 5.60312 17.8726C5.58807 17.988 5.49779 18.0331 5.39246 18.0331C5.15671 18.0382 4.92097 18.0382 4.68522 18.0432C4.68522 18.0382 4.68522 18.0382 4.68522 18.0432ZM4.08331 17.2858C4.09334 17.4714 4.05322 17.672 4.33912 17.667C4.51468 17.662 4.63506 17.6218 4.63506 17.4112C4.63506 17.1905 4.62502 16.9597 4.3642 16.9196C4.09334 16.8795 4.12344 17.1303 4.08331 17.2858Z" fill="#CC0A0A"/>
    <path d="M5.63413 35.6439C5.55889 35.679 5.52379 35.6991 5.48366 35.7141C5.36829 35.7492 5.1827 35.5987 5.14759 35.8245C5.11248 36.0151 5.273 36.0401 5.40842 36.0803C5.48366 36.1003 5.59401 36.1003 5.58899 36.2107C5.57896 36.311 5.48867 36.326 5.39838 36.321C5.28803 36.311 5.18772 36.2959 5.1175 36.4314C5.07737 36.5116 4.96201 36.5217 4.91686 36.4213C4.78143 36.1003 4.64099 36.1154 4.46042 36.3862C4.41527 36.4514 4.34004 36.4264 4.2949 36.3461C4.25477 36.2759 4.22468 36.1956 4.1695 36.1404C4.0742 36.0502 3.83344 36.1354 3.84347 35.9549C3.8535 35.7342 4.07419 35.9147 4.17451 35.8395C4.21463 35.8094 4.24975 35.7592 4.25978 35.7141C4.27483 35.6088 4.17954 35.5887 4.10931 35.5436C4.01401 35.4834 3.81337 35.5235 3.83343 35.353C3.85349 35.1925 4.03407 35.3128 4.10429 35.2627C4.31496 35.1272 4.49051 35.057 4.63095 35.3429C4.64099 35.363 4.71121 35.368 4.74633 35.363C5.03725 35.3279 5.29305 35.4031 5.63413 35.6439Z" fill="#CC0A0A"/>
    <path d="M3.77371 7.79577C3.77371 7.63024 3.7687 7.46472 3.77371 7.29418C3.77873 7.19888 3.77872 7.0785 3.90914 7.07348C4.0245 7.06345 4.09974 7.15875 4.0847 7.26409C4.03454 7.65031 4.27029 7.65533 4.54114 7.64028C4.79194 7.63025 5.04273 7.63526 5.29352 7.64028C5.43397 7.64028 5.60953 7.63526 5.5995 7.83088C5.58947 8.01146 5.42394 8.01145 5.27848 8.01145C5.06781 8.01145 4.86216 8.01145 4.65149 8.01145C4.36559 8.01145 4.03955 7.93621 4.06463 8.40771C4.06964 8.49298 3.9894 8.55818 3.88908 8.53812C3.80883 8.52307 3.77873 8.45285 3.77873 8.38263C3.77372 8.18701 3.77873 7.9964 3.77873 7.80078C3.77372 7.79577 3.77371 7.79577 3.77371 7.79577Z" fill="#CC0A0A"/>
    <path d="M5.61343 19.3925C5.6034 19.5078 5.5131 19.573 5.4479 19.5229C4.99145 19.1617 4.68046 19.568 4.3143 19.7085C4.14376 19.7737 3.92307 20.0295 3.81773 19.8439C3.65723 19.563 4.03341 19.5379 4.18891 19.4125C4.29925 19.3222 4.535 19.3423 4.51995 19.1517C4.50491 18.9912 4.29927 18.9761 4.16885 18.9059C4.08358 18.8608 3.98828 18.8307 3.90301 18.7805C3.79768 18.7203 3.73247 18.615 3.78764 18.4996C3.87291 18.3291 3.97323 18.4695 4.0585 18.5097C4.48485 18.7053 4.9112 18.9059 5.33755 19.1116C5.46294 19.1718 5.59336 19.237 5.61343 19.3925Z" fill="#CC0A0A"/>
    <path d="M3.77371 20.8921C3.77371 20.7116 3.7687 20.531 3.77371 20.3504C3.77873 20.2501 3.8038 20.1498 3.93923 20.1648C4.03955 20.1749 4.09474 20.2401 4.07969 20.3354C4.02452 20.7266 4.28032 20.7166 4.54616 20.7116C4.82204 20.7065 5.10293 20.7066 5.3788 20.7216C5.49417 20.7266 5.60953 20.7818 5.59448 20.9222C5.58445 21.0426 5.4741 21.0627 5.37378 21.0627C5.08286 21.0677 4.79194 21.0777 4.50102 21.0627C4.24521 21.0526 4.05963 21.0878 4.07969 21.4088C4.08972 21.5241 4.04457 21.6445 3.89409 21.6245C3.76368 21.6094 3.77873 21.484 3.77371 21.3937C3.7687 21.2282 3.77371 21.0577 3.77371 20.8921Z" fill="#CC0A0A"/>
</svg>
