<svg width="55" height="53" viewBox="0 0 55 53" fill="none" xmlns="http://www.w3.org/2000/svg">
<path fill-rule="evenodd" clip-rule="evenodd" d="M30.2246 4.82639C29.7075 5.0273 29.4173 5.31253 29.2555 5.77897L29.1124 6.1915L21.7166 4.53886L14.3208 2.88623L14.3793 2.62455C14.4478 2.31791 14.2457 1.76687 13.9342 1.41184C13.7385 1.18862 13.5622 1.12379 12.3265 0.819937C11.0619 0.509034 10.8981 0.488043 10.4821 0.583223C9.68931 0.764725 9.56401 0.968607 9.17513 2.71112C8.87475 4.05667 8.85217 4.25056 8.95965 4.55983C9.08391 4.91706 9.62144 5.39458 9.99847 5.48268L10.2077 5.53155L8.66235 12.4472L7.11702 19.3628L6.63704 19.3195C6.05126 19.2667 5.46424 19.5479 5.20582 20.0051C5.10052 20.1913 4.91965 20.8659 4.75874 21.6718C4.52017 22.8673 4.50443 23.0603 4.62419 23.3217C4.84094 23.7947 5.13016 24.067 5.57997 24.2212L5.99924 24.365L4.45393 31.2805L2.90863 38.1961L2.69852 38.1512C2.31985 38.0705 1.63018 38.2738 1.36568 38.5441C1.13653 38.7785 1.07477 38.9629 0.771614 40.3196C0.468457 41.6763 0.44583 41.8695 0.553439 42.1791C0.760345 42.7741 1.18697 43.009 2.66683 43.342C3.54457 43.5396 4.0557 43.613 4.28281 43.5739C4.73784 43.4955 5.22266 43.1095 5.38945 42.6928L5.5284 42.3459L12.9244 43.9986L20.3204 45.6512L20.2551 45.9434C20.1506 46.4113 20.3535 47.0419 20.7105 47.3584C20.9981 47.6134 21.1606 47.6694 22.4467 47.9568C23.7329 48.2442 23.9037 48.2627 24.2726 48.1544C24.7303 48.0199 25.1824 47.5357 25.2869 47.0678L25.3522 46.7756L32.7956 48.4389L40.2392 50.1022L40.253 50.5572C40.2714 51.1585 40.6371 51.6987 41.1624 51.9003C41.3751 51.9819 42.1028 52.158 42.7796 52.2915C44.1144 52.555 44.296 52.5348 44.8571 52.0607C45.0767 51.8752 45.1446 51.6939 45.4376 50.5106C45.635 49.7128 45.7585 49.0254 45.7425 48.8121C45.7033 48.2883 45.2918 47.784 44.7392 47.5824L44.2865 47.4173L45.8291 40.5136L47.3718 33.6099L47.8124 33.6583C48.2851 33.7102 48.6627 33.5869 49.0602 33.2511C49.2798 33.0656 49.3477 32.8843 49.6407 31.7009C49.8381 30.9032 49.9616 30.2158 49.9456 30.0025C49.9064 29.4787 49.4949 28.9744 48.9424 28.7728L48.4896 28.6077L50.0323 21.704L51.5749 14.8003L52.0155 14.8487C52.4884 14.9006 52.8662 14.7772 53.2634 14.4411C53.4916 14.248 53.5407 14.103 53.8577 12.6843C54.1747 11.2656 54.1921 11.1135 54.0677 10.8416C53.7567 10.1615 53.6202 10.0812 52.1554 9.71768C50.2592 9.24706 49.7144 9.35113 49.2457 10.2733L49.0554 10.6479L41.624 8.98727L34.1927 7.32671L34.2388 6.89252C34.291 6.4016 34.1498 6.01996 33.7674 5.61804C33.5232 5.36146 33.4063 5.3206 32.0421 5.01577C30.678 4.71094 30.5548 4.69816 30.2246 4.82639ZM28.7645 7.87188C28.6662 8.32629 28.8493 8.9933 29.1512 9.28059C29.3901 9.50786 29.5782 9.57031 30.9446 9.87592C32.3452 10.1893 32.5014 10.207 32.84 10.0922C33.2542 9.95186 33.6864 9.45396 33.7922 8.99535L33.8609 8.6976L41.3024 10.3604L48.7439 12.0233L48.6852 12.5291C48.5756 13.4751 48.9253 14.0807 49.7329 14.3431L50.1773 14.4874L48.632 21.4032L47.0866 28.319L46.7802 28.2506C46.327 28.1493 45.5965 28.3649 45.294 28.6892C45.0634 28.9364 44.9976 29.1298 44.716 30.3904C44.453 31.5671 44.4148 31.869 44.4948 32.1396C44.6347 32.6131 45.0152 32.9855 45.5298 33.1527L45.9742 33.2971L44.4288 40.2129L42.8835 47.1286L42.5771 47.0602C42.1399 46.9625 41.393 47.1747 41.1138 47.4759C40.9833 47.6167 40.8014 47.9554 40.7096 48.2285L40.5427 48.725L33.1012 47.0621L25.6597 45.3993L25.7272 45.0976C25.8284 44.6445 25.6028 43.9367 25.2679 43.6571C24.8437 43.3029 22.2587 42.7252 21.7241 42.8652C21.3021 42.9757 20.7966 43.5202 20.6954 43.9732L20.6279 44.2749L13.2312 42.6221L5.83446 40.9692L5.91721 40.4085C6.0487 39.5175 5.69181 38.9417 4.83033 38.6552L4.31209 38.4827L5.85459 31.5798L7.39709 24.6768L7.86066 24.7353C8.39751 24.8031 8.90035 24.628 9.22843 24.2592C9.41604 24.0483 9.50996 23.7589 9.77291 22.5822C10.0546 21.3216 10.0774 21.1187 9.97396 20.7967C9.8383 20.3745 9.26907 19.8685 8.81584 19.7672L8.50946 19.6988L10.0574 12.7713L11.6054 5.84388L11.9953 5.931C12.9139 6.13628 13.7054 5.64014 13.9084 4.73178L14.0133 4.26255L21.4212 5.91788L28.8291 7.57322L28.7645 7.87188ZM17.7435 9.4205C16.3158 9.54433 15.0511 10.4674 14.4774 11.8042C14.3422 12.1191 13.4224 16.1223 11.8372 23.2942L9.40448 34.301L9.50267 34.8527C9.7041 35.9841 10.3085 36.9203 11.2641 37.5811L11.7302 37.9034L23.8847 40.6458C31.9585 42.4673 36.1974 43.3902 36.5099 43.3941C37.686 43.4093 39.0066 42.7702 39.7424 41.8297L40.1134 41.3557L42.6865 29.8405L45.2596 18.3254L45.1003 17.6404C44.894 16.7539 44.3701 15.9423 43.6419 15.3814L43.0792 14.9481L30.6903 12.1601C18.9951 9.52822 18.2701 9.37478 17.7435 9.4205ZM40.9499 17.4737C41.5023 17.8076 41.9618 18.5239 42.0286 19.1558C42.0752 19.5947 41.8965 20.4538 40.2121 27.8906L38.3441 36.1385L37.7613 34.6138C36.1405 30.3749 35.7725 29.493 35.5323 29.272C35.0561 28.8337 34.0883 28.7594 33.5915 29.123C33.4888 29.1981 32.2361 30.3858 30.8078 31.7621C29.3796 33.1385 28.1764 34.2908 28.1341 34.3227C28.0917 34.3546 27.0329 31.7237 25.781 28.4762C24.5292 25.2288 23.4042 22.4417 23.2811 22.2828C22.8401 21.7134 22.038 21.5632 21.392 21.9289C21.1751 22.0517 19.3232 23.7596 17.2766 25.7243L13.5556 29.2964L15.2447 21.6095C16.3522 16.5689 16.9915 13.8179 17.1016 13.6185C17.4158 13.0495 18.2619 12.5577 19.0196 12.5037C19.1566 12.494 24.0527 13.5512 29.8999 14.8533C39.5641 17.0053 40.5691 17.2436 40.9499 17.4737ZM30.5344 19.7892C29.1387 19.9408 28.118 20.9268 27.9002 22.3342C27.6694 23.8245 28.536 25.18 30.0096 25.6338C31.2295 26.0095 32.4087 25.6655 33.2208 24.6969C33.6347 24.2033 33.7056 24.06 33.8456 23.4335C33.9855 22.807 33.9824 22.6472 33.818 22.0244C33.4295 20.5526 32.0641 19.6232 30.5344 19.7892Z" fill="black"/>
</svg>
