<svg width="260" height="268" viewBox="0 0 260 268" fill="none" xmlns="http://www.w3.org/2000/svg">
<path fill-rule="evenodd" clip-rule="evenodd" d="M1.81832 33.6203C-0.0382886 35.0811 -0.0349774 35.1896 2.36728 51.5697L4.66603 67.2454L6.05765 68.278C7.40532 69.2772 7.62404 69.2843 12.9077 68.5045L18.3661 67.6988L23.0116 99.1718L27.6572 130.645L22.3308 131.431C17.0573 132.209 16.993 132.232 15.8578 133.759L14.7112 135.3L17.0274 150.993L19.3437 166.685L20.8867 167.829C22.4145 168.963 22.4827 168.966 27.7562 168.188L33.0826 167.402L37.7281 198.875L42.3737 230.348L36.9152 231.153C31.6316 231.933 31.4243 232.003 30.4228 233.349L29.3888 234.74L31.717 250.411C33.4392 262.006 34.2191 266.251 34.7133 266.729C36.2647 268.23 37.2786 268.188 52.046 266.008L66.5432 263.868L67.6707 262.57C68.7794 261.294 68.7865 261.173 68.0972 255.465L67.3957 249.658L97.494 245.216L127.592 240.773L128.411 246.322C129.226 251.842 129.238 251.877 130.773 253.015L132.316 254.16L147.11 251.976L161.903 249.793L163.05 248.251C164.19 246.718 164.192 246.681 163.377 241.161L162.558 235.612L192.656 231.169L222.754 226.727L223.76 232.488C224.75 238.152 224.791 238.266 226.221 239.167L227.676 240.084L242.173 237.944C256.941 235.765 257.923 235.512 258.975 233.627C259.31 233.027 258.83 228.737 257.129 217.139L254.83 201.464L253.439 200.431C252.091 199.432 251.872 199.425 246.589 200.205L241.13 201.01L236.485 169.537L231.839 138.064L237.166 137.278C242.439 136.5 242.503 136.477 243.639 134.95L244.785 133.409L242.469 117.717L240.153 102.024L238.61 100.88C237.082 99.7465 237.014 99.743 231.74 100.521L226.414 101.308L221.768 69.8345L217.123 38.3615L222.581 37.5559C227.865 36.776 228.072 36.7059 229.074 35.36L230.108 33.9694L227.779 18.298C226.057 6.7033 225.277 2.45797 224.783 1.97975C223.232 0.479223 222.218 0.521369 207.45 2.70109L192.953 4.84094L191.826 6.13925C190.717 7.41554 190.71 7.53584 191.399 13.2442L192.101 19.0509L162.002 23.4935L131.905 27.936L131.086 22.3871C130.271 16.8667 130.259 16.8324 128.723 15.6938L127.18 14.5493L112.387 16.7328L97.5932 18.9164L96.4467 20.4579C95.3059 21.9915 95.3043 22.0279 96.1191 27.5483L96.9381 33.0972L66.8403 37.5398L36.742 41.9824L35.736 36.2207C34.7467 30.5566 34.705 30.4435 33.2749 29.5419L31.8204 28.6247L17.2405 30.7909C7.14033 32.2916 2.40208 33.1609 1.81832 33.6203ZM29.0297 47.5807L30.5557 57.9186L21.1239 59.3107L11.6922 60.7029L10.2115 50.6715C9.39708 45.1538 8.84845 40.4814 8.99248 40.2884C9.13598 40.0949 13.3599 39.3306 18.379 38.5897L27.5038 37.2429L29.0297 47.5807ZM124.638 33.5859L126.271 43.7907L116.6 45.2181L106.93 46.6455L105.449 36.6141C104.635 31.0964 104.09 26.4193 104.238 26.2204C104.386 26.021 108.669 25.3006 113.756 24.6197L123.005 23.3812L124.638 33.5859ZM219.876 19.5285L221.508 29.7332L212.068 31.1267L202.627 32.5201L201.1 22.1726L199.573 11.8256L208.908 10.5745L218.243 9.3238L219.876 19.5285ZM99.0118 47.1461C99.8641 52.9202 99.8658 52.9255 101.408 54.0692L102.951 55.2137L117.898 53.0075L132.845 50.8012L133.828 49.2116C134.769 47.6887 134.775 47.385 133.968 41.9142L133.125 36.2063L163.225 31.7636L193.323 27.3209L194.363 33.3123C195.389 39.2292 195.42 39.3153 196.856 40.2211C198.21 41.0748 198.675 41.0845 203.576 40.3611L208.841 39.5839L213.487 71.0569L218.132 102.53L213.041 103.281C204.524 104.539 204.703 103.908 207.503 122.878C209.741 138.043 210.186 139.646 212.373 140.431C212.924 140.628 215.666 140.452 218.466 140.038L223.558 139.287L228.203 170.76L232.849 202.233L227.584 203.01C222.683 203.733 222.24 203.877 221.191 205.085C220.077 206.367 220.073 206.459 220.8 212.42L221.536 218.456L191.437 222.899L161.338 227.342L160.495 221.634C159.688 216.163 159.594 215.874 158.253 214.688L156.853 213.45L141.906 215.656L126.958 217.863L125.812 219.404C124.666 220.944 124.666 220.95 125.518 226.724L126.371 232.503L96.2719 236.946L66.1732 241.388L65.1337 235.397C64.1075 229.48 64.0765 229.394 62.6401 228.488C61.2867 227.634 60.8212 227.625 55.9204 228.348L50.6552 229.125L46.0097 197.652L41.3641 166.179L46.4554 165.428C55.0369 164.161 54.8152 164.946 51.9939 145.831C49.1725 126.717 49.6115 127.404 41.03 128.671L35.9387 129.422L31.2932 97.9494L26.6476 66.4764L31.9128 65.6992C36.8137 64.9758 37.2564 64.8321 38.3055 63.6237C39.419 62.3416 39.4238 62.2503 38.6967 56.2892L37.9609 50.2529L68.0596 45.8103L98.1588 41.3675L99.0118 47.1461ZM43.7123 147.054L45.2722 157.621L35.8404 159.013L26.4087 160.406L24.8489 149.838L23.289 139.271L32.7208 137.878L42.1525 136.486L43.7123 147.054ZM234.648 118.871L236.207 129.439L226.776 130.831L217.344 132.223L215.784 121.655L214.224 111.088L223.656 109.696L233.088 108.303L234.648 118.871ZM58.3964 246.536L59.9236 256.883L50.5886 258.135L41.2535 259.385L39.6208 249.181L37.9881 238.976L47.4285 237.582L56.869 236.189L58.3964 246.536ZM153.969 232.302L155.355 242.544L145.923 243.936L136.491 245.328L134.858 235.123L133.226 224.918L142.905 223.49L152.584 222.061L153.969 232.302ZM249.207 218.245L250.592 228.486L241.294 229.986L231.995 231.485L230.468 221.138L228.941 210.791L238.381 209.397L247.822 208.004L249.207 218.245Z" fill="black"/>
</svg>
