<svg width="86" height="96" viewBox="0 0 86 96" fill="none" xmlns="http://www.w3.org/2000/svg">
<path fill-rule="evenodd" clip-rule="evenodd" d="M57.3861 0.379342C57.1046 0.534783 54.3015 3.70953 51.157 7.43415C46.2474 13.2495 45.4301 14.2997 45.3725 14.8667C45.2661 15.9156 45.5787 16.5961 46.581 17.4972L47.508 18.3306L32.9057 27.1831C24.8745 32.0519 18.1216 36.2335 17.8994 36.4755C17.6774 36.7174 17.3998 37.1442 17.283 37.4239C16.6346 38.976 0.133399 92.9848 0.170062 93.435C0.244542 94.3496 0.932306 95.248 1.82207 95.5931C2.26234 95.7638 2.83645 95.886 3.09763 95.8647C3.50491 95.8315 54.2084 70.7203 55.5049 69.9097C55.7619 69.7491 56.1379 69.406 56.3406 69.1476C56.5432 68.8891 59.5746 61.5444 63.0769 52.8264L69.4448 36.9753L70.4268 37.7641C71.4819 38.6112 72.2559 38.8155 73.267 38.5136C74.105 38.2634 85.4236 24.992 85.6317 24.0153C85.9755 22.4017 86.5752 22.9974 72.7387 11.2071C65.4178 4.96887 59.8126 0.319976 59.4719 0.203603C58.7391 -0.046353 58.0515 0.0114251 57.3861 0.379342ZM69.1441 15.0844C74.6479 19.7616 79.1574 23.6677 79.1653 23.7646C79.1841 23.9962 72.3238 32.0824 72.0924 32.1013C71.861 32.1201 51.9056 15.1635 51.8868 14.932C51.8679 14.7004 58.7282 6.6141 58.9596 6.59525C59.0576 6.58728 63.6406 10.4075 69.1441 15.0844ZM58.5654 49.5077L52.0145 65.7517L32.8382 75.2909C22.2914 80.5374 13.6388 84.8102 13.61 84.786C13.5815 84.7617 18.1917 79.284 23.8546 72.6135L34.1511 60.4851L35.0192 60.7031C39.7893 61.9021 44.4909 58.4772 44.9042 53.5028C45.3353 48.3102 40.23 43.9711 35.1788 45.237C30.3399 46.4499 27.7229 51.6465 29.677 56.1627L30.0326 56.9847L19.7373 69.1141C14.0749 75.7851 9.4186 81.2236 9.39006 81.1993C9.36151 81.1749 12.1755 71.9397 15.6433 60.6765L21.9484 40.1977L36.8937 31.1019L51.839 22.006L58.4776 27.6348L65.1161 33.2639L58.5654 49.5077ZM38.0382 50.5723C38.8566 50.9095 39.566 51.8792 39.6376 52.7584C39.7474 54.1066 38.5453 55.5227 37.1979 55.6325C36.3192 55.704 35.2481 55.1604 34.7832 54.4069C34.2597 53.5582 34.201 52.8394 34.5801 51.9178C35.1301 50.581 36.6365 49.995 38.0382 50.5723Z" fill="#E80404"/>
</svg>
