<svg width="167" height="29" viewBox="0 0 167 29" fill="none" xmlns="http://www.w3.org/2000/svg">
    <path d="M16.8737 16.7419L14.0649 13.9541L16.8737 11.1663V5.59068L8.44753 13.9541L16.8737 22.3175V16.7419Z" fill="#F31515"/>
    <path d="M0 0V27.9087H28.1257V0H0ZM24.1055 23.9185H4.02016V3.98258H24.1055V23.9185Z" fill="#F31515"/>
    <path d="M36.6145 0.489302L39.026 5.55368L41.0881 0.489302H44.7578L40.3716 9.72486C39.8823 10.7308 39.2532 11.546 38.4843 12.1703C37.7154 12.7889 36.8242 13.0982 35.8107 13.0982C35.5252 13.0982 35.2456 13.0751 34.9719 13.0288C34.7039 12.9826 34.5059 12.9363 34.3777 12.8901L34.1942 12.8381V9.90697C34.4913 10.0226 34.8495 10.0804 35.2689 10.0804C35.7466 10.0804 36.1456 9.96767 36.466 9.7422C36.7922 9.51674 37.0193 9.27392 37.1475 9.01376L37.331 8.65822L32.9448 0.489302H36.6145Z" fill="#11253D"/>
    <path d="M56.8379 0.489302V12.9248H53.439V8.12923H48.878V12.9248H45.4792V0.489302H48.878V5.11142H53.439V0.489302H56.8379Z" fill="#11253D"/>
    <path d="M59.1669 0.489302H62.5658V7.41814L67.9306 0.489302H70.8838V12.9248H67.485V5.99595L62.1027 12.9248H59.1669V0.489302Z" fill="#11253D"/>
    <path d="M79.2155 12.9248H73.2216V0.489302H78.8573C80.1446 0.489302 81.1814 0.815943 81.9678 1.46923C82.7542 2.12251 83.1474 2.89141 83.1474 3.77595C83.1474 4.11704 83.092 4.44368 82.9814 4.75587C82.8707 5.06228 82.7367 5.30798 82.5794 5.49298C82.4222 5.67798 82.2649 5.83986 82.1076 5.97861C81.9562 6.11157 81.8222 6.20696 81.7057 6.26478L81.5397 6.3515C81.5979 6.37462 81.6766 6.40931 81.7756 6.45556C81.8804 6.49603 82.061 6.5972 82.3173 6.75907C82.5736 6.91517 82.8008 7.09439 82.9988 7.29673C83.1969 7.49908 83.3745 7.77658 83.5318 8.12923C83.6949 8.48189 83.7765 8.86634 83.7765 9.28259C83.7765 10.2538 83.3483 11.1037 82.4921 11.8321C81.6416 12.5606 80.5494 12.9248 79.2155 12.9248ZM76.6205 10.2625H78.9447C79.3408 10.2625 79.664 10.144 79.9145 9.90697C80.165 9.66994 80.2902 9.37509 80.2902 9.02244C80.2902 8.664 80.165 8.36626 79.9145 8.12923C79.664 7.8922 79.3408 7.77369 78.9447 7.77369H76.6205V10.2625ZM78.499 3.16024H76.6205V5.28485H78.499C78.8544 5.28485 79.1369 5.18946 79.3466 4.99868C79.5563 4.80212 79.6611 4.54485 79.6611 4.22688C79.6611 3.90313 79.5563 3.64587 79.3466 3.45509C79.1369 3.25852 78.8544 3.16024 78.499 3.16024Z" fill="#11253D"/>
    <path d="M88.7879 10.0804H95.2274V12.9248H85.3891V0.489302H95.0527V3.33368H88.7879V5.28485H93.6197V7.9558H88.7879V10.0804Z" fill="#11253D"/>
    <path d="M96.84 0.489302H102.476C103.85 0.489302 104.969 0.902662 105.831 1.72938C106.693 2.55032 107.124 3.58806 107.124 4.84259C107.124 6.09712 106.69 7.13775 105.822 7.96447C104.96 8.78541 103.845 9.19587 102.476 9.19587H100.239V12.9248H96.84V0.489302ZM102.292 3.51579H100.239V6.17806H102.292C102.688 6.17806 103.026 6.04509 103.306 5.77915C103.585 5.51321 103.725 5.20392 103.725 4.85126C103.725 4.49282 103.585 4.18063 103.306 3.9147C103.026 3.64876 102.688 3.51579 102.292 3.51579Z" fill="#11253D"/>
    <path d="M112.45 4.17485C111.768 4.84548 111.428 5.68954 111.428 6.70704C111.428 7.72454 111.768 8.5715 112.45 9.24791C113.132 9.92431 113.985 10.2625 115.01 10.2625C115.645 10.2625 116.245 10.1295 116.81 9.86361C117.375 9.59767 117.783 9.32884 118.033 9.05712L118.409 8.65822L120.375 10.7915C120.328 10.8609 120.258 10.9534 120.165 11.069C120.078 11.1788 119.868 11.3783 119.536 11.6674C119.21 11.9506 118.855 12.2021 118.47 12.4218C118.091 12.6415 117.588 12.8381 116.959 13.0115C116.335 13.1907 115.686 13.2803 115.01 13.2803C113.065 13.2803 111.413 12.6357 110.056 11.3465C108.705 10.0515 108.029 8.50501 108.029 6.70704C108.029 4.90907 108.705 3.36548 110.056 2.07626C111.413 0.781256 113.065 0.133755 115.01 0.133755C115.68 0.133755 116.318 0.220474 116.924 0.393912C117.529 0.567349 118.027 0.775475 118.418 1.01829C118.814 1.2611 119.157 1.50391 119.449 1.74673C119.746 1.98954 119.958 2.19766 120.087 2.3711L120.287 2.62259L118.225 4.75587C118.19 4.70962 118.144 4.65181 118.086 4.58243C118.027 4.50728 117.893 4.38009 117.684 4.20087C117.474 4.01587 117.256 3.85399 117.028 3.71524C116.801 3.57071 116.501 3.44352 116.128 3.33368C115.761 3.21806 115.389 3.16024 115.01 3.16024C113.985 3.16024 113.132 3.49845 112.45 4.17485Z" fill="#11253D"/>
    <path d="M121.629 0.489302H125.028V7.41814L130.393 0.489302H133.346V12.9248H129.947V5.99595L124.565 12.9248H121.629V0.489302Z" fill="#11253D"/>
    <path d="M134.609 0.489302H144.989V3.51579H141.494V12.9248H138.095V3.51579H134.609V0.489302Z" fill="#11253D"/>
    <path d="M149.643 10.0804H156.082V12.9248H146.244V0.489302H155.907V3.33368H149.643V5.28485H154.474V7.9558H149.643V10.0804Z" fill="#11253D"/>
    <path d="M156.62 0.489302H167V3.51579H163.505V12.9248H160.106V3.51579H156.62V0.489302Z" fill="#11253D"/>
    <path d="M38.0824 19.8945C37.4009 20.5651 37.0601 21.4092 37.0601 22.4267C37.0601 23.4442 37.4009 24.2912 38.0824 24.9676C38.7639 25.644 39.6173 25.9822 40.6425 25.9822C41.2774 25.9822 41.8774 25.8492 42.4424 25.5833C43.0074 25.3173 43.4152 25.0485 43.6656 24.7768L44.0413 24.3779L46.0073 26.5112C45.9607 26.5805 45.8908 26.673 45.7976 26.7887C45.7102 26.8985 45.5005 27.098 45.1685 27.387C44.8423 27.6703 44.4869 27.9218 44.1025 28.1415C43.7239 28.3612 43.22 28.5577 42.5909 28.7312C41.9676 28.9104 41.3182 29 40.6425 29C38.6969 29 37.0456 28.3554 35.6883 27.0662C34.3369 25.7712 33.6612 24.2247 33.6612 22.4267C33.6612 20.6287 34.3369 19.0851 35.6883 17.7959C37.0456 16.5009 38.6969 15.8534 40.6425 15.8534C41.3123 15.8534 41.9502 15.9401 42.556 16.1136C43.1618 16.287 43.6598 16.4951 44.0501 16.738C44.4462 16.9808 44.7898 17.2236 45.0811 17.4664C45.3782 17.7092 45.5908 17.9173 45.7189 18.0908L45.9199 18.3423L43.8579 20.4755C43.8229 20.4293 43.7763 20.3715 43.7181 20.3021C43.6598 20.2269 43.5258 20.0998 43.3161 19.9205C43.1064 19.7355 42.888 19.5737 42.6608 19.4349C42.4336 19.2904 42.1337 19.1632 41.7609 19.0534C41.3939 18.9377 41.0211 18.8799 40.6425 18.8799C39.6173 18.8799 38.7639 19.2181 38.0824 19.8945Z" fill="#11253D"/>
    <path d="M47.2616 16.209H50.6605V23.1378L56.0253 16.209H58.9785V28.6445H55.5797V21.7156L50.1974 28.6445H47.2616V16.209Z" fill="#11253D"/>
    <path d="M72.675 16.209V28.6445H69.2761V23.8489H64.7152V28.6445H61.3163V16.209H64.7152V20.8311H69.2761V16.209H72.675Z" fill="#11253D"/>
    <path d="M78.4029 25.8001H84.8424V28.6445H75.0041V16.209H84.6677V19.0534H78.4029V21.0045H83.2347V23.6755H78.4029V25.8001Z" fill="#11253D"/>
    <path d="M86.455 16.209H92.0907C93.4654 16.209 94.5838 16.6223 95.4459 17.4491C96.308 18.27 96.739 19.3077 96.739 20.5623C96.739 21.8168 96.305 22.8574 95.4371 23.6841C94.575 24.5051 93.4595 24.9155 92.0907 24.9155H89.8539V28.6445H86.455V16.209ZM91.9072 19.2355H89.8539V21.8977H91.9072C92.3033 21.8977 92.6411 21.7648 92.9207 21.4988C93.2003 21.2329 93.3401 20.9236 93.3401 20.5709C93.3401 20.2125 93.2003 19.9003 92.9207 19.6344C92.6411 19.3684 92.3033 19.2355 91.9072 19.2355Z" fill="#11253D"/>
    <path d="M98.3603 28.6445V16.209H107.307V19.2355H101.759V28.6445H98.3603Z" fill="#11253D"/>
    <path d="M108.378 16.209H111.777V23.1378L117.142 16.209H120.095V28.6445H116.696V21.7156L111.314 28.6445H108.378V16.209Z" fill="#11253D"/>
    <path d="M132.455 16.209V28.6445H129.056V24.7334H127.265L125.115 28.6445H121.533L124.128 24.1177C124.07 24.0946 123.991 24.057 123.892 24.005C123.799 23.9472 123.63 23.8142 123.385 23.6061C123.141 23.3922 122.922 23.1609 122.73 22.9123C122.544 22.658 122.372 22.314 122.215 21.8804C122.063 21.441 121.987 20.9727 121.987 20.4755C121.987 19.2673 122.416 18.2555 123.272 17.4404C124.134 16.6194 125.226 16.209 126.548 16.209H132.455ZM125.753 19.591C125.509 19.8223 125.386 20.1171 125.386 20.4755C125.386 20.8282 125.512 21.123 125.762 21.3601C126.013 21.5971 126.333 21.7156 126.723 21.7156H129.056V19.2355H126.723C126.327 19.2355 126.004 19.354 125.753 19.591Z" fill="#11253D"/>
</svg>
