<svg width="138" height="26" viewBox="0 0 138 26" fill="none" xmlns="http://www.w3.org/2000/svg">
    <path d="M13.8496 15.157L11.5443 12.8515L13.8496 10.546V5.93506L6.93359 12.8515L13.8496 19.768V15.157Z" fill="#F31515"/>
    <path d="M0 1.31152V24.3917H23.0851V1.31152H0ZM19.7854 21.0919H3.29968V4.60508H19.7854V21.0919Z" fill="#F31515"/>
    <path d="M30.0531 1.71599L32.0324 5.90418L33.7249 1.71599H36.737L33.1368 9.3537C32.7352 10.1856 32.2189 10.8597 31.5878 11.3761C30.9567 11.8876 30.2252 12.1434 29.3933 12.1434C29.159 12.1434 28.9295 12.1243 28.7048 12.0861C28.4849 12.0478 28.3223 12.0096 28.2172 11.9713L28.0665 11.9283V9.5043C28.3104 9.59992 28.6044 9.64773 28.9486 9.64773C29.3407 9.64773 29.6682 9.5545 29.9312 9.36804C30.1989 9.18158 30.3854 8.98077 30.4905 8.76563L30.6411 8.47159L27.041 1.71599H30.0531ZM46.6521 1.71599V12H43.8623V8.03413H40.1188V12H37.329V1.71599H40.1188V5.53843H43.8623V1.71599H46.6521ZM48.5637 1.71599H51.3535V7.44606L55.7568 1.71599H58.1808V12H55.391V6.26993L50.9734 12H48.5637V1.71599ZM65.0193 12H60.0996V1.71599H64.7253C65.7819 1.71599 66.6329 1.98612 67.2783 2.52637C67.9238 3.06663 68.2465 3.70251 68.2465 4.43401C68.2465 4.71609 68.2011 4.98622 68.1102 5.24439C68.0194 5.49779 67.9094 5.70098 67.7803 5.85398C67.6512 6.00697 67.5222 6.14084 67.3931 6.25558C67.2688 6.36555 67.1588 6.44443 67.0632 6.49224L66.9269 6.56396C66.9747 6.58308 67.0393 6.61177 67.1206 6.65002C67.2066 6.68349 67.3548 6.76715 67.5652 6.90102C67.7756 7.03011 67.962 7.17832 68.1246 7.34566C68.2871 7.513 68.4329 7.74249 68.562 8.03413C68.6959 8.32577 68.7628 8.64371 68.7628 8.98795C68.7628 9.79116 68.4114 10.494 67.7086 11.0964C67.0106 11.6988 66.1141 12 65.0193 12ZM62.8893 9.79833H64.797C65.1221 9.79833 65.3874 9.70032 65.593 9.5043C65.7986 9.30828 65.9014 9.06444 65.9014 8.7728C65.9014 8.47638 65.7986 8.23015 65.593 8.03413C65.3874 7.83811 65.1221 7.7401 64.797 7.7401H62.8893V9.79833ZM64.4312 3.92483H62.8893V5.68186H64.4312C64.7229 5.68186 64.9547 5.60297 65.1269 5.4452C65.299 5.28264 65.385 5.06989 65.385 4.80693C65.385 4.53919 65.299 4.32643 65.1269 4.16866C64.9547 4.00611 64.7229 3.92483 64.4312 3.92483ZM72.8762 9.64773H78.1616V12H70.0864V1.71599H78.0182V4.06826H72.8762V5.68186H76.842V7.8907H72.8762V9.64773ZM79.4852 1.71599H84.1108C85.2392 1.71599 86.1571 2.05783 86.8647 2.74152C87.5723 3.42043 87.9261 4.27862 87.9261 5.31611C87.9261 6.35359 87.5699 7.21418 86.8575 7.89787C86.1499 8.57678 85.2344 8.91623 84.1108 8.91623H82.2749V12H79.4852V1.71599ZM83.9602 4.21886H82.2749V6.42053H83.9602C84.2853 6.42053 84.5626 6.31057 84.7921 6.09064C85.0216 5.87071 85.1364 5.61492 85.1364 5.32328C85.1364 5.02686 85.0216 4.76868 84.7921 4.54875C84.5626 4.32883 84.2853 4.21886 83.9602 4.21886ZM92.2976 4.7639C91.7382 5.3185 91.4585 6.01653 91.4585 6.85799C91.4585 7.69946 91.7382 8.39988 92.2976 8.95926C92.857 9.51864 93.5574 9.79833 94.3989 9.79833C94.92 9.79833 95.4124 9.68837 95.8762 9.46844C96.34 9.24851 96.6746 9.02619 96.8802 8.80149L97.1886 8.47159L98.8022 10.2358C98.7639 10.2932 98.7066 10.3697 98.6301 10.4653C98.5584 10.5561 98.3862 10.7211 98.1137 10.9601C97.846 11.1944 97.5543 11.4024 97.2388 11.584C96.928 11.7657 96.5145 11.9283 95.9981 12.0717C95.4865 12.2199 94.9535 12.294 94.3989 12.294C92.802 12.294 91.4466 11.7609 90.3326 10.6948C89.2234 9.62382 88.6688 8.3449 88.6688 6.85799C88.6688 5.37109 89.2234 4.09455 90.3326 3.02838C91.4466 1.95743 92.802 1.42195 94.3989 1.42195C94.9487 1.42195 95.4722 1.49367 95.9694 1.6371C96.4667 1.78053 96.8754 1.95265 97.1958 2.15345C97.5209 2.35426 97.803 2.55506 98.042 2.75586C98.2858 2.95667 98.4603 3.12878 98.5655 3.27222L98.7305 3.48019L97.038 5.24439C97.0093 5.20615 96.9711 5.15834 96.9232 5.10096C96.8754 5.03881 96.7655 4.93363 96.5934 4.78541C96.4212 4.63242 96.2419 4.49855 96.0555 4.38381C95.869 4.26428 95.6228 4.1591 95.3168 4.06826C95.0156 3.97264 94.7096 3.92483 94.3989 3.92483C93.5574 3.92483 92.857 4.20452 92.2976 4.7639ZM99.8317 1.71599H102.621V7.44606L107.025 1.71599H109.449V12H106.659V6.26993L102.241 12H99.8317V1.71599ZM110.486 1.71599H119.005V4.21886H116.137V12H113.347V4.21886H110.486V1.71599ZM122.825 9.64773H128.11V12H120.035V1.71599H127.967V4.06826H122.825V5.68186H126.79V7.8907H122.825V9.64773ZM128.552 1.71599H137.071V4.21886H134.203V12H131.413V4.21886H128.552V1.71599ZM31.2579 17.7639C30.6985 18.3185 30.4188 19.0165 30.4188 19.858C30.4188 20.6995 30.6985 21.3999 31.2579 21.9593C31.8173 22.5186 32.5177 22.7983 33.3592 22.7983C33.8803 22.7983 34.3727 22.6884 34.8365 22.4684C35.3003 22.2485 35.6349 22.0262 35.8405 21.8015L36.1489 21.4716L37.7625 23.2358C37.7242 23.2932 37.6669 23.3697 37.5904 23.4653C37.5187 23.5561 37.3465 23.7211 37.074 23.9601C36.8063 24.1944 36.5146 24.4024 36.1991 24.584C35.8883 24.7657 35.4748 24.9283 34.9584 25.0717C34.4468 25.2199 33.9138 25.294 33.3592 25.294C31.7623 25.294 30.4069 24.7609 29.2929 23.6948C28.1837 22.6238 27.6291 21.3449 27.6291 19.858C27.6291 18.3711 28.1837 17.0946 29.2929 16.0284C30.4069 14.9574 31.7623 14.422 33.3592 14.422C33.909 14.422 34.4325 14.4937 34.9297 14.6371C35.427 14.7805 35.8357 14.9526 36.1561 15.1535C36.4812 15.3543 36.7633 15.5551 37.0023 15.7559C37.2461 15.9567 37.4206 16.1288 37.5258 16.2722L37.6908 16.4802L35.9983 18.2444C35.9696 18.2061 35.9314 18.1583 35.8835 18.101C35.8357 18.0388 35.7258 17.9336 35.5537 17.7854C35.3815 17.6324 35.2022 17.4986 35.0158 17.3838C34.8293 17.2643 34.5831 17.1591 34.2771 17.0683C33.9759 16.9726 33.6699 16.9248 33.3592 16.9248C32.5177 16.9248 31.8173 17.2045 31.2579 17.7639ZM38.792 14.716H41.5818V20.4461L45.9851 14.716H48.4091V25H45.6194V19.2699L41.2017 25H38.792V14.716ZM59.6509 14.716V25H56.8612V21.0341H53.1177V25H50.3279V14.716H53.1177V18.5384H56.8612V14.716H59.6509ZM64.3523 22.6477H69.6378V25H61.5626V14.716H69.4943V17.0683H64.3523V18.6819H68.3182V20.8907H64.3523V22.6477ZM70.9613 14.716H75.587C76.7153 14.716 77.6333 15.0578 78.3409 15.7415C79.0485 16.4204 79.4023 17.2786 79.4023 18.3161C79.4023 19.3536 79.0461 20.2142 78.3337 20.8979C77.6261 21.5768 76.7105 21.9162 75.587 21.9162H73.7511V25H70.9613V14.716ZM75.4364 17.2189H73.7511V19.4205H75.4364C75.7615 19.4205 76.0388 19.3106 76.2683 19.0906C76.4978 18.8707 76.6125 18.6149 76.6125 18.3233C76.6125 18.0269 76.4978 17.7687 76.2683 17.5488C76.0388 17.3288 75.7615 17.2189 75.4364 17.2189ZM80.733 25V14.716H88.0767V17.2189H83.5228V25H80.733ZM88.9556 14.716H91.7454V20.4461L96.1487 14.716H98.5727V25H95.783V19.2699L91.3653 25H88.9556V14.716ZM108.717 14.716V25H105.928V21.7656H104.457L102.693 25H99.7529L101.883 21.2564C101.835 21.2373 101.77 21.2062 101.689 21.1632C101.613 21.1154 101.474 21.0054 101.273 20.8333C101.072 20.6564 100.893 20.4652 100.735 20.2596C100.582 20.0492 100.441 19.7648 100.312 19.4062C100.188 19.0428 100.126 18.6556 100.126 18.2444C100.126 17.2452 100.477 16.4085 101.18 15.7343C101.888 15.0554 102.784 14.716 103.869 14.716H108.717ZM103.217 17.5129C103.016 17.7041 102.916 17.948 102.916 18.2444C102.916 18.536 103.018 18.7799 103.224 18.9759C103.429 19.1719 103.692 19.2699 104.013 19.2699H105.928V17.2189H104.013C103.688 17.2189 103.422 17.3169 103.217 17.5129Z" fill="white"/>
</svg>
