<svg width="74" height="73" viewBox="0 0 74 73" fill="none" xmlns="http://www.w3.org/2000/svg">
<path fill-rule="evenodd" clip-rule="evenodd" d="M4.02319 6.14931C3.43146 7.03031 2.84679 8.76305 2.77137 9.85911C2.68422 11.1299 3.03244 12.6965 3.64688 13.7979C3.92947 14.3043 4.25019 14.8804 4.35969 15.0779C4.52358 15.3735 4.40512 15.749 3.69087 17.1991C-0.475336 25.6582 -0.426327 35.481 3.82343 43.8014L4.89331 45.8957L3.28204 47.512C2.39589 48.401 1.52911 49.379 1.35589 49.6854C0.761661 50.7367 0.746001 50.7148 5.46448 55.4247C8.59439 58.5491 9.77293 59.6502 10.0216 59.6829C10.8056 59.7859 11.0762 59.5639 15.2372 55.4028C19.3983 51.2418 19.6203 50.9712 19.5173 50.1872C19.4585 49.7394 11.2201 41.4562 10.6672 41.2888C10.0671 41.1071 9.24002 41.5564 8.12842 42.668C7.56742 43.229 7.06081 43.6402 7.0026 43.582C6.70685 43.2863 5.5686 40.7597 5.0211 39.1834C2.82109 32.8504 3.08432 25.7541 5.74265 19.7319C6.9188 17.0672 6.83572 17.1391 8.22525 17.5833C9.56135 18.0104 11.336 18.0023 12.6397 17.5631C15.0614 16.7473 16.7188 15.093 17.5857 12.6265C17.9869 11.4848 17.9677 9.09477 17.5482 7.96559C17.3612 7.46209 17.2731 6.98549 17.3525 6.90611C17.6858 6.57284 20.7814 5.24355 22.4028 4.73742C27.3942 3.17946 32.9653 3.13033 38.0105 4.59983C39.5099 5.03651 42.431 6.25677 43.2367 6.78275L43.7067 7.08973L42.699 8.09745C42.1447 8.65175 41.5798 9.33588 41.4436 9.61776C40.9804 10.5771 41.0946 10.7317 45.5887 15.2258C49.8879 19.525 50.1558 19.7369 50.9255 19.4492C51.5313 19.2225 59.4379 11.3045 59.6048 10.7572C59.8626 9.91146 59.8599 9.908 55.3955 5.43578C50.6643 0.695902 50.7475 0.755669 49.6964 1.34966C49.3838 1.52646 48.3935 2.40508 47.4958 3.30211L45.8632 4.93323L45.0868 4.4571C42.9627 3.15495 39.2175 1.73912 36.4719 1.20024C29.7014 -0.128567 23.2775 0.704507 17.2063 3.6985C15.5102 4.53504 15.4266 4.55584 14.9457 4.26094C12.3698 2.68134 10.2495 2.36683 7.87261 3.21173C6.19272 3.80908 4.96671 4.74459 4.02319 6.14931ZM8.76449 6.0153C9.75046 5.65668 11.2722 5.6715 12.1997 6.04841C13.1162 6.42078 14.3206 7.67368 14.6873 8.63621C15.85 11.6866 13.5876 14.9905 10.3361 14.9905C7.16864 14.9904 4.94269 11.7823 6.01914 8.76878C6.45032 7.56179 7.5532 6.45581 8.76449 6.0153ZM20.1856 21.145C19.9859 21.8534 30.7561 56.8882 31.3494 57.4607C31.5837 57.6866 35.2135 59.8126 39.4157 62.1852L47.0561 66.4987L46.2876 67.3868C45.652 68.1211 45.5282 68.3632 45.573 68.7854C45.6615 69.625 46.27 70.1655 47.078 70.1228C47.5715 70.0969 47.777 69.9617 48.6482 69.0905C49.1996 68.5392 49.7272 68.1062 49.8208 68.1283C49.9143 68.1503 51.869 69.235 54.1645 70.5386C57.6132 72.4969 58.4375 72.9027 58.9093 72.8754L59.4803 72.8422L66.2818 66.0408C70.8627 61.4599 73.1331 59.1058 73.2363 58.8303C73.3204 58.6053 73.3532 58.2651 73.3091 58.0744C73.265 57.8835 72.1915 55.9792 70.9235 53.8425C69.6556 51.7057 68.5529 49.8342 68.4736 49.6836C68.3529 49.4551 68.4754 49.2634 69.2109 48.5278C69.9664 47.7724 70.0992 47.5583 70.1387 47.0329C70.1751 46.5487 70.0853 46.3256 69.7116 45.9724C69.0379 45.336 68.2574 45.4169 67.4694 46.2049C67.0766 46.5978 66.8281 46.7461 66.7284 46.6471C66.646 46.5652 64.5476 43.063 62.0656 38.8644C59.2876 34.1654 57.427 31.1653 57.2256 31.0609C56.7185 30.7982 21.8147 20.0873 21.4656 20.0873C20.9836 20.0873 20.3318 20.6258 20.1856 21.145ZM30.7544 32.9064L36.7084 38.8603L36.426 39.5885C35.5746 41.784 36.3391 44.4291 38.2434 45.8784C40.4876 47.5864 43.4008 47.3963 45.4062 45.4112C47.3818 43.4557 47.6152 40.6276 45.9922 38.3105C44.6468 36.3899 41.9404 35.5675 39.6798 36.3926L38.8478 36.6963L32.8736 30.715C29.5494 27.3866 27.024 24.7682 27.1801 24.8117C27.3344 24.8547 33.7686 26.832 41.4784 29.2054L55.4962 33.5212L60.0816 41.2644L64.6669 49.0074L56.9373 56.6774L49.2076 64.3473L41.373 59.9149L33.5386 55.4823L29.144 41.2517C26.7269 33.4247 24.761 27.0054 24.7749 26.9867C24.7888 26.9678 27.4796 29.6316 30.7544 32.9064ZM13.1474 47.6306L15.9545 50.5017L13.1453 53.3109L10.3361 56.1201L7.46498 53.313L4.59387 50.506L7.46713 47.6327L10.3404 44.7595L13.1474 47.6306ZM53.3726 7.4695L56.2437 10.3406L53.3726 13.1476L50.5015 15.9547L47.6304 13.1476L44.7592 10.3406L47.6304 7.4695L50.5015 4.5984L53.3726 7.4695ZM40.7867 39.1182C42.6438 38.5031 44.4849 40.2381 44.0181 42.1633C43.7001 43.4749 42.2594 44.3358 40.9017 44.0255C40.0962 43.8414 39.1383 42.7962 39.0096 41.9608C38.8974 41.2329 39.2157 40.271 39.7432 39.7435C39.9734 39.5133 40.4429 39.232 40.7867 39.1182ZM66.3263 51.8309C66.6409 52.3994 69.9903 58.0365 70.0478 58.094C70.081 58.1273 67.4996 60.7353 64.3113 63.8896L58.5143 69.6244L55.3798 67.8578C53.6558 66.8862 52.1756 66.0264 52.0905 65.9471C51.9686 65.8333 53.437 64.3017 59.0566 58.6822C65.7814 51.9573 66.1856 51.5764 66.3263 51.8309Z" fill="#FFE001"/>
</svg>
