<svg width="72" height="61" viewBox="0 0 72 61" fill="none" xmlns="http://www.w3.org/2000/svg">
    <path d="M43.9674 32.4377C43.3047 34.8681 42.642 35.0156 42.2736 34.7947C42.1262 35.6783 41.9053 36.5624 41.4635 37.446V40.0239C39.7697 40.9815 37.8546 41.4968 35.8664 41.4968C33.9517 41.4968 32.1105 41.0549 30.4164 40.0973V37.8144C29.7537 36.7099 29.4588 35.5314 29.3119 34.5004C28.9435 34.5004 28.4282 33.9111 27.9124 32.07C27.1757 29.4921 27.9859 29.1244 28.5751 29.1978C28.1333 27.8724 28.0594 26.5464 28.4277 25.2944C28.796 23.895 29.5322 22.7165 30.4163 21.833C30.9321 21.2438 31.5948 20.7285 32.2575 20.2861C32.7733 19.9178 33.362 19.6234 34.0252 19.4025C34.541 19.2551 35.0562 19.1082 35.6454 19.1082C37.4131 18.9607 38.7386 19.4025 39.6962 19.9918C41.0956 20.8019 41.6848 21.833 41.6848 21.833C41.6848 21.833 45.2936 22.0539 43.7469 29.6395C44.1882 29.7864 44.5566 30.4491 43.9674 32.4377ZM35.8664 50.8496C30.7112 50.8496 25.8504 49.0084 22.0207 45.547C21.5049 45.9153 21.0631 46.2837 20.5479 46.7255C19.8112 47.3882 19.3694 48.2723 19.3694 49.3034V54.0168L22.61 55.2688C31.2268 58.6568 40.7273 58.6568 49.3441 55.2688L51.627 54.3851L45.6617 48.4193C42.642 50.0395 39.3279 50.8496 35.8664 50.8496ZM71.8801 49.2293V45.1786C71.8801 44.295 71.5117 43.4848 70.849 42.969C67.1666 39.9494 63.2633 37.9613 62.4532 37.5929C62.3797 37.5194 62.3058 37.4455 62.3058 37.372V34.9416C62.6741 34.205 62.895 33.3948 63.0425 32.6587C63.3368 32.8796 63.9261 32.7322 64.5153 30.6701C65.0311 28.9763 64.7362 28.3871 64.2944 28.2397C65.6938 21.6851 62.5267 21.4641 62.5267 21.4641C62.5267 21.4641 62.0849 20.5805 60.8329 19.8439C60.0228 19.3281 58.8443 18.9603 57.298 19.1072C56.7822 19.1072 56.3404 19.2547 55.8986 19.4016C55.3093 19.6225 54.7941 19.8434 54.3517 20.2117C55.7511 22.7897 56.5613 25.6618 56.7821 28.6075C57.0764 32.5109 56.1928 36.4141 54.4251 39.8021L65.988 51.365C67.019 51.0707 68.0501 50.7758 69.0812 50.334L71.8801 49.2293ZM51.4797 16.088V15.8671C51.848 15.1304 52.069 14.3202 52.2164 13.5841C52.5108 13.805 53.1 13.6576 53.6892 11.5955C54.205 9.90176 53.9101 9.31258 53.4683 9.16515C54.8677 2.61052 51.7006 2.38958 51.7006 2.38958C51.7006 2.38958 51.2588 1.50597 50.0069 0.769335C49.1967 0.253553 48.0183 -0.114277 46.4719 0.0326495C45.9561 0.0326495 45.5144 0.180089 45.0725 0.327016C44.4832 0.547919 43.968 0.768822 43.5256 1.13716C42.9364 1.50551 42.4211 1.94731 41.9054 2.46256C41.1687 3.19924 40.506 4.23023 40.2116 5.48223C39.9173 6.51327 39.9173 7.69179 40.3591 8.87028C39.9907 8.87028 39.6224 8.94374 39.5489 9.45953C43.7471 10.1962 47.5764 12.1844 50.6696 15.2774C50.9639 15.4988 51.2588 15.7936 51.4797 16.088ZM30.1219 2.38954C30.1219 2.38954 29.6801 1.50593 28.4282 0.769295C27.618 0.253513 26.4396 -0.114317 24.8932 0.0326099C24.3774 0.0326099 23.9356 0.18005 23.4938 0.326976C22.9045 0.547879 22.3893 0.768782 21.9469 1.13712C21.3577 1.50547 20.8424 1.94727 20.3267 2.46252C19.59 3.1992 18.9272 4.23019 18.6329 5.4822C18.3386 6.51323 18.3386 7.69175 18.7804 8.87024C18.1911 8.79678 17.5284 9.16461 18.1911 11.3741C18.6329 12.9944 19.0747 13.4363 19.3696 13.4363C19.517 14.3199 19.7379 15.2774 20.2532 16.1611C20.4741 15.8667 20.769 15.5718 21.0634 15.3509C24.156 12.1114 27.9858 10.1228 32.184 9.38614C32.1105 9.2387 31.9631 9.16524 31.8896 9.16524C33.215 2.61061 30.1219 2.38954 30.1219 2.38954ZM16.7917 52.4698V49.3033C16.7917 47.5356 17.5284 45.9152 18.9272 44.8108C19.3691 44.4424 19.8109 44.148 20.1792 43.7797C16.7911 39.9499 14.95 35.0896 14.95 29.934C14.95 26.3251 15.8336 22.8636 17.6013 19.7705C16.7911 19.2547 15.6127 18.8869 14.1398 19.0338C13.6241 19.0338 13.1823 19.1813 12.7404 19.3282C12.1512 19.5491 11.6359 19.77 11.1935 20.1383C10.6043 20.5067 10.089 20.9485 9.57329 21.4637C8.83661 22.2004 8.17386 23.2314 7.87953 24.4834C7.58517 25.5144 7.58517 26.693 8.02697 27.8715C7.43773 27.798 6.77503 28.1658 7.43772 30.3753C7.87953 31.9956 8.32134 32.4375 8.6162 32.4375C8.76364 33.395 9.05801 34.3522 9.57378 35.3097L9.57429 37.3724C9.57429 37.4458 9.50083 37.5933 9.42685 37.5933C8.6167 37.9616 4.64003 39.9503 1.03104 42.9694C0.368329 43.4852 0 44.2948 0 45.179V49.2297L2.79874 50.3342C7.29123 52.1019 12.0782 52.8382 16.7917 52.4698ZM64.8835 53.7952C66.283 55.1947 66.283 57.4776 64.8835 58.9504C63.4841 60.3499 61.2012 60.3499 59.7284 58.9504L47.2084 46.4305L47.8711 45.7678L46.8401 44.7367C39.6228 50.1129 29.3856 49.5236 22.9046 42.9691C15.7608 35.8253 15.7608 24.1889 22.9046 16.9715C30.0485 9.82769 41.6848 9.82769 48.9022 16.9715C55.4568 23.5261 56.046 33.7631 50.6699 40.9069L51.7009 41.938L52.3636 41.2753L64.8835 53.7952ZM45.7352 20.0647C40.2852 14.6146 31.3739 14.6146 25.924 20.0647C20.474 25.5147 20.474 34.4259 25.924 39.8759C31.3741 45.3259 40.2853 45.3259 45.7352 39.8759C51.2588 34.3523 51.2588 25.5146 45.7352 20.0647Z" fill="#FFE001"/>
    <path d="M65.3151 54.0534C66.7434 55.4817 66.7434 57.8118 65.3151 59.3151C63.8867 60.7434 61.5566 60.7434 60.0533 59.3151L47.2746 46.5364L47.951 45.86L46.8987 44.8076C39.5322 50.2949 29.0835 49.6934 22.4686 43.0034C15.1771 35.712 15.1771 23.8352 22.4686 16.4686C29.76 9.17714 41.6368 9.17714 49.0034 16.4686C55.6935 23.1587 56.2949 33.6072 50.8076 40.8987L51.86 41.951L52.5364 41.2746L65.3151 54.0534ZM45.771 19.6257C40.2083 14.063 31.1129 14.063 25.5504 19.6257C19.9877 25.1884 19.9877 34.2838 25.5504 39.8463C31.113 45.409 40.2084 45.409 45.771 39.8463C51.4087 34.2086 51.4087 25.1882 45.771 19.6257Z" fill="#E21E2C"/>
</svg>
