<svg width="69" height="55" viewBox="0 0 69 55" fill="none" xmlns="http://www.w3.org/2000/svg">
    <path d="M67.2211 10H28.7784C27.8207 10 27 10.898 27 12.1223V27.8774C27.5473 27.6325 28.0946 27.5511 28.7101 27.5511C29.3256 27.5511 29.9411 27.7145 30.5571 27.9594V14.2454H65.4429V49.7555H30.5571V39.8777L27 42.0819V51.8777C27 53.0205 27.8207 54 28.7784 54H67.2211C68.1788 54 68.9995 53.0206 68.9995 51.8777L69 12.1227C69 10.8984 68.2475 10.0004 67.2216 10.0004L67.2211 10Z" fill="#FFE001"/>
    <path d="M32.3778 32.3479C31.4873 30.6476 29.3827 29.9192 27.6826 30.8096L21.1256 34.1288C21.1256 34.1288 14.1638 29.4336 13.4353 28.9479C12.7069 28.4623 11.8971 27.9766 11.3307 27.8146C8.98341 27.0862 3.0735 26.5192 1.3738 30.4053C-0.32648 34.5337 -0.00287594 45.2195 0.0778735 52.829C0.0778735 53.4767 0.482749 54.043 1.21117 54.043H13.8395C14.5679 54.043 14.8921 53.6382 14.9728 52.9905C15.0536 52.5856 15.7012 44.0048 15.7012 40.2001V38.9048L19.0204 41.1714C19.5873 41.5763 20.3158 41.7383 20.9634 41.7383C21.5303 41.7383 22.0159 41.5763 22.5823 41.3335L30.9203 37.043C32.5398 36.1531 33.2682 34.0485 32.3778 32.3482L32.3778 32.3479Z" fill="#FFE001"/>
    <path d="M16.3481 7.85766C16.3481 12.0599 12.9409 15.4667 8.73852 15.4667C4.53568 15.4667 1.12891 12.0601 1.12891 7.85766C1.12891 3.65482 4.53553 0.248047 8.73852 0.248047C12.9408 0.248047 16.3481 3.65467 16.3481 7.85766Z" fill="#FFE001"/>
    <path d="M37.1262 30.3241H46.4354C46.8402 30.3241 47.0831 30.0006 47.0831 29.6764V20.2859C47.0831 19.881 46.7595 19.6382 46.4354 19.6382L37.1262 19.6387C36.7213 19.6387 36.4785 19.9623 36.4785 20.2864V29.677C36.4785 30.0006 36.7213 30.3241 37.1262 30.3241Z" fill="#E21E2C"/>
    <path d="M51.3978 13H59.6022C59.8509 13 60 12.7275 60 12.4545V10.5455C60 10.2045 59.8013 10 59.6022 10L51.3978 10.0005C51.1491 10.0005 51 10.273 51 10.546V12.455C51 12.7275 51.1491 13 51.3978 13V13Z" fill="#E21E2C"/>
    <path d="M51 29.4545C51 29.7955 51.1984 30 51.3972 30H57.6028C57.8511 30 58 29.7275 58 29.4545V27.5455C58 27.2045 57.8016 27 57.6028 27H51.3972C51.1489 27 51 27.2725 51 27.5455V29.4545Z" fill="#E21E2C"/>
    <path d="M36.4785 43.7626C36.4785 44.1675 36.8021 44.4103 37.1262 44.4103H46.4354C46.8402 44.4103 47.0831 44.0867 47.0831 43.7626V34.4529C47.0831 34.048 46.7595 33.8052 46.4354 33.8052L37.1262 33.8057C36.7213 33.8057 36.4785 34.1293 36.4785 34.4534V43.7626Z" fill="#E21E2C"/>
    <path d="M51 36.4546C51 36.7955 51.1987 37 51.3978 37L59.6022 36.9995C59.8509 36.9995 60 36.7271 60 36.4541V34.5454C60 34.2045 59.8013 34 59.6022 34L51.3978 34.0005C51.1491 34.0005 51 34.2729 51 34.5459V36.4546Z" fill="#E21E2C"/>
    <path d="M51 43.4545C51 43.7955 51.1984 44 51.3972 44H57.6028C57.8511 44 58 43.7275 58 43.4545V41.5455C58 41.2045 57.8016 41 57.6028 41H51.3972C51.1489 41 51 41.2725 51 41.5455V43.4545Z" fill="#E21E2C"/>
</svg>
