<svg width="60" height="60" viewBox="0 0 60 60" fill="none" xmlns="http://www.w3.org/2000/svg">
    <path d="M29.9344 46.0002C31.0206 45.8333 33.4049 46.5002 33.4318 44.8578C33.2273 43.2824 31.018 44.1846 29.9349 44.0002C28.8518 44.185 26.6358 43.2819 26.4375 44.8578C26.4621 46.4998 28.8495 45.8333 29.9344 46.0002Z" fill="#FFE001"/>
    <path d="M13.2806 37.4457C13.1904 36.9019 12.6775 36.5247 12.1302 36.6234C9.89533 37.3229 12.6855 40.9644 14.2047 41.9493C14.6431 42.2774 15.2721 42.1908 15.6038 41.7453C15.9337 41.302 15.8422 40.6761 15.3993 40.3457C14.1775 39.4359 13.4445 38.4328 13.2806 37.4457L13.2806 37.4457Z" fill="#FFE001"/>
    <path d="M23.0219 45.3659C23.492 45.3659 23.9112 45.0328 24.0027 44.5543C24.1072 44.0123 23.7518 43.4877 23.2094 43.3833C21.7201 43.0971 20.3312 42.7181 19.0822 42.2552C17.8456 41.8168 17.1608 43.6533 18.388 44.1301C19.7866 44.6333 21.3755 45.1109 23.0219 45.3658L23.0219 45.3659Z" fill="#FFE001"/>
    <path d="M18.5164 30.8653C18.2941 30.3604 17.7062 30.1309 17.1986 30.3519C15.7892 31.0524 11.8155 32.8501 13.1544 34.3444C13.5405 34.739 14.174 34.7466 14.5687 34.36C15.3937 33.5542 16.549 32.8221 18.0031 32.1823C18.5084 31.9609 18.7388 31.3711 18.5165 30.8654L18.5164 30.8653Z" fill="#FFE001"/>
    <path d="M44.4815 40.3336C44.0391 40.6635 43.9485 41.2907 44.2793 41.7331C44.6119 42.1778 45.2404 42.2644 45.6788 41.9354C47.3212 40.7077 48.3186 39.2595 48.5622 37.7487C48.7488 36.4483 46.8167 36.1349 46.5877 37.4304C46.4283 38.4184 45.6998 39.4224 44.4814 40.3335L44.4815 40.3336Z" fill="#FFE001"/>
    <path d="M42.6479 30.3429C42.1438 30.1232 41.5528 30.3523 41.3305 30.8576C41.1086 31.3634 41.3394 31.9532 41.8452 32.175C43.2988 32.8116 44.456 33.5433 45.285 34.3487C46.2261 35.2541 47.6131 33.8291 46.6782 32.9131C45.6773 31.9416 44.3216 31.0765 42.6478 30.343L42.6479 30.3429Z" fill="#FFE001"/>
    <path d="M40.8041 42.249C39.5554 42.7129 38.1676 43.0937 36.6778 43.3807C36.1359 43.4852 35.781 44.0089 35.8854 44.5517C35.9877 45.0972 36.5278 45.4504 37.0569 45.3437C38.6542 45.0361 40.1493 44.6258 41.5006 44.124C42.7243 43.6472 42.0439 41.8093 40.8042 42.249H40.8041Z" fill="#FFE001"/>
    <path d="M39.7538 22.8206C41.7636 18.1505 42.7538 14.8608 42.7538 12.8206C42.7538 5.75051 37.0038 0 29.9332 0C22.8626 0 17.1126 5.74994 17.1126 12.8206C17.1126 14.8608 18.1028 18.1505 20.1126 22.8206C-3.47708 26.5803 -8.0268 43.7703 15.6729 50.2309C16.213 50.371 16.7528 50.0509 16.9028 49.521C17.043 48.9809 16.7229 48.4411 16.193 48.2911C-5.83673 42.2612 -0.607014 28.0511 20.9429 24.7014C21.5527 26.0313 22.1729 27.3612 22.8331 28.6813C21.9728 28.8313 20.6331 28.9112 20.8733 30.1112C21.2635 31.4612 22.7733 30.6112 23.7331 30.521C24.0032 31.0612 24.2733 31.5911 24.5429 32.1112C25.813 34.5911 27.0027 36.7813 27.8331 38.3014C28.5925 39.6714 29.0626 40.5014 29.0626 40.5014C29.2425 40.8112 29.5728 41.0014 29.9327 41.0014C30.2925 41.0014 30.6228 40.8112 30.8028 40.5014C32.1327 38.1813 34.4929 33.8014 36.1327 30.5215C37.0925 30.6117 38.6028 31.4617 38.9925 30.1117C39.2327 28.9117 37.8925 28.8318 37.0327 28.6817C37.6925 27.3616 38.3126 26.0317 38.9229 24.7018C60.4829 28.0518 65.7023 42.2618 43.6728 48.2916C43.1429 48.4416 42.8228 48.9817 42.963 49.5215C43.1027 50.0617 43.6728 50.3715 44.1929 50.2313C67.8924 43.7711 63.3426 26.5707 39.7527 22.821L39.7538 22.8206ZM29.9337 19.0005C26.6238 19.0005 23.9337 16.3103 23.9337 13.0005C24.2136 5.06023 35.6537 5.06023 35.9337 13.0005C35.9337 16.3103 33.2435 19.0005 29.9337 19.0005Z" fill="#FFE001"/>
    <path d="M40.9336 49V59C40.9336 59.55 40.4836 60 39.9336 60H19.9336C19.3836 60 18.9336 59.55 18.9336 59V49C18.9336 48.45 19.3836 48 19.9336 48H39.9336C40.4836 48 40.9336 48.45 40.9336 49Z" fill="#E21E2C"/>
</svg>
